<svg width="183" height="54" viewBox="0 0 183 54" fill="none" xmlns="http://www.w3.org/2000/svg">
<path d="M65.92 38V15.6H70.688L79.424 30.016V15.6H83.84V38H79.072L70.336 23.584V38H65.92ZM94.4288 38.416C92.9568 38.416 91.6128 38.0373 90.3968 37.28C89.1914 36.5227 88.2261 35.504 87.5008 34.224C86.7861 32.944 86.4288 31.5307 86.4288 29.984C86.4288 28.8213 86.6368 27.7333 87.0528 26.72C87.4688 25.696 88.0394 24.8 88.7648 24.032C89.5008 23.2533 90.3541 22.6453 91.3248 22.208C92.2954 21.7707 93.3301 21.552 94.4288 21.552C95.6981 21.552 96.8554 21.824 97.9008 22.368C98.9568 22.912 99.8474 23.6533 100.573 24.592C101.309 25.5307 101.831 26.592 102.141 27.776C102.461 28.96 102.514 30.192 102.301 31.472H91.1968C91.3354 31.9413 91.5488 32.368 91.8368 32.752C92.1354 33.1253 92.4981 33.424 92.9248 33.648C93.3621 33.872 93.8634 33.9893 94.4288 34C94.9834 34.0107 95.4954 33.8827 95.9648 33.616C96.4341 33.3493 96.8341 32.992 97.1648 32.544L101.677 33.584C101.026 35.0027 100.055 36.1653 98.7648 37.072C97.4741 37.968 96.0288 38.416 94.4288 38.416ZM91.0368 28.208H97.8368C97.6981 27.6747 97.4634 27.1947 97.1328 26.768C96.8021 26.3413 96.4021 26.0053 95.9328 25.76C95.4741 25.5147 94.9728 25.392 94.4288 25.392C93.8954 25.392 93.3941 25.5147 92.9248 25.76C92.4661 26.0053 92.0714 26.3413 91.7408 26.768C91.4208 27.184 91.1861 27.664 91.0368 28.208ZM112.023 38.416C110.551 38.416 109.207 38.0373 107.991 37.28C106.785 36.5227 105.82 35.5093 105.095 34.24C104.38 32.96 104.023 31.5467 104.023 30C104.023 28.8267 104.231 27.7333 104.647 26.72C105.063 25.696 105.633 24.8 106.359 24.032C107.095 23.2533 107.948 22.6453 108.919 22.208C109.889 21.7707 110.924 21.552 112.023 21.552C113.495 21.552 114.833 21.9307 116.039 22.688C117.255 23.4453 118.22 24.464 118.935 25.744C119.66 27.024 120.023 28.4427 120.023 30C120.023 31.1627 119.815 32.2507 119.399 33.264C118.983 34.2773 118.407 35.1733 117.671 35.952C116.945 36.72 116.097 37.3227 115.127 37.76C114.167 38.1973 113.132 38.416 112.023 38.416ZM112.023 34C112.705 34 113.319 33.8187 113.863 33.456C114.407 33.0827 114.833 32.592 115.143 31.984C115.452 31.376 115.607 30.7147 115.607 30C115.607 29.264 115.441 28.592 115.111 27.984C114.791 27.3653 114.359 26.8747 113.815 26.512C113.271 26.1493 112.673 25.968 112.023 25.968C111.351 25.968 110.743 26.1547 110.199 26.528C109.655 26.9013 109.223 27.392 108.903 28C108.593 28.608 108.439 29.2747 108.439 30C108.439 30.7573 108.599 31.44 108.919 32.048C109.249 32.6453 109.687 33.12 110.231 33.472C110.775 33.824 111.372 34 112.023 34ZM131.337 25.328H127.977L127.961 38H124.633L124.649 25.328H122.105V22H124.649L124.633 16.976H127.961L127.977 22H131.337V25.328ZM140.866 38.416C139.394 38.416 138.05 38.0373 136.834 37.28C135.629 36.5227 134.664 35.5093 133.938 34.24C133.224 32.96 132.866 31.5467 132.866 30C132.866 28.8267 133.074 27.7333 133.49 26.72C133.906 25.696 134.477 24.8 135.202 24.032C135.938 23.2533 136.792 22.6453 137.762 22.208C138.733 21.7707 139.768 21.552 140.866 21.552C142.093 21.552 143.218 21.808 144.242 22.32C145.266 22.8213 146.141 23.52 146.866 24.416C147.592 25.3013 148.125 26.3253 148.466 27.488C148.808 28.64 148.909 29.8667 148.77 31.168H136.434C136.573 31.904 136.84 32.5707 137.234 33.168C137.64 33.7547 138.152 34.2187 138.77 34.56C139.4 34.9013 140.098 35.0773 140.866 35.088C141.677 35.088 142.413 34.8853 143.074 34.48C143.746 34.0747 144.296 33.5147 144.722 32.8L148.098 33.584C147.458 35.0027 146.493 36.1653 145.202 37.072C143.912 37.968 142.466 38.416 140.866 38.416ZM136.322 28.624H145.41C145.304 27.856 145.032 27.1627 144.594 26.544C144.168 25.9147 143.629 25.4187 142.978 25.056C142.338 24.6827 141.634 24.496 140.866 24.496C140.109 24.496 139.405 24.6773 138.754 25.04C138.114 25.4027 137.581 25.8987 137.154 26.528C136.738 27.1467 136.461 27.8453 136.322 28.624ZM161.837 33.456L164.813 35.072C164.087 36.0853 163.165 36.896 162.045 37.504C160.935 38.112 159.73 38.416 158.429 38.416C156.957 38.416 155.613 38.0373 154.397 37.28C153.191 36.5227 152.226 35.5093 151.501 34.24C150.786 32.96 150.429 31.5467 150.429 30C150.429 28.8267 150.637 27.7333 151.053 26.72C151.469 25.696 152.039 24.8 152.765 24.032C153.501 23.2533 154.354 22.6453 155.325 22.208C156.295 21.7707 157.33 21.552 158.429 21.552C159.73 21.552 160.935 21.856 162.045 22.464C163.165 23.072 164.087 23.888 164.813 24.912L161.837 26.528C161.389 25.9947 160.866 25.5893 160.269 25.312C159.671 25.024 159.058 24.88 158.429 24.88C157.554 24.88 156.759 25.12 156.045 25.6C155.341 26.0693 154.781 26.6933 154.365 27.472C153.959 28.24 153.757 29.0827 153.757 30C153.757 30.9067 153.965 31.7493 154.381 32.528C154.797 33.296 155.357 33.9147 156.061 34.384C156.775 34.8533 157.565 35.088 158.429 35.088C159.09 35.088 159.719 34.9387 160.317 34.64C160.914 34.3413 161.421 33.9467 161.837 33.456ZM181.726 27.968V38H178.398V28.784C178.398 28.0693 178.222 27.4187 177.87 26.832C177.529 26.2453 177.065 25.7813 176.478 25.44C175.902 25.088 175.252 24.912 174.526 24.912C173.822 24.912 173.177 25.088 172.59 25.44C172.004 25.7813 171.534 26.2453 171.182 26.832C170.83 27.4187 170.654 28.0693 170.654 28.784V38H167.326V14H170.654V23.696C171.209 23.0347 171.892 22.512 172.702 22.128C173.513 21.744 174.388 21.552 175.326 21.552C176.51 21.552 177.588 21.84 178.558 22.416C179.529 22.992 180.297 23.7653 180.862 24.736C181.438 25.7067 181.726 26.784 181.726 27.968Z" fill="#1E1E1E"/>
<path d="M38 0H16C7.16344 0 0 7.16344 0 16V38C0 46.8366 7.16344 54 16 54H38C46.8366 54 54 46.8366 54 38V16C54 7.16344 46.8366 0 38 0Z" fill="#7444FD"/>
<path d="M15 16.001H24.401L30.882 22.484V29.465L20.307 18.946L20.274 38.307H15V16.001Z" fill="white"/>
<path d="M38.631 38.307H29.232L22.752 31.823V24.839L33.327 35.356L33.359 16H38.631V38.307Z" fill="white"/>
</svg>
