<svg width="177" height="54" viewBox="0 0 177 54" fill="none" xmlns="http://www.w3.org/2000/svg">
<path d="M38 0H16C7.16344 0 0 7.16344 0 16V38C0 46.8366 7.16344 54 16 54H38C46.8366 54 54 46.8366 54 38V16C54 7.16344 46.8366 0 38 0Z" fill="#7444FD"/>
<path d="M15 16.001H24.401L30.882 22.484V29.465L20.307 18.946L20.274 38.307H15V16.001Z" fill="white"/>
<path d="M38.631 38.307H29.232L22.752 31.823V24.839L33.327 35.356L33.359 16H38.631V38.307Z" fill="white"/>
<path d="M85.5627 15.3362V38.7246H81.2915L71.1162 24.004H70.9449V38.7246H66V15.3362H70.3396L80.435 30.0453H80.6406V15.3362H85.5627Z" fill="#282C32"/>
<path d="M88.9137 38.7246V21.1833H93.7786V38.7246H88.9137ZM91.3576 18.9221C90.6343 18.9221 90.0138 18.6822 89.4961 18.2026C88.986 17.7153 88.7309 17.1329 88.7309 16.4553C88.7309 15.7853 88.986 15.2105 89.4961 14.7309C90.0138 14.2436 90.6343 14 91.3576 14C92.0808 14 92.6975 14.2436 93.2076 14.7309C93.7253 15.2105 93.9842 15.7853 93.9842 16.4553C93.9842 17.1329 93.7253 17.7153 93.2076 18.2026C92.6975 18.6822 92.0808 18.9221 91.3576 18.9221Z" fill="#282C32"/>
<path d="M104.958 39.0672C103.184 39.0672 101.65 38.6903 100.356 37.9366C99.0692 37.1752 98.0756 36.117 97.3752 34.7618C96.6747 33.399 96.3245 31.8192 96.3245 30.0224C96.3245 28.2104 96.6747 26.6268 97.3752 25.2717C98.0756 23.9089 99.0692 22.8506 100.356 22.0969C101.65 21.3355 103.184 20.9549 104.958 20.9549C106.732 20.9549 108.262 21.3355 109.549 22.0969C110.843 22.8506 111.841 23.9089 112.541 25.2717C113.242 26.6268 113.592 28.2104 113.592 30.0224C113.592 31.8192 113.242 33.399 112.541 34.7618C111.841 36.117 110.843 37.1752 109.549 37.9366C108.262 38.6903 106.732 39.0672 104.958 39.0672ZM104.981 35.2985C105.788 35.2985 106.462 35.0701 107.002 34.6133C107.543 34.1489 107.95 33.517 108.224 32.7176C108.506 31.9182 108.647 31.0084 108.647 29.9882C108.647 28.968 108.506 28.0582 108.224 27.2588C107.95 26.4594 107.543 25.8274 107.002 25.363C106.462 24.8986 105.788 24.6664 104.981 24.6664C104.166 24.6664 103.481 24.8986 102.925 25.363C102.377 25.8274 101.962 26.4594 101.681 27.2588C101.406 28.0582 101.269 28.968 101.269 29.9882C101.269 31.0084 101.406 31.9182 101.681 32.7176C101.962 33.517 102.377 34.1489 102.925 34.6133C103.481 35.0701 104.166 35.2985 104.981 35.2985Z" fill="#282C32"/>
<path d="M124.266 21.1833V23.4673H115.175V21.1833H124.266ZM117.825 16.9807H120.52V33.6997C120.52 34.461 120.63 35.0321 120.851 35.4127C121.08 35.7858 121.369 36.037 121.719 36.1665C122.077 36.2883 122.454 36.3492 122.85 36.3492C123.147 36.3492 123.39 36.3339 123.581 36.3035C123.771 36.2654 123.923 36.235 124.037 36.2121L124.586 38.6332C124.403 38.7017 124.148 38.7702 123.821 38.8388C123.493 38.9149 123.078 38.953 122.576 38.953C121.814 38.953 121.068 38.7893 120.337 38.4619C119.614 38.1345 119.013 37.6358 118.533 36.9659C118.061 36.2959 117.825 35.4508 117.825 34.4306V16.9807Z" fill="#282C32"/>
<path d="M134.843 39.09C133.153 39.09 131.695 38.7169 130.469 37.9708C129.251 37.2171 128.311 36.1665 127.648 34.8189C126.994 33.4637 126.666 31.8877 126.666 30.0909C126.666 28.2942 126.994 26.7106 127.648 25.3402C128.311 23.9622 129.232 22.8887 130.412 22.1197C131.6 21.3431 132.985 20.9549 134.569 20.9549C135.483 20.9549 136.385 21.1071 137.275 21.4117C138.166 21.7162 138.977 22.2111 139.708 22.8963C140.439 23.5739 141.021 24.4722 141.455 25.5914C141.889 26.7106 142.106 28.0886 142.106 29.7255V30.8675H128.585V28.5378H139.365C139.365 27.5481 139.167 26.6649 138.772 25.8883C138.383 25.1118 137.827 24.4989 137.104 24.0497C136.389 23.6005 135.543 23.3759 134.569 23.3759C133.495 23.3759 132.567 23.6424 131.782 24.1753C131.006 24.7007 130.408 25.3859 129.989 26.2309C129.571 27.076 129.361 27.982 129.361 28.9489V30.5021C129.361 31.8268 129.59 32.9498 130.047 33.871C130.511 34.7846 131.154 35.4812 131.977 35.9609C132.799 36.4329 133.754 36.6689 134.843 36.6689C135.551 36.6689 136.191 36.57 136.762 36.372C137.34 36.1665 137.839 35.8619 138.258 35.4584C138.676 35.0473 139 34.5372 139.228 33.9281L141.832 34.659C141.558 35.5422 141.097 36.3187 140.45 36.9887C139.803 37.6511 139.004 38.1688 138.052 38.5418C137.1 38.9073 136.031 39.09 134.843 39.09Z" fill="#282C32"/>
<path d="M152.689 39.09C151.044 39.09 149.628 38.7017 148.441 37.9251C147.253 37.1486 146.339 36.0789 145.7 34.7161C145.06 33.3533 144.741 31.7964 144.741 30.0453C144.741 28.2637 145.068 26.6916 145.723 25.3288C146.385 23.9583 147.306 22.8887 148.486 22.1197C149.674 21.3431 151.06 20.9549 152.643 20.9549C153.877 20.9549 154.988 21.1833 155.978 21.6401C156.968 22.0969 157.779 22.7364 158.41 23.5586C159.042 24.3809 159.434 25.3402 159.587 26.4365H156.892C156.686 25.6371 156.229 24.9291 155.521 24.3124C154.821 23.6881 153.877 23.3759 152.689 23.3759C151.638 23.3759 150.717 23.65 149.925 24.1982C149.141 24.7387 148.528 25.5039 148.087 26.4936C147.653 27.4757 147.436 28.6292 147.436 29.9539C147.436 31.3091 147.649 32.4892 148.075 33.4941C148.509 34.4991 149.118 35.2795 149.902 35.8353C150.694 36.391 151.623 36.6689 152.689 36.6689C153.389 36.6689 154.025 36.5471 154.596 36.3035C155.167 36.0599 155.651 35.7096 156.046 35.2528C156.442 34.796 156.724 34.2479 156.892 33.6083H159.587C159.434 34.6438 159.058 35.5764 158.456 36.4063C157.862 37.2285 157.074 37.8833 156.092 38.3705C155.118 38.8502 153.983 39.09 152.689 39.09Z" fill="#282C32"/>
<path d="M165.579 28.1724V38.7246H162.883V15.3362H165.579V23.9241H165.807C166.218 23.0181 166.835 22.2986 167.657 21.7657C168.487 21.2251 169.591 20.9549 170.969 20.9549C172.164 20.9549 173.211 21.1947 174.109 21.6743C175.008 22.1464 175.704 22.8734 176.199 23.8556C176.702 24.8301 176.953 26.0711 176.953 27.5785V38.7246H174.258V27.7612C174.258 26.368 173.896 25.2907 173.173 24.5294C172.457 23.7604 171.464 23.3759 170.192 23.3759C169.309 23.3759 168.517 23.5624 167.817 23.9355C167.124 24.3086 166.576 24.8529 166.172 25.5686C165.777 26.2842 165.579 27.1522 165.579 28.1724Z" fill="#282C32"/>
</svg>
