<svg xmlns="http://www.w3.org/2000/svg" xmlns:xlink="http://www.w3.org/1999/xlink" width="180" zoomAndPan="magnify"
     viewBox="0 0 375 374.999991" height="160" preserveAspectRatio="xMidYMid meet" version="1.0">
    <defs>
        <g/>
        <clipPath id="288c65d9a3">
            <path d="M 0 146.84375 L 106.636719 146.84375 L 106.636719 230.582031 L 0 230.582031 Z M 0 146.84375 "
                  clip-rule="nonzero"/>
        </clipPath>
        <clipPath id="879c519c26">
            <path d="M 3.75 146.84375 L 102.742188 146.84375 C 103.738281 146.84375 104.691406 147.238281 105.394531 147.941406 C 106.097656 148.648438 106.492188 149.601562 106.492188 150.59375 L 106.492188 226.832031 C 106.492188 227.828125 106.097656 228.78125 105.394531 229.484375 C 104.691406 230.1875 103.738281 230.582031 102.742188 230.582031 L 3.75 230.582031 C 2.753906 230.582031 1.800781 230.1875 1.097656 229.484375 C 0.394531 228.78125 0 227.828125 0 226.832031 L 0 150.59375 C 0 149.601562 0.394531 148.648438 1.097656 147.941406 C 1.800781 147.238281 2.753906 146.84375 3.75 146.84375 Z M 3.75 146.84375 "
                  clip-rule="nonzero"/>
        </clipPath>
        <clipPath id="3749331501">
            <path d="M 9.101562 135.832031 L 115.738281 135.832031 L 115.738281 219.570312 L 9.101562 219.570312 Z M 9.101562 135.832031 "
                  clip-rule="nonzero"/>
        </clipPath>
        <clipPath id="a9f48326c0">
            <path d="M 12.851562 135.832031 L 111.84375 135.832031 C 112.839844 135.832031 113.792969 136.226562 114.496094 136.929688 C 115.199219 137.632812 115.59375 138.585938 115.59375 139.582031 L 115.59375 215.820312 C 115.59375 216.8125 115.199219 217.769531 114.496094 218.472656 C 113.792969 219.175781 112.839844 219.570312 111.84375 219.570312 L 12.851562 219.570312 C 11.855469 219.570312 10.902344 219.175781 10.199219 218.472656 C 9.496094 217.769531 9.101562 216.8125 9.101562 215.820312 L 9.101562 139.582031 C 9.101562 138.585938 9.496094 137.632812 10.199219 136.929688 C 10.902344 136.226562 11.855469 135.832031 12.851562 135.832031 Z M 12.851562 135.832031 "
                  clip-rule="nonzero"/>
        </clipPath>
    </defs>
    <rect x="-37.5" width="450" fill="#ffffff" y="-37.499999" height="449.999989" fill-opacity="1"/>
    <g fill="#001f54" fill-opacity="1">
        <g transform="translate(125.217946, 180.190745)">
            <g>
                <path d="M 60.8125 -37.328125 C 61.300781 -37.460938 61.8125 -37.503906 62.34375 -37.453125 C 62.875 -37.398438 63.40625 -37.335938 63.9375 -37.265625 C 64.113281 -36.953125 64.207031 -36.632812 64.21875 -36.3125 C 64.238281 -36 64.234375 -35.664062 64.203125 -35.3125 L 64.203125 -33.078125 C 64.203125 -32.828125 64.175781 -32.613281 64.125 -32.4375 C 64.070312 -32.269531 64.046875 -32.097656 64.046875 -31.921875 C 63.585938 -31.984375 63.109375 -31.960938 62.609375 -31.859375 C 62.117188 -31.753906 61.695312 -31.488281 61.34375 -31.0625 C 61.164062 -30.851562 61.015625 -30.625 60.890625 -30.375 C 60.765625 -30.125 60.664062 -29.859375 60.59375 -29.578125 C 60.0625 -27.703125 59.570312 -25.800781 59.125 -23.875 C 58.6875 -21.957031 58.257812 -20.023438 57.84375 -18.078125 C 57.5625 -16.765625 57.304688 -15.453125 57.078125 -14.140625 C 56.847656 -12.835938 56.535156 -11.535156 56.140625 -10.234375 C 55.710938 -8.859375 55.320312 -7.460938 54.96875 -6.046875 C 54.625 -4.628906 54.289062 -3.210938 53.96875 -1.796875 C 53.9375 -1.554688 53.875 -1.3125 53.78125 -1.0625 C 53.695312 -0.8125 53.566406 -0.5625 53.390625 -0.3125 C 51.085938 0.0390625 48.753906 0.144531 46.390625 0 C 44.023438 -0.144531 41.617188 -0.195312 39.171875 -0.15625 C 39.035156 -0.226562 38.914062 -0.425781 38.8125 -0.75 C 38.5625 -2.125 38.234375 -3.484375 37.828125 -4.828125 C 37.421875 -6.171875 36.988281 -7.492188 36.53125 -8.796875 C 35.957031 -10.640625 35.476562 -12.53125 35.09375 -14.46875 C 34.78125 -15.914062 34.410156 -17.347656 33.984375 -18.765625 C 33.554688 -20.179688 33.148438 -21.597656 32.765625 -23.015625 C 32.765625 -23.148438 32.625 -23.269531 32.34375 -23.375 C 32.09375 -22.320312 31.828125 -21.289062 31.546875 -20.28125 C 31.265625 -19.269531 30.960938 -18.253906 30.640625 -17.234375 L 28.734375 -11.078125 C 28.453125 -10.128906 28.195312 -9.164062 27.96875 -8.1875 C 27.738281 -7.21875 27.5 -6.238281 27.25 -5.25 C 27.101562 -4.507812 26.90625 -3.765625 26.65625 -3.015625 C 26.414062 -2.273438 26.242188 -1.519531 26.140625 -0.75 C 26.035156 -0.101562 25.628906 0.21875 24.921875 0.21875 C 23.992188 0.21875 23.050781 0.21875 22.09375 0.21875 C 21.144531 0.21875 20.210938 0.179688 19.296875 0.109375 C 18.410156 0.0351562 17.515625 0.00390625 16.609375 0.015625 C 15.710938 0.0351562 14.804688 0.03125 13.890625 0 C 13.640625 0 13.363281 0 13.0625 0 C 12.769531 0 12.476562 -0.015625 12.1875 -0.046875 C 11.800781 -0.441406 11.519531 -0.957031 11.34375 -1.59375 L 9.015625 -9.65625 C 8.660156 -10.78125 8.304688 -11.914062 7.953125 -13.0625 C 7.597656 -14.21875 7.242188 -15.359375 6.890625 -16.484375 C 6.328125 -18.253906 5.796875 -20.03125 5.296875 -21.8125 C 4.804688 -23.601562 4.363281 -25.414062 3.96875 -27.25 C 3.863281 -27.675781 3.738281 -28.109375 3.59375 -28.546875 C 3.457031 -28.992188 3.300781 -29.425781 3.125 -29.84375 C 2.769531 -30.757812 2.488281 -31.675781 2.28125 -32.59375 C 2.070312 -33.519531 1.820312 -34.441406 1.53125 -35.359375 C 1.46875 -35.535156 1.414062 -35.75 1.375 -36 C 1.34375 -36.25 1.328125 -36.476562 1.328125 -36.6875 C 1.503906 -36.863281 1.710938 -36.941406 1.953125 -36.921875 C 2.203125 -36.910156 2.4375 -36.90625 2.65625 -36.90625 C 3.570312 -36.90625 4.472656 -36.894531 5.359375 -36.875 C 6.242188 -36.851562 7.125 -36.863281 8 -36.90625 C 8.8125 -36.90625 9.613281 -36.910156 10.40625 -36.921875 C 11.207031 -36.941406 12 -36.96875 12.78125 -37 C 13.34375 -37.039062 13.914062 -37.039062 14.5 -37 C 15.082031 -36.96875 15.65625 -36.96875 16.21875 -37 C 17 -37.039062 17.441406 -36.6875 17.546875 -35.9375 C 17.898438 -34.101562 18.332031 -32.273438 18.84375 -30.453125 C 19.351562 -28.640625 19.785156 -26.796875 20.140625 -24.921875 C 20.535156 -22.941406 21.015625 -20.976562 21.578125 -19.03125 C 22.140625 -17.082031 22.671875 -15.140625 23.171875 -13.203125 C 23.203125 -13.054688 23.242188 -12.9375 23.296875 -12.84375 C 23.347656 -12.757812 23.410156 -12.628906 23.484375 -12.453125 C 23.765625 -12.742188 23.941406 -13.054688 24.015625 -13.390625 C 24.085938 -13.722656 24.160156 -14.050781 24.234375 -14.375 C 24.722656 -16.382812 25.207031 -18.410156 25.6875 -20.453125 C 26.164062 -22.503906 26.671875 -24.539062 27.203125 -26.5625 C 27.585938 -28.113281 27.921875 -29.675781 28.203125 -31.25 C 28.484375 -32.820312 28.851562 -34.367188 29.3125 -35.890625 C 29.382812 -36.035156 29.4375 -36.175781 29.46875 -36.3125 C 29.507812 -36.457031 29.546875 -36.617188 29.578125 -36.796875 C 31.773438 -37.078125 33.984375 -37.179688 36.203125 -37.109375 C 38.429688 -37.035156 40.625 -37.035156 42.78125 -37.109375 C 43.34375 -36.753906 43.679688 -36.296875 43.796875 -35.734375 C 44.078125 -34.597656 44.363281 -33.457031 44.65625 -32.3125 C 44.957031 -31.164062 45.253906 -30.023438 45.546875 -28.890625 C 45.578125 -28.710938 45.617188 -28.535156 45.671875 -28.359375 C 45.722656 -28.179688 45.769531 -28.003906 45.8125 -27.828125 C 46.125 -26.703125 46.429688 -25.554688 46.734375 -24.390625 C 47.035156 -23.222656 47.34375 -22.070312 47.65625 -20.9375 C 48.050781 -19.53125 48.476562 -18.117188 48.9375 -16.703125 C 49.394531 -15.285156 49.851562 -13.867188 50.3125 -12.453125 C 50.3125 -12.453125 50.382812 -12.382812 50.53125 -12.25 C 50.738281 -12.5625 50.875 -12.894531 50.9375 -13.25 C 51.007812 -13.601562 51.066406 -13.941406 51.109375 -14.265625 C 51.285156 -15.253906 51.503906 -16.21875 51.765625 -17.15625 C 52.035156 -18.09375 52.238281 -19.054688 52.375 -20.046875 C 52.550781 -21.140625 52.753906 -22.234375 52.984375 -23.328125 C 53.210938 -24.421875 53.4375 -25.515625 53.65625 -26.609375 C 53.9375 -28.054688 54.296875 -29.476562 54.734375 -30.875 C 55.179688 -32.269531 55.847656 -33.585938 56.734375 -34.828125 C 57.253906 -35.566406 57.859375 -36.125 58.546875 -36.5 C 59.242188 -36.875 60 -37.148438 60.8125 -37.328125 Z M 60.8125 -37.328125 "/>
            </g>
        </g>
    </g>
    <g fill="#001f54" fill-opacity="1">
        <g transform="translate(198.467425, 180.190745)">
            <g>
                <path d="M 34.09375 -37.109375 C 35.257812 -37.210938 35.785156 -36.753906 35.671875 -35.734375 C 35.609375 -35.234375 35.59375 -34.742188 35.625 -34.265625 C 35.65625 -33.796875 35.691406 -33.3125 35.734375 -32.8125 C 35.765625 -32.675781 35.757812 -32.546875 35.71875 -32.421875 C 35.6875 -32.296875 35.65625 -32.160156 35.625 -32.015625 C 32.625 -31.984375 29.617188 -32.003906 26.609375 -32.078125 C 23.609375 -32.148438 20.601562 -32.039062 17.59375 -31.75 C 17.664062 -30.164062 17.65625 -28.523438 17.5625 -26.828125 C 17.476562 -25.128906 17.523438 -23.46875 17.703125 -21.84375 C 18.304688 -21.914062 18.90625 -21.90625 19.5 -21.8125 C 20.101562 -21.726562 20.707031 -21.722656 21.3125 -21.796875 C 21.738281 -21.859375 22.160156 -21.890625 22.578125 -21.890625 C 23.003906 -21.890625 23.429688 -21.875 23.859375 -21.84375 C 24.773438 -21.84375 25.703125 -21.867188 26.640625 -21.921875 C 27.578125 -21.972656 28.503906 -22.015625 29.421875 -22.046875 C 29.878906 -22.085938 30.328125 -22.113281 30.765625 -22.125 C 31.210938 -22.144531 31.664062 -22.140625 32.125 -22.109375 C 32.9375 -22.035156 33.304688 -21.628906 33.234375 -20.890625 C 33.203125 -20.285156 33.191406 -19.691406 33.203125 -19.109375 C 33.222656 -18.523438 33.253906 -17.9375 33.296875 -17.34375 C 33.296875 -16.695312 33.015625 -16.375 32.453125 -16.375 C 31.953125 -16.375 31.445312 -16.363281 30.9375 -16.34375 C 30.425781 -16.332031 29.921875 -16.328125 29.421875 -16.328125 C 28.472656 -16.328125 27.53125 -16.304688 26.59375 -16.265625 C 25.65625 -16.234375 24.707031 -16.203125 23.75 -16.171875 C 23.394531 -16.128906 23.03125 -16.109375 22.65625 -16.109375 C 22.289062 -16.109375 21.914062 -16.109375 21.53125 -16.109375 L 17.59375 -16.109375 C 17.457031 -14.273438 17.441406 -12.4375 17.546875 -10.59375 C 17.648438 -8.757812 17.738281 -6.925781 17.8125 -5.09375 C 18.019531 -4.945312 18.25 -4.890625 18.5 -4.921875 C 18.75 -4.960938 19 -4.96875 19.25 -4.9375 C 19.8125 -4.894531 20.375 -4.863281 20.9375 -4.84375 C 21.507812 -4.832031 22.054688 -4.84375 22.578125 -4.875 C 23.285156 -4.945312 23.972656 -4.984375 24.640625 -4.984375 C 25.316406 -4.984375 25.992188 -5.035156 26.671875 -5.140625 C 27.054688 -5.210938 27.46875 -5.226562 27.90625 -5.1875 C 28.351562 -5.15625 28.789062 -5.160156 29.21875 -5.203125 C 30.09375 -5.304688 30.972656 -5.359375 31.859375 -5.359375 C 32.742188 -5.359375 33.628906 -5.359375 34.515625 -5.359375 C 35.046875 -5.359375 35.578125 -5.414062 36.109375 -5.53125 C 36.640625 -5.65625 37.1875 -5.578125 37.75 -5.296875 L 37.75 -1.328125 C 37.820312 -0.515625 37.46875 -0.144531 36.6875 -0.21875 C 35.800781 -0.25 34.914062 -0.21875 34.03125 -0.125 C 33.144531 -0.0390625 32.242188 -0.015625 31.328125 -0.046875 C 30.203125 -0.117188 29.0625 -0.132812 27.90625 -0.09375 C 26.757812 -0.0625 25.625 -0.03125 24.5 0 C 23.039062 0.03125 21.566406 0.046875 20.078125 0.046875 C 18.597656 0.046875 17.117188 0.046875 15.640625 0.046875 C 15.492188 0.046875 15.144531 0.0546875 14.59375 0.078125 C 14.050781 0.0976562 13.4375 0.125 12.75 0.15625 C 12.0625 0.195312 11.40625 0.222656 10.78125 0.234375 C 10.164062 0.253906 9.71875 0.265625 9.4375 0.265625 C 8.757812 0.191406 8.09375 0.132812 7.4375 0.09375 C 6.789062 0.0625 6.113281 0.046875 5.40625 0.046875 C 5.15625 0.046875 4.773438 0.0703125 4.265625 0.125 C 3.753906 0.1875 3.5 0.160156 3.5 0.046875 C 3.570312 -0.691406 3.597656 -1.441406 3.578125 -2.203125 C 3.554688 -2.960938 3.515625 -3.710938 3.453125 -4.453125 C 3.335938 -5.472656 3.335938 -6.535156 3.453125 -7.640625 C 3.515625 -8.160156 3.535156 -8.703125 3.515625 -9.265625 C 3.503906 -9.835938 3.5 -10.40625 3.5 -10.96875 C 3.5 -11.425781 3.503906 -11.875 3.515625 -12.3125 C 3.535156 -12.757812 3.515625 -13.210938 3.453125 -13.671875 C 3.410156 -14.378906 3.363281 -15.085938 3.3125 -15.796875 C 3.257812 -16.503906 3.234375 -17.210938 3.234375 -17.921875 C 3.234375 -18.660156 3.222656 -19.410156 3.203125 -20.171875 C 3.191406 -20.929688 3.1875 -21.679688 3.1875 -22.421875 C 3.21875 -23.160156 3.238281 -23.898438 3.25 -24.640625 C 3.269531 -25.390625 3.300781 -26.132812 3.34375 -26.875 C 3.414062 -29.382812 3.414062 -31.519531 3.34375 -33.28125 C 3.269531 -35.050781 3.21875 -36.113281 3.1875 -36.46875 C 3.25 -36.539062 3.332031 -36.59375 3.4375 -36.625 C 3.550781 -36.664062 3.625 -36.722656 3.65625 -36.796875 C 3.90625 -36.867188 4.109375 -36.894531 4.265625 -36.875 C 4.421875 -36.851562 4.625 -36.84375 4.875 -36.84375 C 6.539062 -36.914062 8.210938 -36.925781 9.890625 -36.875 C 11.566406 -36.820312 13.234375 -36.832031 14.890625 -36.90625 C 15.492188 -36.9375 16.09375 -36.941406 16.6875 -36.921875 C 17.289062 -36.910156 17.878906 -36.921875 18.453125 -36.953125 C 19.296875 -37.023438 20.148438 -37.035156 21.015625 -36.984375 C 21.878906 -36.929688 22.738281 -36.9375 23.59375 -37 C 24.40625 -37.070312 25.234375 -37.082031 26.078125 -37.03125 C 26.929688 -36.976562 27.78125 -36.988281 28.625 -37.0625 C 29.4375 -37.125 30.265625 -37.144531 31.109375 -37.125 C 31.960938 -37.113281 32.816406 -37.109375 33.671875 -37.109375 Z M 34.09375 -37.109375 "/>
            </g>
        </g>
    </g>
    <g fill="#001f54" fill-opacity="1">
        <g transform="translate(245.322202, 180.190745)">
            <g>
                <path d="M 3.65625 -37.109375 C 4.789062 -37.179688 5.90625 -37.171875 7 -37.078125 C 8.09375 -36.992188 9.1875 -36.96875 10.28125 -37 C 11.414062 -37.070312 12.546875 -37.082031 13.671875 -37.03125 C 14.804688 -36.976562 15.941406 -36.988281 17.078125 -37.0625 C 17.921875 -37.125 19.101562 -37.164062 20.625 -37.1875 C 22.144531 -37.207031 23.742188 -37.21875 25.421875 -37.21875 C 27.097656 -37.21875 28.632812 -37.195312 30.03125 -37.15625 C 31.425781 -37.125 32.460938 -37.09375 33.140625 -37.0625 C 33.628906 -37.019531 34.09375 -36.945312 34.53125 -36.84375 C 34.976562 -36.738281 35.429688 -36.597656 35.890625 -36.421875 C 36.390625 -36.242188 36.859375 -36.046875 37.296875 -35.828125 C 37.734375 -35.617188 38.128906 -35.359375 38.484375 -35.046875 C 40.046875 -33.835938 41.035156 -32.332031 41.453125 -30.53125 C 41.566406 -30.039062 41.679688 -29.546875 41.796875 -29.046875 C 41.921875 -28.554688 42.003906 -28.0625 42.046875 -27.5625 C 42.078125 -26.644531 41.988281 -25.710938 41.78125 -24.765625 C 41.5 -23.347656 40.921875 -22.222656 40.046875 -21.390625 C 39.179688 -20.554688 38.113281 -19.894531 36.84375 -19.40625 C 36.53125 -19.300781 36.210938 -19.203125 35.890625 -19.109375 C 35.578125 -19.023438 35.242188 -18.929688 34.890625 -18.828125 C 35.304688 -18.785156 35.71875 -18.726562 36.125 -18.65625 C 36.53125 -18.59375 36.929688 -18.523438 37.328125 -18.453125 C 38.554688 -18.234375 39.6875 -17.863281 40.71875 -17.34375 C 41.207031 -17.125 41.628906 -16.8125 41.984375 -16.40625 C 42.335938 -16 42.691406 -15.582031 43.046875 -15.15625 C 43.679688 -14.34375 44.113281 -13.457031 44.34375 -12.5 C 44.570312 -11.550781 44.707031 -10.566406 44.75 -9.546875 C 44.78125 -8.554688 44.660156 -7.597656 44.390625 -6.671875 C 44.128906 -5.753906 43.769531 -4.851562 43.3125 -3.96875 C 43.03125 -3.375 42.640625 -2.851562 42.140625 -2.40625 C 41.648438 -1.96875 41.101562 -1.570312 40.5 -1.21875 C 39.6875 -0.726562 38.847656 -0.425781 37.984375 -0.3125 C 37.117188 -0.207031 36.242188 -0.117188 35.359375 -0.046875 C 34.753906 -0.015625 34.148438 -0.00390625 33.546875 -0.015625 C 32.953125 -0.0351562 32.351562 -0.03125 31.75 0 C 31.289062 0.03125 30.804688 0.03125 30.296875 0 C 29.785156 -0.03125 29.28125 -0.046875 28.78125 -0.046875 C 27.507812 -0.015625 26.238281 -0.015625 24.96875 -0.046875 C 23.695312 -0.0859375 22.425781 -0.109375 21.15625 -0.109375 C 20.476562 -0.109375 19.820312 -0.132812 19.1875 -0.1875 C 18.550781 -0.238281 17.9375 -0.226562 17.34375 -0.15625 C 16.8125 -0.125 16.285156 -0.0976562 15.765625 -0.078125 C 15.253906 -0.0546875 14.753906 -0.03125 14.265625 0 C 13.765625 0 13.25 -0.00390625 12.71875 -0.015625 C 12.1875 -0.0351562 11.660156 -0.046875 11.140625 -0.046875 C 10.785156 -0.046875 10.421875 -0.03125 10.046875 0 C 9.671875 0.03125 9.289062 0.046875 8.90625 0.046875 C 8.550781 0.046875 8.1875 0.0351562 7.8125 0.015625 C 7.445312 0.00390625 7.070312 -0.015625 6.6875 -0.046875 C 6.4375 -0.0859375 6.082031 -0.0820312 5.625 -0.03125 C 5.164062 0.0195312 4.738281 0.0625 4.34375 0.09375 C 3.957031 0.132812 3.726562 0.15625 3.65625 0.15625 C 3.625 0.0195312 3.613281 -0.390625 3.625 -1.078125 C 3.644531 -1.773438 3.671875 -2.53125 3.703125 -3.34375 C 3.742188 -4.15625 3.726562 -4.789062 3.65625 -5.25 C 3.582031 -5.851562 3.546875 -6.445312 3.546875 -7.03125 C 3.546875 -7.613281 3.53125 -8.1875 3.5 -8.75 C 3.46875 -9.488281 3.441406 -10.238281 3.421875 -11 C 3.398438 -11.757812 3.410156 -12.507812 3.453125 -13.25 C 3.453125 -14.164062 3.429688 -15.09375 3.390625 -16.03125 C 3.359375 -16.96875 3.359375 -17.898438 3.390625 -18.828125 C 3.429688 -19.421875 3.421875 -20.007812 3.359375 -20.59375 C 3.304688 -21.175781 3.265625 -21.75 3.234375 -22.3125 C 3.234375 -23.09375 3.222656 -23.863281 3.203125 -24.625 C 3.191406 -25.382812 3.203125 -26.15625 3.234375 -26.9375 C 3.304688 -27.851562 3.332031 -28.757812 3.3125 -29.65625 C 3.289062 -30.5625 3.28125 -31.457031 3.28125 -32.34375 C 3.320312 -32.9375 3.347656 -33.515625 3.359375 -34.078125 C 3.378906 -34.648438 3.410156 -35.21875 3.453125 -35.78125 C 3.515625 -36 3.515625 -36.195312 3.453125 -36.375 C 3.304688 -36.6875 3.375 -36.929688 3.65625 -37.109375 Z M 22.375 -32.5 C 21.695312 -32.5 21.015625 -32.476562 20.328125 -32.4375 C 19.640625 -32.40625 18.941406 -32.375 18.234375 -32.34375 C 18.097656 -32.34375 17.992188 -32.289062 17.921875 -32.1875 C 17.953125 -30.445312 17.984375 -28.6875 18.015625 -26.90625 C 18.054688 -25.125 18.09375 -23.3125 18.125 -21.46875 C 18.300781 -21.4375 18.453125 -21.421875 18.578125 -21.421875 C 18.703125 -21.421875 18.835938 -21.421875 18.984375 -21.421875 C 19.691406 -21.421875 20.40625 -21.425781 21.125 -21.4375 C 21.851562 -21.457031 22.570312 -21.488281 23.28125 -21.53125 C 23.59375 -21.5625 23.914062 -21.59375 24.25 -21.625 C 24.59375 -21.664062 24.90625 -21.753906 25.1875 -21.890625 C 25.894531 -22.171875 26.414062 -22.578125 26.75 -23.109375 C 27.082031 -23.640625 27.320312 -24.257812 27.46875 -24.96875 C 27.570312 -25.707031 27.601562 -26.429688 27.5625 -27.140625 C 27.53125 -27.847656 27.390625 -28.539062 27.140625 -29.21875 C 27.003906 -29.632812 26.835938 -30.046875 26.640625 -30.453125 C 26.441406 -30.859375 26.148438 -31.1875 25.765625 -31.4375 C 25.234375 -31.820312 24.6875 -32.085938 24.125 -32.234375 C 23.5625 -32.378906 22.976562 -32.46875 22.375 -32.5 Z M 23.109375 -16.015625 C 22.578125 -15.972656 22.035156 -15.953125 21.484375 -15.953125 C 20.941406 -15.953125 20.40625 -15.921875 19.875 -15.859375 C 19.5625 -15.859375 19.253906 -15.847656 18.953125 -15.828125 C 18.648438 -15.804688 18.34375 -15.816406 18.03125 -15.859375 L 18.03125 -5.296875 C 18.414062 -5.265625 18.800781 -5.238281 19.1875 -5.21875 C 19.582031 -5.207031 19.957031 -5.21875 20.3125 -5.25 C 21.507812 -5.25 22.691406 -5.195312 23.859375 -5.09375 C 24.492188 -5.019531 25.101562 -5.050781 25.6875 -5.1875 C 26.269531 -5.332031 26.789062 -5.632812 27.25 -6.09375 C 27.394531 -6.238281 27.519531 -6.375 27.625 -6.5 C 27.726562 -6.625 27.796875 -6.753906 27.828125 -6.890625 C 28.046875 -7.453125 28.210938 -8.023438 28.328125 -8.609375 C 28.453125 -9.191406 28.535156 -9.785156 28.578125 -10.390625 C 28.578125 -10.566406 28.550781 -10.75 28.5 -10.9375 C 28.445312 -11.132812 28.421875 -11.320312 28.421875 -11.5 C 28.242188 -12.8125 27.75 -13.925781 26.9375 -14.84375 C 26.40625 -15.40625 25.8125 -15.738281 25.15625 -15.84375 C 24.5 -15.957031 23.816406 -16.015625 23.109375 -16.015625 Z M 23.109375 -16.015625 "/>
            </g>
        </g>
    </g>
    <g fill="#001f54" fill-opacity="1">
        <g transform="translate(299.96819, 180.190745)">
            <g>
                <path d="M 17.28125 -37.21875 C 17.664062 -37.25 17.945312 -37.191406 18.125 -37.046875 C 18.300781 -36.910156 18.375 -36.628906 18.34375 -36.203125 C 18.269531 -35.460938 18.269531 -34.707031 18.34375 -33.9375 C 18.414062 -32.945312 18.414062 -31.9375 18.34375 -30.90625 C 18.269531 -29.882812 18.253906 -28.859375 18.296875 -27.828125 C 18.328125 -27.265625 18.320312 -26.691406 18.28125 -26.109375 C 18.25 -25.523438 18.253906 -24.929688 18.296875 -24.328125 C 18.328125 -23.378906 18.332031 -22.425781 18.3125 -21.46875 C 18.300781 -20.519531 18.296875 -19.566406 18.296875 -18.609375 C 18.253906 -17.472656 18.210938 -16.332031 18.171875 -15.1875 C 18.140625 -14.039062 18.160156 -12.898438 18.234375 -11.765625 C 18.304688 -10.992188 18.332031 -10.207031 18.3125 -9.40625 C 18.300781 -8.613281 18.296875 -7.8125 18.296875 -7 C 18.328125 -6.144531 18.332031 -5.285156 18.3125 -4.421875 C 18.300781 -3.554688 18.296875 -2.679688 18.296875 -1.796875 C 18.296875 -1.691406 18.300781 -1.585938 18.3125 -1.484375 C 18.332031 -1.378906 18.359375 -1.273438 18.390625 -1.171875 C 18.460938 -0.921875 18.4375 -0.707031 18.3125 -0.53125 C 18.1875 -0.351562 18.003906 -0.265625 17.765625 -0.265625 C 16.734375 -0.265625 15.710938 -0.210938 14.703125 -0.109375 C 13.703125 -0.00390625 12.6875 0.0664062 11.65625 0.109375 C 11.132812 0.140625 10.613281 0.128906 10.09375 0.078125 C 9.582031 0.0234375 9.0625 -0.015625 8.53125 -0.046875 C 7.757812 -0.0859375 6.972656 -0.113281 6.171875 -0.125 C 5.378906 -0.144531 4.578125 -0.0859375 3.765625 0.046875 C 3.410156 -0.160156 3.234375 -0.53125 3.234375 -1.0625 C 3.304688 -1.695312 3.367188 -2.332031 3.421875 -2.96875 C 3.472656 -3.601562 3.460938 -4.222656 3.390625 -4.828125 C 3.359375 -5.535156 3.320312 -6.210938 3.28125 -6.859375 C 3.25 -7.515625 3.25 -8.179688 3.28125 -8.859375 C 3.320312 -10.085938 3.359375 -11.3125 3.390625 -12.53125 C 3.429688 -13.757812 3.429688 -14.972656 3.390625 -16.171875 C 3.359375 -16.835938 3.359375 -17.503906 3.390625 -18.171875 C 3.429688 -18.847656 3.453125 -19.523438 3.453125 -20.203125 C 3.453125 -21.015625 3.457031 -21.832031 3.46875 -22.65625 C 3.488281 -23.488281 3.484375 -24.3125 3.453125 -25.125 C 3.453125 -25.726562 3.46875 -26.335938 3.5 -26.953125 C 3.53125 -27.578125 3.515625 -28.171875 3.453125 -28.734375 C 3.410156 -29.160156 3.363281 -29.578125 3.3125 -29.984375 C 3.257812 -30.390625 3.234375 -30.800781 3.234375 -31.21875 C 3.203125 -31.644531 3.203125 -32.070312 3.234375 -32.5 C 3.265625 -32.925781 3.28125 -33.347656 3.28125 -33.765625 C 3.28125 -34.085938 3.269531 -34.492188 3.25 -34.984375 C 3.238281 -35.484375 3.222656 -35.9375 3.203125 -36.34375 C 3.191406 -36.75 3.1875 -36.953125 3.1875 -36.953125 C 3.707031 -37.023438 4.222656 -37.039062 4.734375 -37 C 5.253906 -36.96875 5.757812 -37.003906 6.25 -37.109375 C 6.675781 -37.210938 7.101562 -37.238281 7.53125 -37.1875 C 7.957031 -37.132812 8.378906 -37.09375 8.796875 -37.0625 C 9.503906 -37.019531 10.195312 -37.019531 10.875 -37.0625 C 12.039062 -37.125 13.1875 -37.125 14.3125 -37.0625 C 15.300781 -37.019531 16.289062 -37.070312 17.28125 -37.21875 Z M 17.28125 -37.21875 "/>
            </g>
        </g>
    </g>
    <g fill="#001f54" fill-opacity="1">
        <g transform="translate(329.226494, 180.190745)">
            <g>
                <path d="M 25.65625 -37.53125 C 25.757812 -37.53125 25.875 -37.503906 26 -37.453125 C 26.125 -37.398438 26.207031 -37.359375 26.25 -37.328125 C 28.863281 -31.273438 31.265625 -25.164062 33.453125 -19 C 35.640625 -12.832031 38.007812 -6.75 40.5625 -0.75 C 40.382812 -0.394531 40.148438 -0.242188 39.859375 -0.296875 C 39.578125 -0.347656 39.316406 -0.335938 39.078125 -0.265625 C 38.296875 -0.117188 37.523438 -0.0703125 36.765625 -0.125 C 36.003906 -0.1875 35.234375 -0.179688 34.453125 -0.109375 C 32.015625 0.0351562 29.578125 0.0859375 27.140625 0.046875 C 26.960938 0.015625 26.769531 0.0390625 26.5625 0.125 C 26.351562 0.21875 26.125 0.210938 25.875 0.109375 C 25.476562 -1.097656 25.039062 -2.289062 24.5625 -3.46875 C 24.09375 -4.65625 23.644531 -5.847656 23.21875 -7.046875 C 20.925781 -7.265625 18.640625 -7.289062 16.359375 -7.125 C 14.078125 -6.96875 11.785156 -6.960938 9.484375 -7.109375 C 9.242188 -6.429688 9 -5.78125 8.75 -5.15625 C 8.5 -4.539062 8.234375 -3.9375 7.953125 -3.34375 C 7.703125 -2.769531 7.488281 -2.191406 7.3125 -1.609375 C 7.132812 -1.035156 6.90625 -0.535156 6.625 -0.109375 C 5.707031 -0.140625 4.832031 -0.132812 4 -0.09375 C 3.164062 -0.0625 2.34375 -0.03125 1.53125 0 C 1.425781 -0.175781 1.351562 -0.359375 1.3125 -0.546875 C 1.28125 -0.742188 1.320312 -0.984375 1.4375 -1.265625 C 1.71875 -1.941406 2.003906 -2.601562 2.296875 -3.25 C 2.597656 -3.90625 2.859375 -4.570312 3.078125 -5.25 C 3.328125 -5.957031 3.582031 -6.679688 3.84375 -7.421875 C 4.101562 -8.160156 4.410156 -8.867188 4.765625 -9.546875 C 5.015625 -10.035156 5.21875 -10.523438 5.375 -11.015625 C 5.539062 -11.515625 5.726562 -12.015625 5.9375 -12.515625 C 6.363281 -13.535156 6.785156 -14.550781 7.203125 -15.5625 C 7.628906 -16.570312 8.070312 -17.570312 8.53125 -18.5625 C 8.75 -19.019531 8.925781 -19.503906 9.0625 -20.015625 C 9.207031 -20.523438 9.382812 -21.007812 9.59375 -21.46875 C 9.875 -22.175781 10.113281 -22.914062 10.3125 -23.6875 C 10.507812 -24.46875 10.785156 -25.195312 11.140625 -25.875 C 11.628906 -26.820312 12.03125 -27.800781 12.34375 -28.8125 C 12.664062 -29.820312 13.039062 -30.820312 13.46875 -31.8125 C 13.851562 -32.726562 14.203125 -33.65625 14.515625 -34.59375 C 14.835938 -35.53125 15.210938 -36.472656 15.640625 -37.421875 C 15.921875 -37.460938 16.203125 -37.5 16.484375 -37.53125 C 16.765625 -37.570312 17.050781 -37.570312 17.34375 -37.53125 C 18.007812 -37.457031 18.660156 -37.421875 19.296875 -37.421875 C 19.929688 -37.421875 20.585938 -37.421875 21.265625 -37.421875 C 21.960938 -37.421875 22.679688 -37.4375 23.421875 -37.46875 C 24.171875 -37.507812 24.914062 -37.53125 25.65625 -37.53125 Z M 16.640625 -25.609375 C 15.617188 -23.453125 14.738281 -21.242188 14 -18.984375 C 13.257812 -16.722656 12.425781 -14.492188 11.5 -12.296875 C 13.125 -12.191406 14.75 -12.175781 16.375 -12.25 C 18.007812 -12.320312 19.65625 -12.375 21.3125 -12.40625 C 20.5 -14.59375 19.71875 -16.800781 18.96875 -19.03125 C 18.226562 -21.257812 17.453125 -23.453125 16.640625 -25.609375 Z M 16.640625 -25.609375 "/>
            </g>
        </g>
    </g>
    <g fill="#001f54" fill-opacity="1">
        <g transform="translate(250.655022, 215.80404)">
            <g>
                <path d="M 10.96875 -23.921875 C 11.0625 -23.941406 11.15625 -23.910156 11.25 -23.828125 C 11.351562 -23.753906 11.460938 -23.671875 11.578125 -23.578125 C 11.441406 -20.273438 11.375 -16.960938 11.375 -13.640625 C 11.375 -10.328125 11.488281 -7.007812 11.71875 -3.6875 L 13.96875 -3.6875 C 14.332031 -3.6875 14.691406 -3.691406 15.046875 -3.703125 C 15.398438 -3.710938 15.757812 -3.734375 16.125 -3.765625 C 16.695312 -3.804688 17.253906 -3.804688 17.796875 -3.765625 C 18.191406 -3.734375 18.578125 -3.753906 18.953125 -3.828125 C 19.328125 -3.898438 19.695312 -3.910156 20.0625 -3.859375 C 20.257812 -3.835938 20.46875 -3.832031 20.6875 -3.84375 C 20.90625 -3.851562 21.117188 -3.867188 21.328125 -3.890625 C 21.578125 -3.941406 21.742188 -3.863281 21.828125 -3.65625 L 21.796875 -2.25 C 21.753906 -1.863281 21.757812 -1.492188 21.8125 -1.140625 C 21.875 -0.785156 21.769531 -0.472656 21.5 -0.203125 C 21.269531 -0.0859375 21.039062 -0.0507812 20.8125 -0.09375 C 20.582031 -0.144531 20.34375 -0.160156 20.09375 -0.140625 C 19.519531 -0.117188 18.929688 -0.117188 18.328125 -0.140625 C 17.722656 -0.160156 17.128906 -0.148438 16.546875 -0.109375 C 15.703125 -0.078125 14.863281 -0.0664062 14.03125 -0.078125 C 13.195312 -0.0976562 12.359375 -0.0820312 11.515625 -0.03125 C 10.691406 -0.0078125 9.867188 -0.00390625 9.046875 -0.015625 C 8.234375 -0.0234375 7.414062 -0.0078125 6.59375 0.03125 C 5.957031 0.0820312 5.300781 0.0976562 4.625 0.078125 C 3.957031 0.0664062 3.289062 0.0625 2.625 0.0625 C 2.40625 -0.207031 2.296875 -0.5 2.296875 -0.8125 C 2.296875 -1.539062 2.304688 -2.273438 2.328125 -3.015625 C 2.347656 -3.765625 2.320312 -4.488281 2.25 -5.1875 C 2.207031 -5.738281 2.203125 -6.285156 2.234375 -6.828125 C 2.273438 -7.378906 2.257812 -7.925781 2.1875 -8.46875 C 2.164062 -8.96875 2.15625 -9.46875 2.15625 -9.96875 C 2.15625 -10.476562 2.144531 -10.984375 2.125 -11.484375 C 2.125 -12.273438 2.148438 -13.0625 2.203125 -13.84375 C 2.265625 -14.632812 2.257812 -15.421875 2.1875 -16.203125 C 2.144531 -16.648438 2.113281 -17.101562 2.09375 -17.5625 C 2.082031 -18.019531 2.066406 -18.460938 2.046875 -18.890625 C 2.046875 -19.171875 2.070312 -19.441406 2.125 -19.703125 C 2.1875 -19.960938 2.207031 -20.21875 2.1875 -20.46875 C 2.1875 -20.757812 2.164062 -21.144531 2.125 -21.625 C 2.09375 -22.101562 2.078125 -22.546875 2.078125 -22.953125 C 2.078125 -23.367188 2.125 -23.613281 2.21875 -23.6875 C 2.40625 -23.75 2.59375 -23.773438 2.78125 -23.765625 C 2.976562 -23.753906 3.164062 -23.75 3.34375 -23.75 C 3.84375 -23.707031 4.332031 -23.703125 4.8125 -23.734375 C 5.289062 -23.765625 5.769531 -23.769531 6.25 -23.75 C 6.78125 -23.75 7.3125 -23.765625 7.84375 -23.796875 C 8.375 -23.835938 8.890625 -23.878906 9.390625 -23.921875 C 9.640625 -23.960938 9.894531 -23.960938 10.15625 -23.921875 C 10.425781 -23.878906 10.695312 -23.878906 10.96875 -23.921875 Z M 10.96875 -23.921875 "/>
            </g>
        </g>
    </g>
    <g fill="#001f54" fill-opacity="1">
        <g transform="translate(278.364025, 215.80404)">
            <g>
                <path d="M 21.96875 -23.921875 C 22.71875 -23.984375 23.0625 -23.6875 23 -23.03125 C 22.945312 -22.707031 22.929688 -22.390625 22.953125 -22.078125 C 22.984375 -21.773438 23.007812 -21.46875 23.03125 -21.15625 C 23.050781 -21.0625 23.050781 -20.972656 23.03125 -20.890625 C 23.007812 -20.816406 22.988281 -20.734375 22.96875 -20.640625 C 21.03125 -20.617188 19.09375 -20.628906 17.15625 -20.671875 C 15.21875 -20.722656 13.28125 -20.65625 11.34375 -20.46875 C 11.382812 -19.445312 11.378906 -18.390625 11.328125 -17.296875 C 11.273438 -16.203125 11.300781 -15.128906 11.40625 -14.078125 C 11.800781 -14.117188 12.191406 -14.109375 12.578125 -14.046875 C 12.960938 -13.992188 13.347656 -13.992188 13.734375 -14.046875 C 14.003906 -14.085938 14.273438 -14.109375 14.546875 -14.109375 C 14.828125 -14.109375 15.101562 -14.097656 15.375 -14.078125 C 15.96875 -14.078125 16.566406 -14.09375 17.171875 -14.125 C 17.773438 -14.164062 18.375 -14.195312 18.96875 -14.21875 C 19.257812 -14.238281 19.546875 -14.253906 19.828125 -14.265625 C 20.117188 -14.273438 20.410156 -14.269531 20.703125 -14.25 C 21.234375 -14.207031 21.472656 -13.945312 21.421875 -13.46875 C 21.398438 -13.070312 21.394531 -12.6875 21.40625 -12.3125 C 21.414062 -11.9375 21.429688 -11.554688 21.453125 -11.171875 C 21.453125 -10.765625 21.269531 -10.5625 20.90625 -10.5625 C 20.59375 -10.5625 20.269531 -10.554688 19.9375 -10.546875 C 19.601562 -10.535156 19.28125 -10.53125 18.96875 -10.53125 C 18.351562 -10.53125 17.742188 -10.515625 17.140625 -10.484375 C 16.535156 -10.460938 15.925781 -10.441406 15.3125 -10.421875 C 15.082031 -10.398438 14.847656 -10.390625 14.609375 -10.390625 C 14.367188 -10.390625 14.125 -10.390625 13.875 -10.390625 L 11.34375 -10.390625 C 11.25 -9.203125 11.234375 -8.015625 11.296875 -6.828125 C 11.367188 -5.648438 11.429688 -4.46875 11.484375 -3.28125 C 11.617188 -3.1875 11.765625 -3.148438 11.921875 -3.171875 C 12.085938 -3.203125 12.25 -3.203125 12.40625 -3.171875 C 12.769531 -3.148438 13.132812 -3.132812 13.5 -3.125 C 13.863281 -3.113281 14.21875 -3.117188 14.5625 -3.140625 C 15.007812 -3.191406 15.453125 -3.21875 15.890625 -3.21875 C 16.328125 -3.21875 16.757812 -3.25 17.1875 -3.3125 C 17.4375 -3.363281 17.703125 -3.375 17.984375 -3.34375 C 18.273438 -3.320312 18.554688 -3.320312 18.828125 -3.34375 C 19.398438 -3.414062 19.96875 -3.453125 20.53125 -3.453125 C 21.101562 -3.453125 21.675781 -3.453125 22.25 -3.453125 C 22.59375 -3.453125 22.929688 -3.488281 23.265625 -3.5625 C 23.609375 -3.644531 23.960938 -3.597656 24.328125 -3.421875 L 24.328125 -0.859375 C 24.378906 -0.328125 24.148438 -0.0859375 23.640625 -0.140625 C 23.078125 -0.160156 22.507812 -0.140625 21.9375 -0.078125 C 21.363281 -0.0234375 20.785156 -0.0078125 20.203125 -0.03125 C 19.472656 -0.0820312 18.734375 -0.09375 17.984375 -0.0625 C 17.242188 -0.0390625 16.507812 -0.0195312 15.78125 0 C 14.851562 0.0195312 13.910156 0.03125 12.953125 0.03125 C 11.992188 0.03125 11.035156 0.03125 10.078125 0.03125 C 9.984375 0.03125 9.757812 0.0351562 9.40625 0.046875 C 9.0625 0.0546875 8.664062 0.0703125 8.21875 0.09375 C 7.769531 0.125 7.347656 0.144531 6.953125 0.15625 C 6.554688 0.164062 6.265625 0.171875 6.078125 0.171875 C 5.648438 0.128906 5.222656 0.09375 4.796875 0.0625 C 4.378906 0.0390625 3.941406 0.03125 3.484375 0.03125 C 3.328125 0.03125 3.082031 0.046875 2.75 0.078125 C 2.414062 0.117188 2.25 0.101562 2.25 0.03125 C 2.300781 -0.445312 2.320312 -0.929688 2.3125 -1.421875 C 2.300781 -1.910156 2.269531 -2.394531 2.21875 -2.875 C 2.15625 -3.53125 2.15625 -4.210938 2.21875 -4.921875 C 2.269531 -5.265625 2.285156 -5.617188 2.265625 -5.984375 C 2.253906 -6.347656 2.25 -6.710938 2.25 -7.078125 C 2.25 -7.367188 2.253906 -7.65625 2.265625 -7.9375 C 2.285156 -8.226562 2.269531 -8.519531 2.21875 -8.8125 C 2.195312 -9.269531 2.164062 -9.722656 2.125 -10.171875 C 2.09375 -10.628906 2.078125 -11.085938 2.078125 -11.546875 C 2.078125 -12.023438 2.070312 -12.507812 2.0625 -13 C 2.050781 -13.488281 2.046875 -13.972656 2.046875 -14.453125 C 2.066406 -14.929688 2.082031 -15.410156 2.09375 -15.890625 C 2.113281 -16.367188 2.132812 -16.847656 2.15625 -17.328125 C 2.195312 -18.941406 2.191406 -20.316406 2.140625 -21.453125 C 2.097656 -22.597656 2.066406 -23.285156 2.046875 -23.515625 C 2.097656 -23.554688 2.15625 -23.585938 2.21875 -23.609375 C 2.289062 -23.628906 2.335938 -23.664062 2.359375 -23.71875 C 2.515625 -23.757812 2.644531 -23.773438 2.75 -23.765625 C 2.851562 -23.753906 2.984375 -23.75 3.140625 -23.75 C 4.210938 -23.789062 5.289062 -23.796875 6.375 -23.765625 C 7.457031 -23.734375 8.535156 -23.738281 9.609375 -23.78125 C 9.992188 -23.800781 10.378906 -23.804688 10.765625 -23.796875 C 11.148438 -23.785156 11.523438 -23.789062 11.890625 -23.8125 C 12.441406 -23.863281 12.992188 -23.867188 13.546875 -23.828125 C 14.109375 -23.796875 14.660156 -23.804688 15.203125 -23.859375 C 15.734375 -23.898438 16.269531 -23.898438 16.8125 -23.859375 C 17.351562 -23.828125 17.898438 -23.835938 18.453125 -23.890625 C 18.972656 -23.929688 19.503906 -23.945312 20.046875 -23.9375 C 20.597656 -23.925781 21.148438 -23.921875 21.703125 -23.921875 Z M 21.96875 -23.921875 "/>
            </g>
        </g>
    </g>
    <g fill="#001f54" fill-opacity="1">
        <g transform="translate(308.567092, 215.80404)">
            <g>
                <path d="M 16.5 -24.328125 L 18.34375 -24.234375 C 18.738281 -24.203125 19.109375 -24.125 19.453125 -24 C 19.804688 -23.875 20.164062 -23.789062 20.53125 -23.75 C 20.988281 -23.707031 21.40625 -23.582031 21.78125 -23.375 C 22.15625 -23.164062 22.550781 -22.992188 22.96875 -22.859375 C 23.125 -22.816406 23.273438 -22.722656 23.421875 -22.578125 C 23.566406 -22.441406 23.722656 -22.320312 23.890625 -22.21875 C 24.335938 -21.914062 24.785156 -21.585938 25.234375 -21.234375 C 25.679688 -20.878906 26.085938 -20.5 26.453125 -20.09375 C 26.929688 -19.59375 27.351562 -19.046875 27.71875 -18.453125 C 28.082031 -17.859375 28.351562 -17.222656 28.53125 -16.546875 C 28.664062 -16.066406 28.800781 -15.585938 28.9375 -15.109375 C 29.082031 -14.628906 29.15625 -14.101562 29.15625 -13.53125 C 29.257812 -12.757812 29.265625 -11.96875 29.171875 -11.15625 C 29.085938 -10.34375 28.929688 -9.539062 28.703125 -8.75 C 28.585938 -8.3125 28.457031 -7.867188 28.3125 -7.421875 C 28.164062 -6.984375 28 -6.5625 27.8125 -6.15625 C 27.332031 -5.175781 26.753906 -4.253906 26.078125 -3.390625 C 25.679688 -2.878906 25.226562 -2.441406 24.71875 -2.078125 C 24.207031 -1.710938 23.679688 -1.375 23.140625 -1.0625 C 22.835938 -0.875 22.515625 -0.710938 22.171875 -0.578125 C 21.835938 -0.441406 21.5 -0.304688 21.15625 -0.171875 C 20.71875 -0.015625 20.28125 0.078125 19.84375 0.109375 C 19.414062 0.148438 18.988281 0.203125 18.5625 0.265625 C 18.082031 0.359375 17.707031 0.414062 17.4375 0.4375 C 17.175781 0.46875 16.820312 0.484375 16.375 0.484375 C 16.09375 0.484375 15.816406 0.484375 15.546875 0.484375 C 15.273438 0.484375 15.003906 0.46875 14.734375 0.4375 C 14.273438 0.375 13.804688 0.320312 13.328125 0.28125 C 12.847656 0.25 12.378906 0.191406 11.921875 0.109375 C 11.492188 -0.00390625 11.046875 -0.09375 10.578125 -0.15625 C 10.109375 -0.226562 9.671875 -0.378906 9.265625 -0.609375 C 8.898438 -0.796875 8.535156 -0.945312 8.171875 -1.0625 C 7.804688 -1.175781 7.460938 -1.347656 7.140625 -1.578125 C 6.796875 -1.847656 6.398438 -2.117188 5.953125 -2.390625 C 5.535156 -2.640625 5.203125 -2.945312 4.953125 -3.3125 C 4.703125 -3.675781 4.414062 -4.019531 4.09375 -4.34375 C 3.894531 -4.519531 3.710938 -4.734375 3.546875 -4.984375 C 3.390625 -5.234375 3.234375 -5.472656 3.078125 -5.703125 C 2.921875 -5.972656 2.742188 -6.351562 2.546875 -6.84375 C 2.347656 -7.34375 2.171875 -7.847656 2.015625 -8.359375 C 1.859375 -8.867188 1.734375 -9.269531 1.640625 -9.5625 C 1.597656 -9.75 1.5625 -10.050781 1.53125 -10.46875 C 1.507812 -10.894531 1.507812 -11.363281 1.53125 -11.875 C 1.5625 -12.382812 1.59375 -12.851562 1.625 -13.28125 C 1.65625 -13.71875 1.695312 -14.039062 1.75 -14.25 C 1.925781 -14.863281 2.125 -15.460938 2.34375 -16.046875 C 2.5625 -16.628906 2.828125 -17.203125 3.140625 -17.765625 C 3.390625 -18.148438 3.640625 -18.535156 3.890625 -18.921875 C 4.140625 -19.316406 4.414062 -19.6875 4.71875 -20.03125 C 5.125 -20.550781 5.578125 -21.023438 6.078125 -21.453125 C 6.578125 -21.890625 7.148438 -22.234375 7.796875 -22.484375 C 8.316406 -22.671875 8.738281 -22.84375 9.0625 -23 C 9.394531 -23.15625 9.828125 -23.3125 10.359375 -23.46875 C 10.554688 -23.539062 10.832031 -23.628906 11.1875 -23.734375 C 11.539062 -23.835938 11.867188 -23.921875 12.171875 -23.984375 C 12.484375 -24.078125 12.8125 -24.144531 13.15625 -24.1875 C 13.5 -24.238281 13.828125 -24.273438 14.140625 -24.296875 C 14.535156 -24.335938 14.929688 -24.363281 15.328125 -24.375 C 15.722656 -24.394531 16.113281 -24.378906 16.5 -24.328125 Z M 15.171875 -20.8125 C 14.828125 -20.71875 14.488281 -20.546875 14.15625 -20.296875 C 13.832031 -20.046875 13.578125 -19.773438 13.390625 -19.484375 C 13.160156 -19.140625 12.984375 -18.769531 12.859375 -18.375 C 12.734375 -17.988281 12.601562 -17.601562 12.46875 -17.21875 C 12.238281 -16.46875 12.078125 -15.734375 11.984375 -15.015625 C 11.898438 -14.296875 11.8125 -13.539062 11.71875 -12.75 C 11.675781 -12.382812 11.675781 -11.988281 11.71875 -11.5625 C 11.769531 -11.144531 11.804688 -10.742188 11.828125 -10.359375 C 11.847656 -10.128906 11.863281 -9.890625 11.875 -9.640625 C 11.882812 -9.390625 11.910156 -9.148438 11.953125 -8.921875 C 12.097656 -8.234375 12.25 -7.550781 12.40625 -6.875 C 12.5625 -6.207031 12.820312 -5.566406 13.1875 -4.953125 C 13.4375 -4.546875 13.707031 -4.175781 14 -3.84375 C 14.300781 -3.507812 14.691406 -3.265625 15.171875 -3.109375 C 15.441406 -3.015625 15.707031 -2.960938 15.96875 -2.953125 C 16.238281 -2.941406 16.484375 -3.015625 16.703125 -3.171875 C 17.390625 -3.609375 17.847656 -4.191406 18.078125 -4.921875 C 18.253906 -5.578125 18.410156 -6.234375 18.546875 -6.890625 C 18.691406 -7.554688 18.796875 -8.234375 18.859375 -8.921875 C 18.929688 -9.597656 18.96875 -10.269531 18.96875 -10.9375 C 18.96875 -11.613281 18.96875 -12.296875 18.96875 -12.984375 C 18.96875 -13.234375 18.96875 -13.484375 18.96875 -13.734375 C 18.96875 -13.984375 18.941406 -14.222656 18.890625 -14.453125 C 18.773438 -15.117188 18.722656 -15.738281 18.734375 -16.3125 C 18.753906 -16.894531 18.625 -17.484375 18.34375 -18.078125 C 18.207031 -18.535156 18.0625 -18.945312 17.90625 -19.3125 C 17.75 -19.675781 17.546875 -20.023438 17.296875 -20.359375 C 17.128906 -20.566406 16.796875 -20.71875 16.296875 -20.8125 C 15.796875 -20.90625 15.421875 -20.90625 15.171875 -20.8125 Z M 15.171875 -20.8125 "/>
            </g>
        </g>
    </g>
    <g fill="#001f54" fill-opacity="1">
        <g transform="translate(344.168279, 215.80404)">
            <g>
                <path d="M 25.703125 -23.984375 C 25.878906 -24.003906 26.035156 -23.9375 26.171875 -23.78125 C 26.171875 -22.800781 26.140625 -21.8125 26.078125 -20.8125 C 26.046875 -20.5625 26.035156 -20.296875 26.046875 -20.015625 C 26.066406 -19.742188 26.085938 -19.484375 26.109375 -19.234375 C 26.128906 -18.734375 26.144531 -18.234375 26.15625 -17.734375 C 26.164062 -17.234375 26.160156 -16.734375 26.140625 -16.234375 C 26.117188 -15.523438 26.117188 -14.820312 26.140625 -14.125 C 26.160156 -13.4375 26.148438 -12.738281 26.109375 -12.03125 C 26.085938 -11.394531 26.085938 -10.753906 26.109375 -10.109375 C 26.128906 -9.472656 26.148438 -8.828125 26.171875 -8.171875 C 26.191406 -7.734375 26.195312 -7.296875 26.1875 -6.859375 C 26.175781 -6.429688 26.179688 -6 26.203125 -5.5625 C 26.253906 -4.863281 26.253906 -4.160156 26.203125 -3.453125 C 26.160156 -2.742188 26.175781 -2.023438 26.25 -1.296875 C 26.269531 -1.160156 26.28125 -1.023438 26.28125 -0.890625 C 26.28125 -0.753906 26.28125 -0.617188 26.28125 -0.484375 C 26.28125 -0.203125 26.15625 -0.0507812 25.90625 -0.03125 C 25.832031 -0.0078125 25.707031 -0.0078125 25.53125 -0.03125 C 25.363281 -0.0507812 25.238281 -0.0625 25.15625 -0.0625 C 24.539062 -0.0625 23.988281 -0.046875 23.5 -0.015625 C 23.007812 0.015625 22.453125 0.0195312 21.828125 0 C 21.648438 0 21.289062 0 20.75 0 C 20.21875 0 19.648438 0.00390625 19.046875 0.015625 C 18.441406 0.0234375 17.914062 0.03125 17.46875 0.03125 C 17.03125 0.03125 16.800781 0.0195312 16.78125 0 C 15.019531 -2.53125 13.210938 -5.023438 11.359375 -7.484375 C 9.503906 -9.941406 7.597656 -12.378906 5.640625 -14.796875 C 5.703125 -13.972656 5.726562 -13.15625 5.71875 -12.34375 C 5.707031 -11.539062 5.710938 -10.726562 5.734375 -9.90625 C 5.785156 -9.113281 5.820312 -8.304688 5.84375 -7.484375 C 5.863281 -6.660156 5.898438 -5.851562 5.953125 -5.0625 C 6.015625 -4.257812 6.03125 -3.453125 6 -2.640625 C 5.96875 -1.835938 5.984375 -1.023438 6.046875 -0.203125 C 5.472656 -0.0234375 4.878906 0.0195312 4.265625 -0.0625 C 3.648438 -0.15625 3.046875 -0.113281 2.453125 0.0625 C 2.367188 0 2.3125 -0.078125 2.28125 -0.171875 C 2.257812 -0.265625 2.25 -0.351562 2.25 -0.4375 C 2.25 -0.96875 2.25 -1.484375 2.25 -1.984375 C 2.25 -2.484375 2.265625 -2.992188 2.296875 -3.515625 C 2.335938 -4.066406 2.359375 -4.609375 2.359375 -5.140625 C 2.359375 -5.679688 2.367188 -6.222656 2.390625 -6.765625 C 2.390625 -7.566406 2.375 -8.363281 2.34375 -9.15625 C 2.3125 -9.957031 2.269531 -10.753906 2.21875 -11.546875 C 2.195312 -12.078125 2.1875 -12.601562 2.1875 -13.125 C 2.1875 -13.644531 2.207031 -14.164062 2.25 -14.6875 C 2.28125 -14.988281 2.285156 -15.28125 2.265625 -15.5625 C 2.253906 -15.851562 2.226562 -16.144531 2.1875 -16.4375 C 2.164062 -16.957031 2.160156 -17.472656 2.171875 -17.984375 C 2.179688 -18.503906 2.1875 -19.015625 2.1875 -19.515625 C 2.1875 -20.109375 2.179688 -20.695312 2.171875 -21.28125 C 2.160156 -21.875 2.117188 -22.46875 2.046875 -23.0625 C 2.046875 -23.175781 2.046875 -23.28125 2.046875 -23.375 C 2.046875 -23.46875 2.070312 -23.59375 2.125 -23.75 C 3.664062 -23.675781 5.171875 -23.6875 6.640625 -23.78125 C 8.109375 -23.875 9.628906 -23.898438 11.203125 -23.859375 C 11.296875 -23.765625 11.378906 -23.679688 11.453125 -23.609375 C 11.535156 -23.546875 11.59375 -23.457031 11.625 -23.34375 C 13.445312 -20.945312 15.28125 -18.539062 17.125 -16.125 C 18.96875 -13.707031 20.859375 -11.316406 22.796875 -8.953125 C 22.742188 -11.429688 22.738281 -13.894531 22.78125 -16.34375 C 22.832031 -18.800781 22.800781 -21.257812 22.6875 -23.71875 C 22.894531 -23.757812 23.09375 -23.800781 23.28125 -23.84375 C 23.476562 -23.894531 23.671875 -23.921875 23.859375 -23.921875 C 24.171875 -23.941406 24.476562 -23.953125 24.78125 -23.953125 C 25.09375 -23.953125 25.398438 -23.960938 25.703125 -23.984375 Z M 25.703125 -23.984375 "/>
            </g>
        </g>
    </g>
    <g clip-path="url(#288c65d9a3)">
        <g clip-path="url(#879c519c26)">
            <path fill="#ffffff"
                  d="M 0 146.84375 L 106.636719 146.84375 L 106.636719 230.582031 L 0 230.582031 Z M 0 146.84375 "
                  fill-opacity="1" fill-rule="nonzero"/>
        </g>
    </g>
    <g clip-path="url(#3749331501)">
        <g clip-path="url(#a9f48326c0)">
            <path fill="#a2063f"
                  d="M 9.101562 135.832031 L 115.738281 135.832031 L 115.738281 219.570312 L 9.101562 219.570312 Z M 9.101562 135.832031 "
                  fill-opacity="1" fill-rule="nonzero"/>
        </g>
    </g>
    <g fill="#fff" fill-opacity="1">
        <g transform="translate(10.586596, 218.797749)">
            <g>
                <path d="M 95.734375 -58.765625 C 96.515625 -58.984375 97.320312 -59.050781 98.15625 -58.96875 C 98.988281 -58.882812 99.820312 -58.785156 100.65625 -58.671875 C 100.9375 -58.171875 101.085938 -57.671875 101.109375 -57.171875 C 101.140625 -56.671875 101.128906 -56.144531 101.078125 -55.59375 L 101.078125 -52.078125 C 101.078125 -51.691406 101.035156 -51.359375 100.953125 -51.078125 C 100.867188 -50.804688 100.828125 -50.53125 100.828125 -50.25 C 100.109375 -50.363281 99.359375 -50.335938 98.578125 -50.171875 C 97.796875 -50.003906 97.128906 -49.582031 96.578125 -48.90625 C 96.296875 -48.570312 96.054688 -48.210938 95.859375 -47.828125 C 95.671875 -47.441406 95.519531 -47.023438 95.40625 -46.578125 C 94.570312 -43.628906 93.804688 -40.632812 93.109375 -37.59375 C 92.410156 -34.5625 91.726562 -31.519531 91.0625 -28.46875 C 90.613281 -26.40625 90.207031 -24.34375 89.84375 -22.28125 C 89.488281 -20.226562 89.003906 -18.171875 88.390625 -16.109375 C 87.722656 -13.941406 87.109375 -11.742188 86.546875 -9.515625 C 85.992188 -7.285156 85.46875 -5.0625 84.96875 -2.84375 C 84.914062 -2.445312 84.816406 -2.050781 84.671875 -1.65625 C 84.535156 -1.269531 84.328125 -0.882812 84.046875 -0.5 C 80.429688 0.0507812 76.757812 0.21875 73.03125 0 C 69.300781 -0.21875 65.519531 -0.300781 61.6875 -0.25 C 61.457031 -0.363281 61.257812 -0.671875 61.09375 -1.171875 C 60.707031 -3.335938 60.191406 -5.476562 59.546875 -7.59375 C 58.910156 -9.707031 58.234375 -11.796875 57.515625 -13.859375 C 56.617188 -16.753906 55.863281 -19.726562 55.25 -22.78125 C 54.75 -25.0625 54.164062 -27.316406 53.5 -29.546875 C 52.832031 -31.773438 52.191406 -34 51.578125 -36.21875 C 51.578125 -36.445312 51.359375 -36.644531 50.921875 -36.8125 C 50.523438 -35.144531 50.101562 -33.515625 49.65625 -31.921875 C 49.21875 -30.335938 48.75 -28.738281 48.25 -27.125 L 45.234375 -17.4375 C 44.796875 -15.9375 44.394531 -14.421875 44.03125 -12.890625 C 43.664062 -11.359375 43.289062 -9.816406 42.90625 -8.265625 C 42.675781 -7.097656 42.367188 -5.925781 41.984375 -4.75 C 41.597656 -3.582031 41.320312 -2.390625 41.15625 -1.171875 C 40.988281 -0.171875 40.347656 0.328125 39.234375 0.328125 C 37.785156 0.328125 36.304688 0.328125 34.796875 0.328125 C 33.296875 0.328125 31.820312 0.273438 30.375 0.171875 C 28.988281 0.0546875 27.582031 0.0078125 26.15625 0.03125 C 24.738281 0.0625 23.3125 0.0507812 21.875 0 C 21.476562 0 21.039062 0 20.5625 0 C 20.09375 0 19.640625 -0.0234375 19.203125 -0.078125 C 18.585938 -0.691406 18.140625 -1.5 17.859375 -2.5 L 14.1875 -15.1875 C 13.632812 -16.96875 13.078125 -18.757812 12.515625 -20.5625 C 11.960938 -22.375 11.40625 -24.171875 10.84375 -25.953125 C 9.957031 -28.734375 9.125 -31.53125 8.34375 -34.34375 C 7.5625 -37.15625 6.867188 -40.007812 6.265625 -42.90625 C 6.097656 -43.570312 5.898438 -44.25 5.671875 -44.9375 C 5.453125 -45.632812 5.203125 -46.320312 4.921875 -47 C 4.367188 -48.4375 3.925781 -49.878906 3.59375 -51.328125 C 3.257812 -52.773438 2.867188 -54.222656 2.421875 -55.671875 C 2.304688 -55.953125 2.222656 -56.285156 2.171875 -56.671875 C 2.117188 -57.066406 2.09375 -57.429688 2.09375 -57.765625 C 2.363281 -58.035156 2.691406 -58.15625 3.078125 -58.125 C 3.472656 -58.101562 3.835938 -58.09375 4.171875 -58.09375 C 5.617188 -58.09375 7.035156 -58.078125 8.421875 -58.046875 C 9.816406 -58.023438 11.210938 -58.039062 12.609375 -58.09375 C 13.890625 -58.09375 15.15625 -58.101562 16.40625 -58.125 C 17.65625 -58.15625 18.890625 -58.203125 20.109375 -58.265625 C 21.003906 -58.316406 21.910156 -58.3125 22.828125 -58.25 C 23.742188 -58.195312 24.648438 -58.203125 25.546875 -58.265625 C 26.765625 -58.316406 27.457031 -57.757812 27.625 -56.59375 C 28.1875 -53.695312 28.867188 -50.816406 29.671875 -47.953125 C 30.484375 -45.085938 31.164062 -42.179688 31.71875 -39.234375 C 32.332031 -36.117188 33.082031 -33.03125 33.96875 -29.96875 C 34.863281 -26.90625 35.695312 -23.84375 36.46875 -20.78125 C 36.53125 -20.5625 36.601562 -20.378906 36.6875 -20.234375 C 36.769531 -20.097656 36.867188 -19.890625 36.984375 -19.609375 C 37.421875 -20.054688 37.695312 -20.546875 37.8125 -21.078125 C 37.925781 -21.609375 38.035156 -22.125 38.140625 -22.625 C 38.921875 -25.789062 39.6875 -28.988281 40.4375 -32.21875 C 41.1875 -35.445312 41.976562 -38.644531 42.8125 -41.8125 C 43.425781 -44.257812 43.957031 -46.722656 44.40625 -49.203125 C 44.851562 -51.679688 45.4375 -54.117188 46.15625 -56.515625 C 46.269531 -56.734375 46.351562 -56.953125 46.40625 -57.171875 C 46.457031 -57.398438 46.515625 -57.648438 46.578125 -57.921875 C 50.023438 -58.367188 53.5 -58.535156 57 -58.421875 C 60.507812 -58.316406 63.960938 -58.316406 67.359375 -58.421875 C 68.242188 -57.867188 68.769531 -57.148438 68.9375 -56.265625 C 69.382812 -54.484375 69.84375 -52.6875 70.3125 -50.875 C 70.789062 -49.0625 71.253906 -47.265625 71.703125 -45.484375 C 71.753906 -45.210938 71.820312 -44.9375 71.90625 -44.65625 C 71.988281 -44.375 72.054688 -44.097656 72.109375 -43.828125 C 72.617188 -42.046875 73.109375 -40.234375 73.578125 -38.390625 C 74.046875 -36.554688 74.53125 -34.75 75.03125 -32.96875 C 75.644531 -30.738281 76.3125 -28.507812 77.03125 -26.28125 C 77.757812 -24.0625 78.488281 -21.835938 79.21875 -19.609375 C 79.21875 -19.609375 79.328125 -19.5 79.546875 -19.28125 C 79.878906 -19.78125 80.097656 -20.304688 80.203125 -20.859375 C 80.316406 -21.421875 80.40625 -21.953125 80.46875 -22.453125 C 80.738281 -24.015625 81.082031 -25.53125 81.5 -27 C 81.925781 -28.476562 82.25 -29.992188 82.46875 -31.546875 C 82.75 -33.273438 83.066406 -35 83.421875 -36.71875 C 83.785156 -38.445312 84.132812 -40.175781 84.46875 -41.90625 C 84.914062 -44.1875 85.484375 -46.425781 86.171875 -48.625 C 86.867188 -50.820312 87.914062 -52.894531 89.3125 -54.84375 C 90.144531 -56.007812 91.101562 -56.882812 92.1875 -57.46875 C 93.269531 -58.050781 94.453125 -58.484375 95.734375 -58.765625 Z M 95.734375 -58.765625 "/>
            </g>
        </g>
    </g>
</svg>