<svg width="82" height="75" viewBox="0 0 82 75" fill="none" xmlns="http://www.w3.org/2000/svg">
<path d="M40.7813 25.7344C34.0361 25.7344 28.547 31.2236 28.547 37.9688C28.547 44.714 34.0361 50.2031 40.7813 50.2031C47.5266 50.2031 53.0157 44.714 53.0157 37.9688C53.0157 31.2236 47.5266 25.7344 40.7813 25.7344ZM40.7813 48.5719C34.9333 48.5719 30.1782 43.8168 30.1782 37.9688C30.1782 32.1207 34.9333 27.3657 40.7813 27.3657C46.6294 27.3657 51.3845 32.1207 51.3845 37.9688C51.3845 43.8168 46.6294 48.5719 40.7813 48.5719Z" fill="#3147FF"/>
<path d="M67.6561 62.9514C73.9935 56.1409 77.4844 47.2995 77.4844 37.9688C77.4844 29.9512 74.9478 22.3332 70.1438 15.9469V9.25875C70.1438 8.94882 69.9643 8.66335 69.687 8.52469C69.4097 8.38603 69.0753 8.41866 68.8306 8.60625L65.6741 11.0123C58.8718 4.72388 50.0712 1.26562 40.7813 1.26562C32.7637 1.26562 25.1457 3.80222 18.7594 8.60625H12.2344C11.9244 8.60625 11.639 8.77753 11.5003 9.05485C11.3617 9.33216 11.3943 9.66657 11.5819 9.91125L13.9064 12.978C7.569 19.7885 4.07812 28.6299 4.07812 37.9606C4.07812 45.9782 6.61472 53.5961 11.4188 59.9825V66.5075C11.4188 66.8174 11.59 67.1029 11.8673 67.2416C11.9815 67.2987 12.1039 67.3231 12.2344 67.3231C12.4057 67.3231 12.5851 67.266 12.7238 67.16L15.7905 64.8355C22.601 71.1729 31.4424 74.6637 40.7731 74.6637C48.7907 74.6637 56.4086 72.1272 62.795 67.3231H69.32C69.6299 67.3231 69.9154 67.1518 70.054 66.8745C70.1927 66.5972 70.1601 66.2628 69.9725 66.0181L67.648 62.9514H67.6561ZM40.7813 2.89688C49.7531 2.89688 58.2601 6.27356 64.7851 12.4071C64.9809 13.084 66.082 13.1411 66.3756 12.5294L68.5125 10.9063V25.7344H53.6681L55.6746 22.5127C55.6746 22.5127 55.7235 22.4882 55.7398 22.4637C56.0416 22.1293 56.009 21.6155 55.6746 21.3137C51.572 17.6434 46.2786 15.6206 40.7731 15.6206C37.0539 15.6206 33.4162 16.5423 30.17 18.2959V9.42188C30.17 8.97328 29.8029 8.60625 29.3544 8.60625H21.5978C27.299 4.87069 33.8811 2.89688 40.7731 2.89688H40.7813ZM56.637 51.2716L52.6323 48.7595C52.3794 48.6045 52.0614 48.5964 51.8004 48.735C51.5394 48.8818 51.3762 49.151 51.3762 49.4528V55.7576C48.179 57.6661 44.525 58.6856 40.7731 58.6856C35.8875 58.6856 31.1977 56.9565 27.4703 53.8245L29.9824 49.8198C30.1373 49.567 30.1455 49.2489 30.0068 48.9879C29.86 48.7269 29.5909 48.5637 29.2973 48.5637H22.9925C21.0839 45.3665 20.0644 41.7125 20.0644 37.9606C20.0644 33.075 21.7935 28.3852 24.9255 24.6578L28.9302 27.1699C29.0607 27.2514 29.2157 27.2922 29.3625 27.2922C29.5012 27.2922 29.6317 27.2596 29.754 27.1944C30.015 27.0475 30.1781 26.7784 30.1781 26.4766V20.1718C33.3754 18.2633 37.0294 17.2437 40.7813 17.2437C45.6424 17.2437 50.3159 18.9565 54.0352 22.0641L51.5149 26.1096C51.3599 26.3624 51.3518 26.6805 51.4904 26.9334C51.6372 27.1944 51.9064 27.3493 52.2 27.3493H58.57C60.4786 30.5466 61.4981 34.2006 61.4981 37.9525C61.4981 42.838 59.769 47.5279 56.637 51.2553V51.2716ZM5.70938 37.9688C5.70938 29.005 9.07791 20.5144 15.2033 13.9894C15.3338 13.9731 15.4643 13.9323 15.5866 13.8426C15.9455 13.5734 16.0189 13.0596 15.7416 12.7007L13.8738 10.2375H28.5469V25.0085L25.2599 22.9449C24.8929 22.7574 24.428 22.7247 24.1262 23.0673C20.4559 27.1699 18.4331 32.4551 18.4331 37.9688C18.4331 41.688 19.3548 45.3257 21.1084 48.5719H12.2344C11.7858 48.5719 11.4188 48.9389 11.4188 49.3875V57.1441C7.68319 51.4429 5.70938 44.8608 5.70938 37.9688ZM40.7813 73.0407C31.8175 73.0407 23.3269 69.6721 16.8019 63.5468C16.7856 63.4163 16.7448 63.2858 16.6551 63.1634C16.3859 62.8046 15.8721 62.7312 15.5132 63.0085L13.05 64.8762V50.2031C13.05 50.2031 22.4623 50.2684 22.5683 50.2684C22.6744 50.2684 27.8291 50.2031 27.8291 50.2031L25.7656 53.4901C25.578 53.8571 25.5454 54.3221 25.8879 54.6238C29.9905 58.2941 35.2758 60.3169 40.7894 60.3169C44.5087 60.3169 48.1464 59.3952 51.3925 57.6417V66.5157C51.3925 66.9642 51.7596 67.3313 52.2082 67.3313H59.9648C54.2635 71.0668 47.6814 73.0407 40.7894 73.0407H40.7813ZM53.0156 65.7V50.9291L56.3026 52.9926C56.6696 53.1802 57.1345 53.221 57.4363 52.8702C61.1066 48.7676 63.1294 43.4824 63.1294 37.9688C63.1294 34.2495 62.2077 30.6118 60.4541 27.3656H69.3281C69.7767 27.3656 70.1438 26.9986 70.1438 26.55V18.7934C73.8793 24.4946 75.8531 31.0767 75.8531 37.9688C75.8531 46.9325 72.4846 55.4232 66.3593 61.9482C66.2288 61.9645 66.0901 62.0052 65.9759 62.095C65.617 62.3641 65.5436 62.878 65.8209 63.2368L67.6887 65.7H53.0156Z" fill="#3147FF"/>
<path d="M40.5608 37.4223C38.7257 37.4223 38.3342 36.5659 38.3342 35.84C38.3342 35.7584 38.3587 33.8009 40.5608 33.8009C42.5918 33.8009 42.8609 35.1548 42.8935 35.4322C42.9425 35.8726 43.3421 36.1988 43.7826 36.1581C44.2312 36.1173 44.5574 35.7176 44.5166 35.269C44.4269 34.3392 43.6928 32.6917 41.5967 32.2675V31.4438C41.5967 30.9952 41.2297 30.6281 40.7811 30.6281C40.3325 30.6281 39.9654 30.9952 39.9654 31.4438V32.2023C37.5838 32.4878 36.7029 34.4697 36.7029 35.8318C36.7029 37.3815 37.7143 39.0454 40.5608 39.0454C41.3602 39.0454 43.2279 39.1759 43.2279 40.4238C43.2279 41.1415 42.3797 42.1284 40.7811 42.1284C39.5984 42.1284 38.3342 41.7859 38.3342 40.8316C38.3342 40.383 37.9672 40.016 37.5186 40.016C37.07 40.016 36.7029 40.383 36.7029 40.8316C36.7029 42.0469 37.5838 43.4416 39.9654 43.7026V44.4774C39.9654 44.926 40.3325 45.2931 40.7811 45.2931C41.2297 45.2931 41.5967 44.926 41.5967 44.4774V43.6863C43.6276 43.36 44.8592 41.843 44.8592 40.4156C44.8592 39.706 44.5493 37.406 40.5608 37.406V37.4223Z" fill="#3147FF"/>
</svg>
