<svg width="78" height="79" viewBox="0 0 78 79" fill="none" xmlns="http://www.w3.org/2000/svg">
<g clip-path="url(#clip0_4043_402)">
<path d="M39 23.3982C35.8154 23.3984 32.7024 24.3429 30.0545 26.1123C27.4067 27.8817 25.3431 30.3965 24.1245 33.3387C22.9059 36.281 22.5872 39.5185 23.2086 42.6419C23.83 45.7653 25.3636 48.6342 27.6155 50.886C29.8674 53.1378 32.7365 54.6713 35.8599 55.2925C38.9833 55.9137 42.2208 55.5948 45.163 54.3761C48.1052 53.1573 50.6199 51.0935 52.3891 48.4456C54.1584 45.7977 55.1027 42.6846 55.1027 39.5C55.0979 35.2309 53.3998 31.138 50.3809 28.1193C47.3621 25.1007 43.2691 23.4028 39 23.3982ZM46.8359 28.3122C46.3908 28.6239 45.9275 28.9088 45.4484 29.1653C45.0944 28.3575 44.6677 27.5836 44.1734 26.8532C45.1124 27.239 46.0054 27.7284 46.8359 28.3122ZM39 26.0051C40.4799 26.0051 42.0469 27.5285 43.2054 30.1199C40.4718 31.0054 37.5285 31.0054 34.7948 30.1199C35.9531 27.5279 37.5203 26.0051 39 26.0051ZM39 33.2213C40.7104 33.2206 42.4098 32.9473 44.0342 32.4118C44.5699 34.3251 44.8758 36.2955 44.9452 38.2812H33.0549C33.1243 36.2953 33.4301 34.3248 33.9659 32.4113C35.5903 32.9469 37.2896 33.2203 39 33.2213ZM44.9452 40.7188C44.8797 42.5292 44.6211 44.3274 44.1737 46.0829C40.819 44.9416 37.1811 44.9416 33.8264 46.0829C33.379 44.3274 33.1204 42.5292 33.0549 40.7188H44.9452ZM33.8267 26.8536C33.3325 27.5839 32.9058 28.3576 32.5519 29.1652C32.0726 28.9087 31.6091 28.6238 31.1639 28.312C31.9945 27.7284 32.8876 27.2392 33.8267 26.8536ZM29.2535 29.9328C30.0218 30.5171 30.8411 31.0309 31.7017 31.4681C31.0525 33.6841 30.6869 35.9734 30.6136 38.2812H25.3907C25.6714 35.1348 27.0369 32.1836 29.2535 29.9328ZM25.3907 40.7188H30.6136C30.6842 42.8588 31.0025 44.9835 31.5624 47.0503C30.6388 47.53 29.7639 48.0983 28.9502 48.7473C26.9095 46.5377 25.6579 43.7146 25.3907 40.7188ZM30.7855 50.4124C31.2861 50.0353 31.8122 49.6931 32.3599 49.3883C32.7515 50.356 33.2431 51.2802 33.8267 52.1458C32.7429 51.7007 31.7207 51.1181 30.7855 50.4124ZM39 52.9949C37.4308 52.9949 35.7625 51.2823 34.589 48.3979C37.4484 47.4199 40.5517 47.4199 43.4111 48.3979C42.2376 51.2823 40.5691 52.9949 39 52.9949ZM44.1734 52.1464C44.7571 51.2809 45.2486 50.3567 45.64 49.3889C46.1878 49.6937 46.7138 50.0359 47.2145 50.413C46.2793 51.1188 45.2573 51.7014 44.1734 52.1464ZM49.0499 48.7479C48.2362 48.0987 47.3613 47.5302 46.4376 47.0503C46.9975 44.9836 47.3159 42.8589 47.3864 40.7188H52.6095C52.3423 43.7146 51.0906 46.5383 49.0499 48.7479ZM47.3864 38.2812C47.3132 35.9735 46.9476 33.6844 46.2983 31.4687C47.1588 31.0314 47.9781 30.5174 48.7462 29.9328C50.9628 32.1836 52.3285 35.1347 52.6095 38.2812H47.3864ZM2.84106 21.9066H4.59301V25.114C4.59302 25.328 4.64933 25.5381 4.7563 25.7234C4.86327 25.9087 5.01713 26.0625 5.2024 26.1695C5.38767 26.2764 5.59784 26.3327 5.81177 26.3327C6.0257 26.3327 6.23586 26.2764 6.42113 26.1695L13.8046 21.9066H23.9719C24.7251 21.9056 25.4471 21.6059 25.9796 21.0733C26.5121 20.5406 26.8116 19.8185 26.8125 19.0654V4.32093C26.8116 3.5677 26.512 2.84556 25.9794 2.31294C25.4468 1.78032 24.7247 1.48072 23.9714 1.47988H2.84106C2.08782 1.48072 1.36568 1.78032 0.833062 2.31294C0.300444 2.84556 0.000846763 3.5677 0 4.32093V19.0654C0.000846687 19.8186 0.300439 20.5408 0.833052 21.0734C1.36567 21.6061 2.08781 21.9057 2.84106 21.9066ZM2.4375 4.32093C2.43888 4.21433 2.48184 4.11249 2.55723 4.0371C2.63261 3.96172 2.73446 3.91876 2.84106 3.91737H23.9711C24.0778 3.91868 24.1797 3.9616 24.2552 4.037C24.3306 4.11239 24.3736 4.21428 24.375 4.32093V19.0654C24.3736 19.172 24.3307 19.2738 24.2553 19.3493C24.1799 19.4247 24.078 19.4677 23.9714 19.4691H13.4777C13.2638 19.4691 13.0536 19.5254 12.8683 19.6324L7.03005 23.0032V20.6875C7.03005 20.3643 6.90165 20.0543 6.67309 19.8257C6.44453 19.5972 6.13453 19.4688 5.8113 19.4688H2.8406C2.73412 19.4672 2.63243 19.4242 2.55716 19.3489C2.48188 19.2736 2.43896 19.1719 2.4375 19.0654V4.32093ZM5.87331 11.6933C5.87331 11.3701 6.00171 11.0601 6.23027 10.8315C6.45883 10.603 6.76882 10.4746 7.09206 10.4746C7.3331 10.4746 7.56873 10.546 7.76916 10.68C7.96958 10.8139 8.12579 11.0042 8.21803 11.2269C8.31028 11.4496 8.33441 11.6947 8.28739 11.9311C8.24036 12.1675 8.12429 12.3846 7.95384 12.5551C7.7834 12.7255 7.56624 12.8416 7.32982 12.8886C7.09341 12.9357 6.84836 12.9115 6.62566 12.8193C6.40296 12.727 6.21262 12.5708 6.0787 12.3704C5.94478 12.17 5.87331 11.9344 5.87331 11.6933ZM12.1875 11.6933C12.1875 11.3701 12.3159 11.0601 12.5445 10.8315C12.773 10.603 13.083 10.4746 13.4062 10.4746C13.6473 10.4746 13.8829 10.546 14.0833 10.68C14.2838 10.8139 14.44 11.0042 14.5322 11.2269C14.6245 11.4496 14.6486 11.6947 14.6016 11.9311C14.5546 12.1675 14.4385 12.3846 14.268 12.5551C14.0976 12.7255 13.8804 12.8416 13.644 12.8886C13.4076 12.9357 13.1625 12.9115 12.9398 12.8193C12.7172 12.727 12.5268 12.5708 12.3929 12.3704C12.259 12.17 12.1875 11.9344 12.1875 11.6933ZM18.5018 11.6933C18.5018 11.3701 18.6302 11.0601 18.8588 10.8315C19.0874 10.603 19.3974 10.4746 19.7206 10.4746C19.9616 10.4746 20.1973 10.546 20.3977 10.68C20.5981 10.8139 20.7543 11.0042 20.8466 11.2269C20.9388 11.4496 20.9629 11.6947 20.9159 11.9311C20.8689 12.1675 20.7528 12.3846 20.5824 12.5551C20.4119 12.7255 20.1948 12.8416 19.9584 12.8886C19.7219 12.9357 19.4769 12.9115 19.2542 12.8193C19.0315 12.727 18.8412 12.5708 18.7072 12.3704C18.5733 12.17 18.5018 11.9344 18.5018 11.6933ZM51.1875 58.0381V72.1494C51.1884 72.9284 51.4983 73.6751 52.0492 74.2259C52.6 74.7767 53.3468 75.0866 54.1257 75.0875H75.0617C75.8407 75.0866 76.5875 74.7767 77.1383 74.2259C77.6891 73.6751 77.999 72.9284 78 72.1494V58.0381C77.999 57.2591 77.6891 56.5124 77.1383 55.9616C76.5875 55.4108 75.8407 55.1009 75.0617 55.1H54.1257C53.3468 55.1009 52.6 55.4108 52.0492 55.9616C51.4983 56.5124 51.1884 57.2591 51.1875 58.0381ZM53.625 70.388V59.2491L59.1945 64.8185L53.625 70.388ZM54.8101 72.6503L60.9181 66.5422L62.7223 68.3464C63.2294 68.8521 63.9162 69.1361 64.6323 69.1361C65.3483 69.1361 66.0352 68.8521 66.5422 68.3464L68.3079 66.5806L74.3774 72.65L54.8101 72.6503ZM75.5625 59.3262V70.388L70.0315 64.857L75.5625 59.3262ZM73.9041 57.5375L64.8187 66.623C64.7689 66.6716 64.702 66.6988 64.6323 66.6988C64.5627 66.6988 64.4958 66.6716 64.446 66.623L55.3605 57.5375H73.9041ZM64.5937 0.5C61.0382 0.5 57.6282 1.91244 55.1141 4.4266C52.5999 6.94076 51.1875 10.3507 51.1875 13.9062C51.1875 17.4618 52.5999 20.8717 55.1141 23.3859C57.6282 25.9001 61.0382 27.3125 64.5937 27.3125C64.917 27.3125 65.227 27.1841 65.4555 26.9555C65.6841 26.727 65.8125 26.417 65.8125 26.0938C65.8125 25.7705 65.6841 25.4605 65.4555 25.232C65.227 25.0034 64.917 24.875 64.5937 24.875C62.157 24.8741 59.7899 24.0615 57.8664 22.5655C55.9429 21.0696 54.5726 18.9755 53.9717 16.614C53.3709 14.2524 53.5738 11.758 54.5485 9.5247C55.5231 7.29136 57.214 5.44632 59.354 4.28095C61.494 3.11557 63.9613 2.69627 66.3661 3.08926C68.771 3.48225 70.9764 4.66513 72.6341 6.4511C74.2919 8.23708 75.3074 10.5244 75.5205 12.9518C75.7335 15.3792 75.1318 17.8085 73.8105 19.8559C73.6503 20.1034 73.4143 20.2925 73.1378 20.3948C72.8613 20.4972 72.5591 20.5074 72.2763 20.4239C71.9935 20.3403 71.7454 20.1676 71.5688 19.9314C71.3923 19.6953 71.2969 19.4084 71.2969 19.1135V13.9151C71.2969 13.9122 71.2969 13.9093 71.2969 13.9062C71.2969 13.9032 71.2969 13.9003 71.2969 13.8974V13.7908C71.2969 13.7547 71.2946 13.719 71.2914 13.6841C71.2421 12.1699 70.6816 10.7169 69.7012 9.56187C68.7208 8.40682 67.3782 7.61772 65.8921 7.32311C64.406 7.02849 62.8639 7.24571 61.517 7.93938C60.17 8.63305 59.0977 9.76231 58.4744 11.1432C57.8512 12.5242 57.7139 14.0754 58.0849 15.5444C58.4558 17.0133 59.3132 18.3134 60.5173 19.2328C61.7215 20.1523 63.2014 20.637 64.7162 20.608C66.231 20.579 67.6913 20.038 68.8594 19.0731V19.1135C68.8594 19.9344 69.125 20.7332 69.6164 21.3907C70.1078 22.0483 70.7988 22.5292 71.5861 22.7616C72.3733 22.9941 73.2147 22.9657 73.9845 22.6806C74.7542 22.3955 75.4112 21.8691 75.8571 21.1799C77.164 19.1552 77.9011 16.8156 77.9908 14.4074C78.0805 11.9992 77.5195 9.61136 76.3668 7.49502C75.2141 5.37868 73.5124 3.61212 71.4406 2.38116C69.3688 1.15021 67.0036 0.500366 64.5937 0.5ZM68.8594 13.9151C68.857 15.0456 68.406 16.129 67.6053 16.9272C66.8046 17.7254 65.7199 18.173 64.5893 18.1719C63.4588 18.1707 62.3749 17.7208 61.5759 16.9209C60.7769 16.1211 60.3281 15.0368 60.3281 13.9062C60.3281 12.7757 60.7769 11.6914 61.5759 10.8916C62.3749 10.0917 63.4588 9.6418 64.5893 9.64063C65.7199 9.63946 66.8046 10.0871 67.6053 10.8853C68.406 11.6835 68.857 12.7669 68.8594 13.8974V13.9151ZM11.1113 57.6062L8.87326 53.1643C8.62028 52.6614 8.21543 52.2509 7.71608 51.9909C7.21673 51.731 6.64823 51.6348 6.09116 51.716L4.07687 52.0074C3.68359 52.0624 3.30789 52.2059 2.97801 52.427C2.13438 52.9891 1.43272 53.7393 0.928249 54.6187C0.423782 55.498 0.130279 56.4824 0.0708398 57.4944C-0.0639558 58.8115 -0.00141538 60.1414 0.256394 61.4401C0.519652 62.769 0.937423 64.0625 1.50119 65.2944C3.92483 70.4362 8.06262 74.574 13.2044 76.9977C14.4362 77.5617 15.7298 77.9795 17.0587 78.2427C17.9216 78.4113 18.7987 78.4974 19.6779 78.5C20.1211 78.5003 20.5639 78.4768 21.0045 78.4295C22.0167 78.3698 23.0011 78.0762 23.8806 77.5717C24.76 77.0671 25.5104 76.3655 26.0727 75.5218C26.2934 75.1921 26.4366 74.8168 26.4918 74.4239L26.784 72.4088C26.8652 71.8518 26.769 71.2833 26.509 70.784C26.2491 70.2847 25.8386 69.8799 25.3357 69.6269L20.8938 67.3887C20.339 67.1106 19.7051 67.0329 19.0996 67.1687C18.494 67.3044 17.954 67.6453 17.571 68.1336L16.3553 69.6903C13.217 68.4244 10.0757 65.2833 8.80988 62.145L10.3667 60.9291C10.855 60.5461 11.1958 60.006 11.3315 59.4004C11.4672 58.7949 11.3894 58.161 11.1113 57.6062ZM8.86625 59.0078L7.00979 60.4575C6.69084 60.7061 6.45858 61.0492 6.34614 61.4376C6.2337 61.8261 6.24683 62.2402 6.38366 62.6208C7.83671 66.6693 11.8296 70.6622 15.8779 72.1151C16.2586 72.2522 16.6728 72.2655 17.0615 72.1531C17.4502 72.0407 17.7935 71.8083 18.0422 71.4891L19.4921 69.6327C19.5265 69.587 19.5761 69.5551 19.6319 69.5426C19.6877 69.5301 19.7461 69.5378 19.7968 69.5644L24.2386 71.8024C24.286 71.8241 24.3248 71.8611 24.3489 71.9073C24.373 71.9536 24.381 72.0065 24.3716 72.0578L24.0794 74.0729C24.0755 74.1092 24.0623 74.1439 24.0411 74.1736C23.6877 74.7037 23.2158 75.1442 22.6628 75.4604C22.1097 75.7766 21.4907 75.9597 20.8546 75.9953C20.8223 75.997 20.7891 75.9999 20.748 76.0042C19.6701 76.1138 18.5819 76.0616 17.5195 75.8492C16.3777 75.6221 15.2665 75.2621 14.2083 74.7767C9.60707 72.5974 5.90211 68.8924 3.72282 64.2911C3.23757 63.2331 2.87778 62.122 2.65078 60.9805C2.43841 59.9184 2.38604 58.8306 2.49539 57.7531C2.49905 57.7194 2.50209 57.685 2.50438 57.6464C2.53982 57.0102 2.72292 56.391 3.03917 55.8378C3.35542 55.2846 3.79614 54.8126 4.32641 54.4592C4.35612 54.438 4.39081 54.4249 4.42711 54.421L6.44185 54.1288C6.45557 54.1268 6.46942 54.1257 6.48329 54.1258C6.52832 54.1252 6.57253 54.1378 6.61053 54.162C6.64853 54.1861 6.67869 54.2208 6.69733 54.2618L8.93526 58.7034C8.96177 58.7541 8.9694 58.8126 8.95678 58.8684C8.94417 58.9242 8.91199 58.9734 8.86625 59.0078ZM11.7771 52.3054V26.731C11.7771 26.4078 11.9055 26.0978 12.134 25.8692C12.3626 25.6407 12.6726 25.5123 12.9958 25.5123C13.3191 25.5123 13.6291 25.6407 13.8576 25.8692C14.0862 26.0978 14.2146 26.4078 14.2146 26.731V52.3057C14.2146 52.6289 14.0862 52.9389 13.8576 53.1675C13.6291 53.3961 13.3191 53.5245 12.9958 53.5245C12.6726 53.5245 12.3626 53.3961 12.134 53.1675C11.9055 52.9389 11.7771 52.6286 11.7771 52.3054ZM26.1407 66.7238C25.8174 66.7238 25.5074 66.5954 25.2789 66.3669C25.0503 66.1383 24.9219 65.8283 24.9219 65.5051C24.9219 65.1818 25.0503 64.8719 25.2789 64.6433C25.5074 64.4147 25.8174 64.2863 26.1407 64.2863H46.9219C47.2451 64.2863 47.5551 64.4147 47.7836 64.6433C48.0122 64.8719 48.1406 65.1818 48.1406 65.5051C48.1406 65.8283 48.0122 66.1383 47.7836 66.3669C47.5551 66.5954 47.2451 66.7238 46.9219 66.7238H26.1407ZM65.0051 53.391C64.6818 53.391 64.3718 53.2626 64.1433 53.034C63.9147 52.8055 63.7863 52.4955 63.7863 52.1723V31.5781C63.7863 31.2549 63.9147 30.9449 64.1433 30.7163C64.3718 30.4878 64.6818 30.3594 65.0051 30.3594C65.3283 30.3594 65.6383 30.4878 65.8668 30.7163C66.0954 30.9449 66.2238 31.2549 66.2238 31.5781V52.1723C66.2238 52.4955 66.0954 52.8055 65.8668 53.034C65.6383 53.2626 65.3283 53.391 65.0051 53.391ZM31.0781 14.7146C30.7549 14.7146 30.4449 14.5862 30.2163 14.3576C29.9878 14.1291 29.8594 13.8191 29.8594 13.4958C29.8594 13.1726 29.9878 12.8626 30.2163 12.634C30.4449 12.4055 30.7549 12.2771 31.0781 12.2771H46.9266C47.2498 12.2771 47.5598 12.4055 47.7884 12.634C48.0169 12.8626 48.1453 13.1726 48.1453 13.4958C48.1453 13.8191 48.0169 14.1291 47.7884 14.3576C47.5598 14.5862 47.2498 14.7146 46.9266 14.7146H31.0781Z" fill="#7444FD"/>
</g>
<defs>
<clipPath id="clip0_4043_402">
<rect width="78" height="78" fill="white" transform="translate(0 0.5)"/>
</clipPath>
</defs>
</svg>
