<svg width="76" height="77" viewBox="0 0 76 77" fill="none" xmlns="http://www.w3.org/2000/svg">
<g clip-path="url(#clip0_4043_147)">
<path d="M74.8125 38.4999C74.8124 45.7806 72.6533 52.8978 68.6083 58.9515C64.5633 65.0051 58.814 69.7233 52.0875 72.5095C45.361 75.2957 37.9593 76.0247 30.8185 74.6044C23.6777 73.184 17.1184 69.6781 11.97 64.5299C5.88832 58.4474 2.12804 50.4277 1.34173 41.8623C0.555418 33.2969 2.79271 24.7266 7.66536 17.6385C7.75237 17.5067 7.86482 17.3935 7.99611 17.3057C8.1274 17.2178 8.27489 17.1571 8.42996 17.1269C8.58502 17.0968 8.74454 17.0979 8.89917 17.1302C9.05381 17.1625 9.20044 17.2253 9.33049 17.315C9.46054 17.4046 9.5714 17.5194 9.65657 17.6524C9.74174 17.7854 9.7995 17.9341 9.82649 18.0898C9.85348 18.2454 9.84914 18.4049 9.81373 18.5588C9.77832 18.7128 9.71255 18.8581 9.62028 18.9863C4.7544 26.0638 2.70862 34.704 3.88427 43.2119C5.05993 51.7198 9.37217 59.4814 15.975 64.9741C22.5779 70.4667 30.9948 73.294 39.5746 72.9012C48.1544 72.5085 56.2778 68.924 62.3512 62.8511C68.3969 56.8035 71.9766 48.7231 72.3937 40.1821C72.8109 31.6411 70.0356 23.2503 64.608 16.6424C59.1804 10.0345 51.4886 5.68215 43.0292 4.43215C34.5699 3.18216 25.948 5.12394 18.8412 9.87968L20.7204 12.1151L12.5593 13.5624L15.3856 5.77093L17.3049 8.0539C22.8388 4.29272 29.2932 2.11089 35.9743 1.74296C42.6553 1.37504 49.3102 2.83492 55.2237 5.96568C61.1372 9.09644 66.0856 13.7797 69.537 19.512C72.9884 25.2442 74.8123 31.8088 74.8125 38.4999Z" fill="#3147FF"/>
<path d="M38 68.1875C54.3697 68.1875 67.6875 54.8697 67.6875 38.5C67.6875 22.1303 54.3697 8.8125 38 8.8125C21.6303 8.8125 8.3125 22.1303 8.3125 38.5C8.3125 54.8697 21.6303 68.1875 38 68.1875ZM38 11.1875C53.0602 11.1875 65.3125 23.4398 65.3125 38.5C65.3125 53.5602 53.0602 65.8125 38 65.8125C22.9398 65.8125 10.6875 53.5602 10.6875 38.5C10.6875 23.4398 22.9398 11.1875 38 11.1875Z" fill="#3147FF"/>
<path d="M38 15.9375C38.3149 15.9375 38.617 15.8124 38.8397 15.5897C39.0624 15.367 39.1875 15.0649 39.1875 14.75V13.5625C39.1875 13.2476 39.0624 12.9455 38.8397 12.7228C38.617 12.5001 38.3149 12.375 38 12.375C37.6851 12.375 37.383 12.5001 37.1603 12.7228C36.9376 12.9455 36.8125 13.2476 36.8125 13.5625V14.75C36.8125 15.0649 36.9376 15.367 37.1603 15.5897C37.383 15.8124 37.6851 15.9375 38 15.9375Z" fill="#3147FF"/>
<path d="M38 61.0623C37.6851 61.0623 37.383 61.1874 37.1603 61.4101C36.9376 61.6328 36.8125 61.9348 36.8125 62.2498V63.4373C36.8125 63.7522 36.9376 64.0542 37.1603 64.2769C37.383 64.4996 37.6851 64.6248 38 64.6248C38.3149 64.6248 38.617 64.4996 38.8397 64.2769C39.0624 64.0542 39.1875 63.7522 39.1875 63.4373V62.2498C39.1875 61.9348 39.0624 61.6328 38.8397 61.4101C38.617 61.1874 38.3149 61.0623 38 61.0623Z" fill="#3147FF"/>
<path d="M61.75 39.6875H62.9375C63.2524 39.6875 63.5545 39.5624 63.7772 39.3397C63.9999 39.117 64.125 38.8149 64.125 38.5C64.125 38.1851 63.9999 37.883 63.7772 37.6603C63.5545 37.4376 63.2524 37.3125 62.9375 37.3125H61.75C61.4351 37.3125 61.133 37.4376 60.9103 37.6603C60.6876 37.883 60.5625 38.1851 60.5625 38.5C60.5625 38.8149 60.6876 39.117 60.9103 39.3397C61.133 39.5624 61.4351 39.6875 61.75 39.6875Z" fill="#3147FF"/>
<path d="M13.0625 39.6875H14.25C14.5649 39.6875 14.867 39.5624 15.0897 39.3397C15.3124 39.117 15.4375 38.8149 15.4375 38.5C15.4375 38.1851 15.3124 37.883 15.0897 37.6603C14.867 37.4376 14.5649 37.3125 14.25 37.3125H13.0625C12.7476 37.3125 12.4455 37.4376 12.2228 37.6603C12.0001 37.883 11.875 38.1851 11.875 38.5C11.875 38.8149 12.0001 39.117 12.2228 39.3397C12.4455 39.5624 12.7476 39.6875 13.0625 39.6875Z" fill="#3147FF"/>
<path d="M54.7935 22.8935C54.9495 22.8937 55.1039 22.8631 55.248 22.8034C55.3921 22.7437 55.5229 22.6562 55.6331 22.5458L56.4728 21.706C56.5851 21.5962 56.6745 21.4653 56.7358 21.3207C56.7972 21.1761 56.8292 21.0207 56.8301 20.8637C56.831 20.7066 56.8007 20.5509 56.741 20.4057C56.6813 20.2604 56.5934 20.1284 56.4824 20.0173C56.3713 19.9062 56.2393 19.8183 56.0941 19.7586C55.9488 19.6989 55.7931 19.6686 55.6361 19.6695C55.479 19.6703 55.3237 19.7023 55.1791 19.7636C55.0345 19.8249 54.9035 19.9143 54.7936 20.0266L53.9538 20.8663C53.7877 21.0324 53.6746 21.244 53.6288 21.4744C53.583 21.7047 53.6065 21.9435 53.6964 22.1605C53.7862 22.3775 53.9384 22.5629 54.1337 22.6934C54.329 22.8239 54.5586 22.8936 54.7935 22.8935Z" fill="#3147FF"/>
<path d="M20.3665 57.3209C20.5225 57.3211 20.677 57.2905 20.8211 57.2308C20.9652 57.1711 21.0961 57.0835 21.2062 56.9731L22.0461 56.1334C22.1564 56.0231 22.2438 55.8922 22.3035 55.7481C22.3632 55.604 22.3939 55.4496 22.3939 55.2936C22.3939 55.1376 22.3632 54.9832 22.3035 54.8391C22.2438 54.695 22.1564 54.5641 22.0461 54.4538C21.9358 54.3435 21.8049 54.256 21.6608 54.1964C21.5167 54.1367 21.3622 54.106 21.2063 54.106C21.0503 54.106 20.8959 54.1367 20.7518 54.1964C20.6077 54.256 20.4768 54.3435 20.3665 54.4538L19.5268 55.2937C19.3607 55.4597 19.2476 55.6713 19.2018 55.9017C19.156 56.1321 19.1795 56.3708 19.2694 56.5878C19.3592 56.8048 19.5114 56.9903 19.7067 57.1208C19.902 57.2512 20.1316 57.3209 20.3665 57.3209Z" fill="#3147FF"/>
<path d="M55.6336 54.4538C55.5233 54.3435 55.3924 54.256 55.2483 54.1964C55.1042 54.1367 54.9498 54.106 54.7938 54.106C54.6379 54.106 54.4834 54.1367 54.3393 54.1964C54.1953 54.256 54.0643 54.3435 53.9541 54.4538C53.8438 54.5641 53.7563 54.695 53.6966 54.8391C53.6369 54.9832 53.6062 55.1376 53.6062 55.2936C53.6062 55.4496 53.6369 55.604 53.6966 55.7481C53.7563 55.8922 53.8438 56.0231 53.9541 56.1334L54.7939 56.9731C55.0166 57.1958 55.3187 57.3209 55.6336 57.3209C55.9486 57.3209 56.2506 57.1958 56.4733 56.9731C56.696 56.7504 56.8212 56.4483 56.8212 56.1334C56.8212 55.8184 56.696 55.5164 56.4733 55.2937L55.6336 54.4538Z" fill="#3147FF"/>
<path d="M20.3667 22.5458C20.4768 22.6571 20.6077 22.7456 20.7521 22.8062C20.8964 22.8667 21.0514 22.8982 21.2079 22.8986C21.3645 22.8991 21.5196 22.8686 21.6643 22.8089C21.809 22.7492 21.9405 22.6615 22.0512 22.5508C22.1619 22.4401 22.2496 22.3086 22.3093 22.1639C22.369 22.0191 22.3994 21.864 22.399 21.7075C22.3985 21.5509 22.367 21.396 22.3065 21.2517C22.2459 21.1073 22.1574 20.9763 22.046 20.8663L21.2061 20.0266C21.0963 19.9143 20.9653 19.8249 20.8207 19.7636C20.6761 19.7023 20.5208 19.6703 20.3637 19.6695C20.2067 19.6686 20.051 19.6989 19.9057 19.7586C19.7604 19.8183 19.6285 19.9062 19.5174 20.0173C19.4064 20.1284 19.3184 20.2604 19.2588 20.4057C19.1991 20.5509 19.1688 20.7066 19.1697 20.8637C19.1706 21.0207 19.2026 21.1761 19.264 21.3207C19.3253 21.4653 19.4147 21.5962 19.527 21.706L20.3667 22.5458Z" fill="#3147FF"/>
<path d="M20.4631 42.3806L30.629 52.5463C30.7393 52.6566 30.8702 52.7441 31.0143 52.8038C31.1584 52.8634 31.3128 52.8942 31.4687 52.8942C31.6247 52.8942 31.7791 52.8634 31.9232 52.8038C32.0673 52.7441 32.1982 52.6566 32.3084 52.5463L55.5368 29.3181C55.6471 29.2078 55.7346 29.0769 55.7943 28.9328C55.854 28.7887 55.8847 28.6343 55.8847 28.4783C55.8847 28.3223 55.854 28.1679 55.7943 28.0238C55.7346 27.8797 55.6471 27.7488 55.5368 27.6385L53.0177 25.1194C52.9074 25.0091 52.7765 24.9216 52.6324 24.8619C52.4883 24.8022 52.3339 24.7715 52.1779 24.7715C52.0219 24.7715 51.8675 24.8022 51.7234 24.8619C51.5793 24.9216 51.4484 25.0091 51.3381 25.1194L31.4687 44.9891L24.6618 38.1819C24.5516 38.0716 24.4206 37.9841 24.2766 37.9244C24.1325 37.8647 23.978 37.834 23.8221 37.834C23.6661 37.834 23.5116 37.8647 23.3676 37.9244C23.2235 37.9841 23.0925 38.0716 22.9823 38.1819L20.4631 40.701C20.3528 40.8113 20.2653 40.9422 20.2057 41.0863C20.146 41.2304 20.1152 41.3848 20.1152 41.5408C20.1152 41.6968 20.146 41.8512 20.2057 41.9953C20.2653 42.1394 20.3528 42.2703 20.4631 42.3806ZM23.822 40.701L30.629 47.5082C30.7393 47.6185 30.8702 47.706 31.0143 47.7656C31.1584 47.8253 31.3128 47.8561 31.4687 47.8561C31.6247 47.8561 31.7791 47.8253 31.9232 47.7656C32.0673 47.706 32.1982 47.6185 32.3084 47.5082L52.178 27.6385L53.0177 28.4782L31.4687 50.0272L22.9823 41.5407L23.822 40.701Z" fill="#3147FF"/>
</g>
<defs>
<clipPath id="clip0_4043_147">
<rect width="76" height="76" fill="white" transform="translate(0 0.5)"/>
</clipPath>
</defs>
</svg>
