<svg width="20" height="20" viewBox="0 0 20 20" fill="none" xmlns="http://www.w3.org/2000/svg">
<path d="M6.66797 4.79199C6.3263 4.79199 6.04297 4.50866 6.04297 4.16699V1.66699C6.04297 1.32533 6.3263 1.04199 6.66797 1.04199C7.00964 1.04199 7.29297 1.32533 7.29297 1.66699V4.16699C7.29297 4.50866 7.00964 4.79199 6.66797 4.79199ZM13.3346 4.79199C12.993 4.79199 12.7096 4.50866 12.7096 4.16699V1.66699C12.7096 1.32533 12.993 1.04199 13.3346 1.04199C13.6763 1.04199 13.9596 1.32533 13.9596 1.66699V4.16699C13.9596 4.50866 13.6763 4.79199 13.3346 4.79199ZM7.08464 12.0837C6.9763 12.0837 6.86797 12.0587 6.76797 12.017C6.65964 11.9753 6.5763 11.917 6.49297 11.842C6.34297 11.6837 6.2513 11.4753 6.2513 11.2503C6.2513 11.142 6.2763 11.0337 6.31797 10.9337C6.35964 10.8337 6.41797 10.742 6.49297 10.6587C6.5763 10.5837 6.65964 10.5253 6.76797 10.4837C7.06797 10.3587 7.44297 10.4253 7.6763 10.6587C7.8263 10.817 7.91797 11.0337 7.91797 11.2503C7.91797 11.3003 7.90964 11.3587 7.9013 11.417C7.89297 11.467 7.8763 11.517 7.8513 11.567C7.83464 11.617 7.80964 11.667 7.7763 11.717C7.7513 11.7587 7.70964 11.8003 7.6763 11.842C7.51797 11.992 7.3013 12.0837 7.08464 12.0837ZM10.0013 12.0837C9.89297 12.0837 9.78464 12.0587 9.68464 12.017C9.5763 11.9753 9.49297 11.917 9.40964 11.842C9.25964 11.6837 9.16797 11.4753 9.16797 11.2503C9.16797 11.142 9.19297 11.0337 9.23464 10.9337C9.2763 10.8337 9.33464 10.742 9.40964 10.6587C9.49297 10.5837 9.5763 10.5253 9.68464 10.4837C9.98464 10.3503 10.3596 10.4253 10.593 10.6587C10.743 10.817 10.8346 11.0337 10.8346 11.2503C10.8346 11.3003 10.8263 11.3587 10.818 11.417C10.8096 11.467 10.793 11.517 10.768 11.567C10.7513 11.617 10.7263 11.667 10.693 11.717C10.668 11.7587 10.6263 11.8003 10.593 11.842C10.4346 11.992 10.218 12.0837 10.0013 12.0837ZM12.918 12.0837C12.8096 12.0837 12.7013 12.0587 12.6013 12.017C12.493 11.9753 12.4096 11.917 12.3263 11.842L12.2263 11.717C12.1947 11.6706 12.1695 11.6201 12.1513 11.567C12.1272 11.5198 12.1104 11.4692 12.1013 11.417C12.093 11.3587 12.0846 11.3003 12.0846 11.2503C12.0846 11.0337 12.1763 10.817 12.3263 10.6587C12.4096 10.5837 12.493 10.5253 12.6013 10.4837C12.9096 10.3503 13.2763 10.4253 13.5096 10.6587C13.6596 10.817 13.7513 11.0337 13.7513 11.2503C13.7513 11.3003 13.743 11.3587 13.7346 11.417C13.7263 11.467 13.7096 11.517 13.6846 11.567C13.668 11.617 13.643 11.667 13.6096 11.717C13.5846 11.7587 13.543 11.8003 13.5096 11.842C13.3513 11.992 13.1346 12.0837 12.918 12.0837ZM7.08464 15.0003C6.9763 15.0003 6.86797 14.9753 6.76797 14.9337C6.66797 14.892 6.5763 14.8337 6.49297 14.7587C6.34297 14.6003 6.2513 14.3837 6.2513 14.167C6.2513 14.0587 6.2763 13.9503 6.31797 13.8503C6.35964 13.742 6.41797 13.6503 6.49297 13.5753C6.8013 13.267 7.36797 13.267 7.6763 13.5753C7.8263 13.7337 7.91797 13.9503 7.91797 14.167C7.91797 14.3837 7.8263 14.6003 7.6763 14.7587C7.51797 14.9087 7.3013 15.0003 7.08464 15.0003ZM10.0013 15.0003C9.78464 15.0003 9.56797 14.9087 9.40964 14.7587C9.25964 14.6003 9.16797 14.3837 9.16797 14.167C9.16797 14.0587 9.19297 13.9503 9.23464 13.8503C9.2763 13.742 9.33464 13.6503 9.40964 13.5753C9.71797 13.267 10.2846 13.267 10.593 13.5753C10.668 13.6503 10.7263 13.742 10.768 13.8503C10.8096 13.9503 10.8346 14.0587 10.8346 14.167C10.8346 14.3837 10.743 14.6003 10.593 14.7587C10.4346 14.9087 10.218 15.0003 10.0013 15.0003ZM12.918 15.0003C12.7013 15.0003 12.4846 14.9087 12.3263 14.7587C12.2492 14.6804 12.1895 14.5867 12.1513 14.4837C12.1096 14.3837 12.0846 14.2753 12.0846 14.167C12.0846 14.0587 12.1096 13.9503 12.1513 13.8503C12.193 13.742 12.2513 13.6503 12.3263 13.5753C12.518 13.3837 12.8096 13.292 13.0763 13.3503C13.1346 13.3587 13.1846 13.3753 13.2346 13.4003C13.2846 13.417 13.3346 13.442 13.3846 13.4753C13.4263 13.5003 13.468 13.542 13.5096 13.5753C13.6596 13.7337 13.7513 13.9503 13.7513 14.167C13.7513 14.3837 13.6596 14.6003 13.5096 14.7587C13.3513 14.9087 13.1346 15.0003 12.918 15.0003ZM17.0846 8.20033H2.91797C2.5763 8.20033 2.29297 7.91699 2.29297 7.57533C2.29297 7.23366 2.5763 6.95033 2.91797 6.95033H17.0846C17.4263 6.95033 17.7096 7.23366 17.7096 7.57533C17.7096 7.91699 17.4263 8.20033 17.0846 8.20033Z" fill="#7444FD"/>
<path d="M13.3333 18.9587H6.66667C3.625 18.9587 1.875 17.2087 1.875 14.167V7.08366C1.875 4.04199 3.625 2.29199 6.66667 2.29199H13.3333C16.375 2.29199 18.125 4.04199 18.125 7.08366V14.167C18.125 17.2087 16.375 18.9587 13.3333 18.9587ZM6.66667 3.54199C4.28333 3.54199 3.125 4.70033 3.125 7.08366V14.167C3.125 16.5503 4.28333 17.7087 6.66667 17.7087H13.3333C15.7167 17.7087 16.875 16.5503 16.875 14.167V7.08366C16.875 4.70033 15.7167 3.54199 13.3333 3.54199H6.66667Z" fill="#7444FD"/>
</svg>
