<svg width="15" height="16" viewBox="0 0 15 16" fill="none" xmlns="http://www.w3.org/2000/svg">
<path d="M4.42304 3.34884C4.10766 3.34884 3.84612 3.09581 3.84612 2.7907V0.55814C3.84612 0.253023 4.10766 0 4.42304 0C4.73843 0 4.99997 0.253023 4.99997 0.55814V2.7907C4.99997 3.09581 4.73843 3.34884 4.42304 3.34884ZM10.5769 3.34884C10.2615 3.34884 9.99997 3.09581 9.99997 2.7907V0.55814C9.99997 0.253023 10.2615 0 10.5769 0C10.8923 0 11.1538 0.253023 11.1538 0.55814V2.7907C11.1538 3.09581 10.8923 3.34884 10.5769 3.34884ZM4.80766 9.86047C4.70766 9.86047 4.60766 9.83814 4.51535 9.80093C4.41535 9.76372 4.33843 9.71163 4.26151 9.64465C4.12304 9.50326 4.03843 9.31721 4.03843 9.11628C4.03843 9.01954 4.06151 8.92279 4.09997 8.83349C4.13843 8.74419 4.19227 8.66233 4.26151 8.58791C4.33843 8.52093 4.41535 8.46884 4.51535 8.43163C4.79227 8.32 5.13843 8.37953 5.35381 8.58791C5.49227 8.7293 5.57689 8.92279 5.57689 9.11628C5.57689 9.16093 5.5692 9.21302 5.5615 9.26512C5.55381 9.30977 5.53843 9.35442 5.51535 9.39907C5.49997 9.44372 5.47689 9.48837 5.44612 9.53302C5.42304 9.57023 5.38458 9.60744 5.35381 9.64465C5.20766 9.7786 5.00766 9.86047 4.80766 9.86047ZM7.49997 9.86047C7.39997 9.86047 7.29997 9.83814 7.20766 9.80093C7.10766 9.76372 7.03074 9.71163 6.95381 9.64465C6.81535 9.50326 6.73074 9.31721 6.73074 9.11628C6.73074 9.01954 6.75381 8.92279 6.79227 8.83349C6.83074 8.74419 6.88458 8.66233 6.95381 8.58791C7.03074 8.52093 7.10766 8.46884 7.20766 8.43163C7.48458 8.31256 7.83074 8.37953 8.04612 8.58791C8.18458 8.7293 8.2692 8.92279 8.2692 9.11628C8.2692 9.16093 8.2615 9.21302 8.25381 9.26512C8.24612 9.30977 8.23074 9.35442 8.20766 9.39907C8.19227 9.44372 8.1692 9.48837 8.13843 9.53302C8.11535 9.57023 8.07689 9.60744 8.04612 9.64465C7.89997 9.7786 7.69997 9.86047 7.49997 9.86047ZM10.1923 9.86047C10.0923 9.86047 9.99227 9.83814 9.89997 9.80093C9.79997 9.76372 9.72304 9.71163 9.64612 9.64465L9.55381 9.53302C9.52468 9.49155 9.50139 9.4465 9.48458 9.39907C9.46236 9.3569 9.4468 9.31175 9.43843 9.26512C9.43074 9.21302 9.42304 9.16093 9.42304 9.11628C9.42304 8.92279 9.50766 8.7293 9.64612 8.58791C9.72304 8.52093 9.79997 8.46884 9.89997 8.43163C10.1846 8.31256 10.523 8.37953 10.7384 8.58791C10.8769 8.7293 10.9615 8.92279 10.9615 9.11628C10.9615 9.16093 10.9538 9.21302 10.9461 9.26512C10.9384 9.30977 10.923 9.35442 10.9 9.39907C10.8846 9.44372 10.8615 9.48837 10.8307 9.53302C10.8077 9.57023 10.7692 9.60744 10.7384 9.64465C10.5923 9.7786 10.3923 9.86047 10.1923 9.86047ZM4.80766 12.4651C4.70766 12.4651 4.60766 12.4428 4.51535 12.4056C4.42304 12.3684 4.33843 12.3163 4.26151 12.2493C4.12304 12.1079 4.03843 11.9144 4.03843 11.7209C4.03843 11.6242 4.06151 11.5274 4.09997 11.4381C4.13843 11.3414 4.19227 11.2595 4.26151 11.1926C4.54612 10.9172 5.0692 10.9172 5.35381 11.1926C5.49227 11.334 5.57689 11.5274 5.57689 11.7209C5.57689 11.9144 5.49227 12.1079 5.35381 12.2493C5.20766 12.3833 5.00766 12.4651 4.80766 12.4651ZM7.49997 12.4651C7.29997 12.4651 7.09997 12.3833 6.95381 12.2493C6.81535 12.1079 6.73074 11.9144 6.73074 11.7209C6.73074 11.6242 6.75381 11.5274 6.79227 11.4381C6.83074 11.3414 6.88458 11.2595 6.95381 11.1926C7.23843 10.9172 7.76151 10.9172 8.04612 11.1926C8.11535 11.2595 8.1692 11.3414 8.20766 11.4381C8.24612 11.5274 8.2692 11.6242 8.2692 11.7209C8.2692 11.9144 8.18458 12.1079 8.04612 12.2493C7.89997 12.3833 7.69997 12.4651 7.49997 12.4651ZM10.1923 12.4651C9.99227 12.4651 9.79227 12.3833 9.64612 12.2493C9.57494 12.1794 9.51989 12.0957 9.48458 12.0037C9.44612 11.9144 9.42304 11.8177 9.42304 11.7209C9.42304 11.6242 9.44612 11.5274 9.48458 11.4381C9.52304 11.3414 9.57689 11.2595 9.64612 11.1926C9.82304 11.0214 10.0923 10.9395 10.3384 10.9916C10.3923 10.9991 10.4384 11.014 10.4846 11.0363C10.5307 11.0512 10.5769 11.0735 10.623 11.1033C10.6615 11.1256 10.7 11.1628 10.7384 11.1926C10.8769 11.334 10.9615 11.5274 10.9615 11.7209C10.9615 11.9144 10.8769 12.1079 10.7384 12.2493C10.5923 12.3833 10.3923 12.4651 10.1923 12.4651ZM14.0384 6.39256H0.961506C0.646121 6.39256 0.384583 6.13953 0.384583 5.83442C0.384583 5.5293 0.646121 5.27628 0.961506 5.27628H14.0384C14.3538 5.27628 14.6154 5.5293 14.6154 5.83442C14.6154 6.13953 14.3538 6.39256 14.0384 6.39256Z" fill="#7444FD"/>
<path d="M10.5769 15.9999H4.42308C1.61538 15.9999 0 14.4371 0 11.7209V5.39528C0 2.679 1.61538 1.11621 4.42308 1.11621H10.5769C13.3846 1.11621 15 2.679 15 5.39528V11.7209C15 14.4371 13.3846 15.9999 10.5769 15.9999ZM4.42308 2.23249C2.22308 2.23249 1.15385 3.26691 1.15385 5.39528V11.7209C1.15385 13.8492 2.22308 14.8837 4.42308 14.8837H10.5769C12.7769 14.8837 13.8462 13.8492 13.8462 11.7209V5.39528C13.8462 3.26691 12.7769 2.23249 10.5769 2.23249H4.42308Z" fill="#7444FD"/>
</svg>
