<svg width="12" height="12" viewBox="0 0 12 12" fill="none" xmlns="http://www.w3.org/2000/svg">
<path d="M-0.000144958 6.00638C-0.00113392 5.83609 0.048584 5.66936 0.142672 5.52745C0.236759 5.38554 0.370953 5.27488 0.528144 5.20958C0.685336 5.14428 0.858402 5.1273 1.02528 5.16079C1.19216 5.19429 1.34528 5.27675 1.46514 5.39766L5.9981 9.94162L10.5311 5.39766C10.695 5.2572 10.9058 5.18381 11.1215 5.19214C11.3372 5.20048 11.5417 5.28993 11.6943 5.44262C11.8469 5.59531 11.9363 5.79999 11.9447 6.01576C11.953 6.23154 11.8796 6.44251 11.7393 6.60652L6.59792 11.7506C6.43737 11.9103 6.22019 11.9999 5.99381 11.9999C5.76743 11.9999 5.55025 11.9103 5.3897 11.7506L0.248355 6.60652C0.0900488 6.44683 0.00080204 6.2313 -0.000144958 6.00638Z" fill="#7444FD"/>
<path d="M1.43051e-05 0.862337C-0.000974655 0.692046 0.0487432 0.525318 0.142831 0.383409C0.236918 0.241501 0.371112 0.130842 0.528304 0.0655401C0.685495 0.000238442 0.858562 -0.016747 1.02544 0.0167494C1.19232 0.0502458 1.34544 0.132706 1.4653 0.253618L5.99825 4.79758L10.5312 0.253618C10.6926 0.0921755 10.9114 0.00147809 11.1396 0.0014781C11.3678 0.0014781 11.5866 0.0921755 11.748 0.253618C11.9094 0.41506 12 0.634023 12 0.862337C12 1.09065 11.9094 1.30961 11.748 1.47106L6.60665 6.61516C6.4461 6.77484 6.22892 6.86447 6.00254 6.86447C5.77616 6.86447 5.55898 6.77484 5.39843 6.61516L0.257081 1.47106C0.176115 1.39165 0.111704 1.29696 0.0675774 1.19247C0.0234499 1.08798 0.00048542 0.97577 1.43051e-05 0.862337Z" fill="#7444FD"/>
</svg>
