<svg width="16" height="17" viewBox="0 0 16 17" fill="none" xmlns="http://www.w3.org/2000/svg">
<g clip-path="url(#clip0_10_82)">
<path d="M8.34093 16.1388C3.06787 16.1388 1.659 10.6419 2.29584 7.04041C2.32356 6.88366 2.52903 6.83851 2.61856 6.97013C2.89581 7.37763 3.14253 7.96623 3.55131 7.91513C4.16571 7.83832 4.59137 2.41682 8.23278 0.89135C8.34834 0.842944 8.46925 0.934788 8.45656 1.05941C8.2765 2.82607 9.33721 5.35529 11.2164 5.35529C12.2937 5.35529 13.0307 4.49554 13.3991 3.6321C13.5109 3.36982 13.8942 3.40288 13.9583 3.68073C14.6155 6.52704 16.3724 16.1388 8.34093 16.1388Z" fill="#FF8F1F"/>
<path d="M6.49236 10.8383C6.61636 10.7341 6.80462 10.8056 6.83277 10.9651C6.89865 11.3384 7.11527 11.9798 7.82583 11.9798C8.68058 11.9798 9.26065 9.62777 9.41277 8.93605C9.4378 8.82224 9.54871 8.74496 9.6629 8.76818C11.799 9.20249 12.8376 16.1387 8.14093 16.1387C4.7218 16.1387 5.4964 11.675 6.49236 10.8383ZM12.3293 3.32668C12.4046 2.73786 11.3297 4.34833 11.3297 4.34833C11.3297 4.34833 12.1491 4.7354 12.3293 3.32668ZM1.49883 12.108C1.52149 11.8573 1.19902 11.1862 1.14193 11.4519C1.00527 12.0877 1.47618 12.3587 1.49883 12.108Z" fill="#FFB636"/>
<path d="M10.0993 11.3936C10.0192 11.0596 9.73192 11.8355 9.76801 12.1516C9.80411 12.4676 10.2909 12.1929 10.0993 11.3936Z" fill="#FFD469"/>
</g>
<defs>
<clipPath id="clip0_10_82">
<rect width="16" height="16" fill="white" transform="translate(0 0.5)"/>
</clipPath>
</defs>
</svg>
