<svg width="16" height="12" viewBox="0 0 16 12" fill="none" xmlns="http://www.w3.org/2000/svg">
<path opacity="0.944" fill-rule="evenodd" clip-rule="evenodd" d="M1.38552 0.00582789C2.79659 -0.0103269 4.20643 0.00710381 5.61499 0.0581199C5.81158 0.111447 5.99389 0.192789 6.1619 0.302149C6.51327 0.603216 6.85356 0.916968 7.18281 1.24341C7.32847 1.33042 7.48645 1.3885 7.6568 1.41771C9.39613 1.41855 11.1341 1.4418 12.8707 1.48744C13.4578 1.68855 13.8285 2.07785 13.9828 2.65529C14.001 3.0851 14.0071 3.51504 14.001 3.94516C14.8686 3.83395 15.4945 4.14771 15.8787 4.88642C16.0272 5.24298 16.0393 5.6032 15.9152 5.96712C15.3561 7.66372 14.7971 9.36028 14.238 11.0569C13.9846 11.5893 13.5532 11.8972 12.9436 11.9807C9.02908 12.0151 5.11562 12.0035 1.20321 11.9458C0.573331 11.7736 0.178335 11.3843 0.0182314 10.778C-0.00607713 7.594 -0.00607713 4.40997 0.0182314 1.22598C0.213049 0.545656 0.668811 0.138939 1.38552 0.00582789ZM1.45844 0.598471C2.75893 0.59266 4.05938 0.598471 5.35976 0.615902C5.5153 0.653796 5.66114 0.711896 5.79729 0.790209C6.15209 1.15277 6.52884 1.48977 6.92758 1.80119C7.13183 1.91278 7.3506 1.9825 7.58388 2.01036C9.26108 2.02197 10.9383 2.03361 12.6155 2.04522C13.1043 2.1757 13.3656 2.48363 13.3994 2.96904C13.4176 3.2942 13.4237 3.61959 13.4176 3.94516C9.91734 3.93934 6.41709 3.94516 2.91688 3.96259C2.36136 4.06383 1.96638 4.36015 1.7319 4.85156C1.34777 5.98821 0.97101 7.12703 0.601606 8.26797C0.577298 6.00198 0.577298 3.73599 0.601606 1.47001C0.683282 0.991135 0.968892 0.700622 1.45844 0.598471ZM2.9898 4.53781C6.85469 4.53198 10.7196 4.53781 14.5844 4.55524C15.069 4.68764 15.3364 4.9956 15.3865 5.47906C14.8196 7.29858 14.2302 9.11137 13.6182 10.9174C13.4528 11.1737 13.2158 11.3305 12.9072 11.3881C9.09092 11.4113 5.2747 11.4113 1.45844 11.3881C0.745441 11.1826 0.484137 10.7352 0.674528 10.0459C1.22144 8.38416 1.76836 6.72246 2.31527 5.06073C2.46279 4.79041 2.68765 4.6161 2.9898 4.53781Z" fill="#7444FD"/>
</svg>
