<svg width="37" height="54" viewBox="0 0 37 54" fill="none" xmlns="http://www.w3.org/2000/svg">
<g clip-path="url(#clip0_261_70)">
<path d="M18.6337 48.8016C20.1191 42.917 21.6044 36.8986 23.0897 31.014C23.3598 29.944 23.6299 28.8741 23.8999 27.9379C24.035 27.1355 24.5751 26.868 25.2502 27.2692C28.491 28.6066 31.5967 29.944 34.8374 31.2814C36.0527 31.8164 36.7279 32.8863 36.7279 34.2238C36.7279 40.3759 36.7279 46.528 36.7279 52.5464C36.7279 53.4826 36.3228 53.75 35.3776 53.75C24.035 53.75 12.8274 53.75 1.48481 53.75C0.539593 53.75 0.269531 53.3488 0.269531 52.5464C0.269531 46.2605 0.269531 39.9747 0.269531 33.6888C0.269531 32.3514 0.944686 31.2814 2.29499 30.7465C5.4007 29.5428 8.50641 28.3391 11.6121 27.1355C12.5573 26.7342 12.8274 27.0017 13.0975 28.2054C14.7178 34.625 16.3382 41.1783 17.9586 47.5979C18.0936 47.9992 18.2286 48.4004 18.2286 48.8016C18.4987 48.8016 18.4987 48.8016 18.6337 48.8016ZM17.2834 51.8777C15.393 44.2544 13.5026 36.6311 11.6121 29.0078C8.91151 30.0778 6.21089 31.014 3.6453 31.9502C2.56506 32.3514 2.02493 33.0201 2.02493 34.2238C2.02493 39.7072 2.02493 45.3243 2.02493 50.8077C2.02493 51.209 2.02493 51.4764 2.02493 51.8777C7.1561 51.8777 12.1522 51.8777 17.2834 51.8777ZM19.5789 51.8777C24.7101 51.8777 29.7063 51.8777 34.7024 51.8777C34.7024 51.7439 34.8374 51.6102 34.8374 51.4764C34.8374 45.5918 34.8374 39.8409 34.8374 33.9563C34.8374 33.5551 34.4323 32.8863 34.0272 32.7526C31.1916 31.4152 28.3559 30.2115 25.2502 29.0078C23.4948 36.7649 21.6044 44.2544 19.5789 51.8777Z" fill="white"/>
<path d="M7.96614 12.1564C7.69607 9.21406 8.50626 6.27174 10.6668 3.86439C13.5024 0.788337 17.8234 -0.415337 21.8743 1.05582C25.9252 2.39324 28.7609 6.138 28.8959 10.4177C28.8959 12.5576 29.031 14.6975 28.4908 16.7036C27.4106 21.652 22.4144 25.1293 17.5533 24.5943C12.1521 24.0594 8.10117 19.7796 7.96614 14.43C7.96614 13.7613 7.96614 13.0926 7.96614 12.1564ZM9.72154 12.5576C9.72154 13.0926 9.72154 13.7613 9.72154 14.2962C9.9916 18.9772 13.2323 22.4545 17.8234 22.8557C22.0093 23.2569 26.0603 20.3146 26.8705 16.1686C27.2756 14.1625 27.2755 12.1564 27.0055 10.0165C26.6004 5.73678 23.0896 2.39324 18.7686 2.25949C14.7177 1.99201 10.8018 4.93433 9.85657 9.08032C9.72154 10.1503 9.72154 11.3539 9.72154 12.5576Z" fill="white"/>
<path d="M21.8752 28.6066C21.7402 28.8741 21.6052 29.409 21.2001 29.8102C20.6599 30.6127 20.3899 31.4151 20.5249 32.4851C20.5249 32.7526 20.5249 33.1538 20.6599 33.4213C21.3351 35.6949 20.6599 37.8347 19.7147 39.8409C19.4447 40.2421 18.9045 40.7771 18.4994 40.7771C18.0943 40.7771 17.5542 40.2421 17.2842 39.8409C15.9339 37.5673 15.9339 35.0262 16.474 32.4851C16.744 31.5489 16.474 30.6127 15.7988 29.8102C15.2587 29.0078 14.8536 28.2053 15.3937 27.2692C15.9339 26.333 16.8791 26.1992 17.8243 26.1992C18.4994 26.1992 19.3096 26.1992 19.9848 26.1992C21.065 26.333 21.8752 27.2692 21.8752 28.6066ZM18.4994 37.9685C19.3096 36.7648 19.1746 35.5611 19.0396 34.3575C18.6345 32.2176 18.4994 30.2115 20.1198 28.4728C20.2548 28.3391 20.1198 28.2053 20.2548 28.0716C19.1746 28.0716 18.0943 28.0716 16.744 28.0716C17.0141 28.6066 17.2842 28.874 17.4192 29.1415C17.6893 30.2115 18.0943 31.1477 18.2294 32.2176C18.3644 33.02 18.0943 33.8225 17.9593 34.6249C17.6893 35.9624 17.6893 37.0323 18.4994 37.9685Z" fill="white"/>
</g>
<defs>
<clipPath id="clip0_261_70">
<rect width="36.4583" height="53.2292" fill="white" transform="translate(0.269531 0.520874)"/>
</clipPath>
</defs>
</svg>
