<svg width="50" height="42" viewBox="0 0 50 42" fill="none" xmlns="http://www.w3.org/2000/svg">
<g clip-path="url(#clip0_261_77)">
<path d="M30.6903 29.6992C31.5867 29.585 32.3711 29.4708 33.1555 29.4708C33.8278 29.4708 34.1639 29.2424 34.388 28.6715C36.1808 23.5333 37.9736 18.3951 39.7665 13.2569C39.8785 12.9143 39.9906 12.4576 40.2147 12.115C37.0772 9.37464 36.2929 6.40589 37.9736 3.43714C39.4303 0.810943 42.6798 -0.330884 45.369 0.69676C48.1703 1.7244 49.739 4.69315 49.1787 7.6619C48.5064 10.9732 46.0413 12.8001 42.1195 12.6859C42.0075 13.1427 41.7834 13.5994 41.5593 14.1703C39.7665 19.1944 37.9736 24.3326 36.1808 29.3566C35.9567 29.9275 35.9567 30.1559 36.517 30.6126C39.4303 32.8963 39.8785 36.7785 37.7495 39.5189C35.5085 42.2593 31.5867 42.6018 29.0096 40.3182C26.3204 37.9203 26.2083 33.9239 28.6734 31.1835C28.7855 31.0694 28.8975 30.9552 29.0096 30.841C28.8975 30.6126 28.7855 30.2701 28.5614 30.0417C25.8722 25.4744 23.1829 20.9071 20.4937 16.3398C20.1576 15.7689 19.9335 15.5405 19.1491 15.7689C18.2527 15.9972 17.3563 15.9972 16.4599 15.7689C15.8996 15.6547 15.6755 15.8831 15.4514 16.3398C13.8827 19.4227 12.314 22.6198 10.6332 25.7028C10.2971 26.2737 10.2971 26.6162 10.8573 27.1871C12.8743 29.2424 13.2104 32.3254 11.7537 34.8374C10.2971 37.2352 7.49581 38.377 4.80659 37.5778C2.11737 36.7785 0.324559 34.1523 0.43661 31.2977C0.548661 27.5297 4.02224 24.7893 7.83197 25.4744C8.05607 25.4744 8.16812 25.5886 8.50427 25.5886C10.4091 21.9347 12.2019 18.3951 14.1068 14.7412C12.6502 13.4852 11.7537 11.8867 11.7537 9.94556C11.7537 7.09099 13.4345 4.69315 16.0117 3.89388C18.5888 3.0946 21.3901 4.12224 22.8468 6.4059C24.4155 8.68955 24.1914 11.7725 22.3986 13.942C21.8383 14.5129 21.8383 14.9696 22.2865 15.5405C25.0878 20.1078 27.8891 24.9035 30.6903 29.6992ZM21.8383 9.71719C21.8383 7.43354 20.0455 5.60662 17.8045 5.49243C15.5635 5.49243 13.7707 7.31936 13.6586 9.60301C13.6586 11.8867 15.4514 13.7136 17.6924 13.8278C19.9335 13.8278 21.8383 12.0008 21.8383 9.71719ZM47.2739 6.52008C47.2739 4.23642 45.4811 2.4095 43.24 2.4095C40.999 2.4095 39.2062 4.23642 39.2062 6.52008C39.2062 8.80373 40.999 10.6307 43.24 10.6307C45.4811 10.7448 47.2739 8.80373 47.2739 6.52008ZM10.6332 31.5261C10.6332 29.2424 8.84042 27.4155 6.59941 27.4155C4.35839 27.4155 2.56558 29.2424 2.56558 31.5261C2.56558 33.8097 4.35839 35.6367 6.59941 35.6367C8.72837 35.6367 10.6332 33.8097 10.6332 31.5261ZM33.0434 39.7472C35.2844 39.7472 37.0772 37.9203 37.1893 35.6367C37.1893 33.353 35.3965 31.5261 33.1555 31.5261C30.9144 31.5261 29.1216 33.353 29.0096 35.6367C28.8975 37.8061 30.8024 39.7472 33.0434 39.7472Z" fill="white"/>
</g>
<defs>
<clipPath id="clip0_261_77">
<rect x="0.4375" y="0.354248" width="48.8542" height="41.5625" rx="6" fill="white"/>
</clipPath>
</defs>
</svg>
