<svg width="49" height="49" viewBox="0 0 49 49" fill="none" xmlns="http://www.w3.org/2000/svg">
<g clip-path="url(#clip0_261_64)">
<path d="M22.9483 26.0217C23.8401 26.0217 24.5833 26.0217 25.3266 26.0217C30.8078 26.0217 36.289 26.0217 41.7516 26.0217C43.238 26.0217 43.461 26.2816 43.3867 27.7848C42.7735 38.1776 35.6573 46.1764 25.4009 47.9766C14.3456 49.9252 3.10444 42.0935 1.09776 31.014C-1.03898 19.285 6.24453 8.42817 17.913 6.01555C19.065 5.77429 20.2355 5.70005 21.4061 5.60726C22.651 5.51447 22.9297 5.81141 22.9483 7.07339C22.9483 12.975 22.9483 18.8767 22.9483 24.7783C22.9483 25.168 22.9483 25.5392 22.9483 26.0217ZM21.1646 7.48168C12.469 7.50024 2.77 15.035 2.47271 26.5599C2.21258 37.5652 11.6328 46.8631 22.5953 46.4548C34.1894 46.0279 41.5286 36.2104 41.4915 27.8034C41.157 27.8034 40.8226 27.8034 40.4881 27.8034C34.5424 27.8034 28.5967 27.8034 22.651 27.8034C21.3689 27.8034 21.146 27.5621 21.146 26.2816C21.146 20.3428 21.146 14.404 21.146 8.46529C21.1646 8.14979 21.1646 7.81574 21.1646 7.48168Z" fill="white"/>
<path d="M37.0885 22.9225C33.9299 22.9225 30.7712 22.9225 27.6125 22.9225C26.2562 22.9225 26.0332 22.6998 26.0332 21.3635C26.0332 14.9979 26.0332 8.63233 26.0332 2.26673C26.0332 0.911948 26.2562 0.689244 27.594 0.726362C37.9432 0.893389 47.0662 9.2262 48.1067 19.5077C48.181 20.1758 48.2367 20.8625 48.2553 21.5306C48.2925 22.6441 48.0138 22.9225 46.9175 22.9225C44.6507 22.941 42.4025 22.9225 40.1357 22.9225C39.1324 22.9225 38.1104 22.9225 37.0885 22.9225ZM46.4159 21.1037C46.1186 10.3954 36.5869 2.50799 27.8727 2.6379C27.8727 8.7808 27.8727 14.9051 27.8727 21.0852C34.0599 21.1037 40.21 21.1037 46.4159 21.1037Z" fill="white"/>
</g>
<defs>
<clipPath id="clip0_261_64">
<rect x="0.726562" y="0.72644" width="47.5472" height="47.5472" rx="6" fill="white"/>
</clipPath>
</defs>
</svg>
