<svg width="30" height="30" viewBox="0 0 30 30" fill="none" xmlns="http://www.w3.org/2000/svg">
<g clip-path="url(#clip0_76_208)">
<path opacity="0.932" fill-rule="evenodd" clip-rule="evenodd" d="M-0.0292969 11.8654C-0.0292969 11.299 -0.0292969 10.7326 -0.0292969 10.1662C0.389827 7.75697 1.69842 6.00894 3.89648 4.92203C6.60943 3.86715 9.0508 4.29685 11.2207 6.21109C12.7719 7.91511 13.475 9.92681 13.3301 12.2462C13.2372 17.4499 11.3232 21.8444 7.58789 25.4298C7.3677 25.5979 7.13332 25.6175 6.88477 25.4884C6.09691 24.7006 5.3059 23.9096 4.51172 23.1154C4.47649 23.0195 4.4472 22.9219 4.42383 22.8224C4.92289 22.0198 5.36234 21.18 5.74219 20.3029C6.08977 19.4739 6.23625 18.6145 6.18164 17.7248C2.72157 17.2332 0.651258 15.2801 -0.0292969 11.8654ZM6.00586 5.36148C8.62957 5.26166 10.5339 6.37492 11.7188 8.70133C12.0425 9.44963 12.2378 10.2309 12.3047 11.0451C12.5536 16.2571 10.8544 20.7102 7.20703 24.4045C6.6593 23.8665 6.12223 23.3196 5.5957 22.7638C6.55588 21.3386 7.10273 19.7663 7.23633 18.047C7.20885 17.7018 7.15998 17.36 7.08984 17.0216C7.04104 16.8947 6.95314 16.8068 6.82617 16.758C4.26025 16.6627 2.43407 15.4615 1.34766 13.1545C0.511922 10.6478 1.04903 8.48957 2.95898 6.67984C3.86047 5.96517 4.8761 5.5257 6.00586 5.36148Z" fill="#7444FD"/>
<path opacity="0.933" fill-rule="evenodd" clip-rule="evenodd" d="M29.9707 10.8692C29.9707 11.7872 29.9707 12.7051 29.9707 13.6231C29.5068 18.2714 27.5928 22.2069 24.2285 25.4298C24.0551 25.5663 23.8598 25.6053 23.6426 25.547C22.7947 24.7576 21.9646 23.9471 21.1523 23.1153C21.1288 23.0349 21.0995 22.9568 21.0645 22.8809C21.6026 21.9608 22.0812 21.0038 22.5 20.0099C22.7852 19.2705 22.8927 18.5088 22.8223 17.7247C19.5121 17.2953 17.4711 15.4593 16.6992 12.2169C16.3056 8.95099 17.5459 6.53886 20.4199 4.98056C23.1291 3.86634 25.5901 4.25697 27.8027 6.15243C29.0578 7.48081 29.7805 9.05306 29.9707 10.8692ZM22.6465 5.36141C25.8397 5.30282 27.8807 6.80675 28.7695 9.87313C29.4661 15.518 27.8255 20.3617 23.8477 24.4044C23.2999 23.8664 22.7629 23.3196 22.2363 22.7638C23.2151 21.312 23.7619 19.7104 23.877 17.9591C23.8725 17.6393 23.8236 17.3267 23.7305 17.0216C23.6817 16.8946 23.5938 16.8067 23.4668 16.7579C20.9603 16.663 19.1536 15.5009 18.0469 13.2716C17.1434 10.8019 17.6219 8.64372 19.4824 6.79696C20.4028 6.01438 21.4575 5.53584 22.6465 5.36141Z" fill="#7444FD"/>
</g>
<defs>
<clipPath id="clip0_76_208">
<rect width="30" height="30" fill="white"/>
</clipPath>
</defs>
</svg>
