<svg width="41" height="41" viewBox="0 0 41 41" fill="none" xmlns="http://www.w3.org/2000/svg">
<path d="M39.9947 8.82622L39.0686 8.58865C38.9658 8.26016 38.8335 7.9416 38.6735 7.63685L39.1593 6.81654C39.2257 6.70449 39.2528 6.57353 39.2364 6.44434C39.2201 6.31515 39.1612 6.19509 39.069 6.1031L37.7641 4.80123C37.6722 4.70955 37.5525 4.65097 37.4238 4.6347C37.295 4.61842 37.1645 4.64537 37.0527 4.71131L36.2289 5.19701C35.9228 5.03689 35.603 4.90466 35.2732 4.80193L35.0353 3.87865C35.0028 3.75282 34.9295 3.64134 34.8268 3.56174C34.7241 3.48215 34.5978 3.43896 34.4678 3.43896H32.6225C32.4925 3.43896 32.3662 3.48215 32.2635 3.56174C32.1608 3.64134 32.0875 3.75282 32.055 3.87865L31.8171 4.80193C31.4873 4.90466 31.1675 5.03689 30.8614 5.19701L30.0376 4.71131C29.9258 4.64541 29.7953 4.61848 29.6666 4.63476C29.5378 4.65103 29.4181 4.70958 29.3262 4.80123L28.0213 6.1031C27.9291 6.19509 27.8702 6.31515 27.8538 6.44434C27.8375 6.57353 27.8646 6.70449 27.931 6.81654L28.4168 7.63685C28.2568 7.94161 28.1246 8.26016 28.0217 8.58865L27.0956 8.82622C26.9696 8.85855 26.858 8.93186 26.7782 9.03462C26.6985 9.13738 26.6553 9.26375 26.6553 9.3938V11.2349C26.6553 11.365 26.6985 11.4913 26.7782 11.5941C26.858 11.6968 26.9696 11.7701 27.0956 11.8025L28.0217 12.04C28.1245 12.3685 28.2568 12.6871 28.4168 12.9918L27.931 13.8122C27.8646 13.9242 27.8375 14.0552 27.8538 14.1844C27.8702 14.3135 27.9291 14.4336 28.0213 14.5256L29.3262 15.8275C29.4181 15.9191 29.5378 15.9777 29.6665 15.994C29.7953 16.0102 29.9258 15.9833 30.0376 15.9174L30.8614 15.4317C31.1674 15.5918 31.4873 15.724 31.8171 15.8268L32.055 16.75C32.0875 16.8759 32.1608 16.9874 32.2635 17.067C32.3662 17.1465 32.4925 17.1897 32.6225 17.1897H34.4678C34.5978 17.1897 34.7241 17.1465 34.8268 17.067C34.9295 16.9874 35.0028 16.8759 35.0353 16.75L35.2732 15.8268C35.603 15.724 35.9229 15.5918 36.2289 15.4317L37.0527 15.9174C37.1645 15.9833 37.295 16.0102 37.4237 15.994C37.5525 15.9777 37.6722 15.9191 37.7641 15.8275L39.069 14.5256C39.1612 14.4336 39.2201 14.3135 39.2364 14.1844C39.2528 14.0552 39.2257 13.9242 39.1593 13.8122L38.6735 12.9918C38.8335 12.6871 38.9657 12.3685 39.0686 12.04L39.9947 11.8025C40.1207 11.7701 40.2323 11.6968 40.312 11.5941C40.3918 11.4913 40.435 11.365 40.435 11.2349V9.3938C40.435 9.26375 40.3918 9.13738 40.312 9.03462C40.2323 8.93186 40.1207 8.85855 39.9947 8.82622ZM39.2631 10.7804L38.4499 10.989C38.3473 11.0153 38.2538 11.069 38.1792 11.1442C38.1047 11.2195 38.0519 11.3136 38.0266 11.4165C37.9157 11.8671 37.7367 12.2982 37.4957 12.6949C37.4406 12.7856 37.4112 12.8896 37.4107 12.9958C37.4101 13.1019 37.4383 13.2062 37.4924 13.2975L37.9189 14.0175L37.2573 14.6776L36.5334 14.2508C36.4423 14.1972 36.3384 14.1691 36.2326 14.1697C36.1269 14.1703 36.0233 14.1994 35.9328 14.2541C35.5347 14.4947 35.1024 14.6735 34.6506 14.7841C34.5477 14.8093 34.4536 14.862 34.3782 14.9364C34.3029 15.0109 34.2491 15.1044 34.2227 15.207L34.0137 16.0179H33.0764L32.8675 15.207C32.841 15.1044 32.7873 15.0109 32.7119 14.9364C32.6366 14.862 32.5425 14.8093 32.4396 14.7841C31.9878 14.6734 31.5554 14.4947 31.1574 14.2541C31.0669 14.1994 30.9633 14.1703 30.8575 14.1697C30.7518 14.1691 30.6479 14.1971 30.5568 14.2508L29.8328 14.6776L29.1712 14.0175L29.5977 13.2975C29.6518 13.2062 29.6801 13.1019 29.6795 12.9958C29.6789 12.8896 29.6495 12.7856 29.5944 12.6949C29.3534 12.2982 29.1744 11.8671 29.0636 11.4165C29.0382 11.3136 28.9855 11.2195 28.9109 11.1442C28.8364 11.069 28.7428 11.0153 28.6402 10.989L27.827 10.7804V9.84841L28.6402 9.63982C28.7428 9.61348 28.8364 9.55981 28.9109 9.48454C28.9855 9.40926 29.0382 9.31519 29.0636 9.21232C29.1745 8.76165 29.3535 8.33055 29.5944 7.93388C29.6495 7.84315 29.6789 7.73915 29.6795 7.63301C29.6801 7.52686 29.6518 7.42255 29.5977 7.33123L29.1712 6.61123L29.8328 5.95115L30.5568 6.37795C30.6479 6.43163 30.7518 6.45967 30.8575 6.45909C30.9633 6.45852 31.0669 6.42934 31.1574 6.37467C31.5554 6.13403 31.9878 5.95532 32.4396 5.84467C32.5425 5.81944 32.6366 5.7668 32.7119 5.69233C32.7873 5.61786 32.841 5.52436 32.8675 5.42178L33.0764 4.61084H34.0137L34.2227 5.42178C34.2491 5.52436 34.3029 5.61786 34.3782 5.69233C34.4536 5.7668 34.5477 5.81944 34.6506 5.84467C35.1024 5.9553 35.5347 6.13401 35.9328 6.37467C36.0233 6.42934 36.1269 6.45852 36.2326 6.45909C36.3384 6.45967 36.4423 6.43163 36.5334 6.37795L37.2573 5.95115L37.9189 6.61123L37.4924 7.33123C37.4383 7.42255 37.4101 7.52686 37.4107 7.63301C37.4112 7.73915 37.4406 7.84315 37.4957 7.93388C37.7367 8.33054 37.9157 8.76165 38.0266 9.21232C38.0519 9.31519 38.1047 9.40926 38.1792 9.48454C38.2538 9.55981 38.3473 9.61348 38.4499 9.63982L39.2631 9.84841V10.7804Z" fill="white"/>
<path d="M35.5448 8.57183C35.4772 8.6085 35.4174 8.65813 35.3689 8.7179C35.3205 8.77767 35.2843 8.8464 35.2624 8.92016C35.2405 8.99393 35.2333 9.07129 35.2413 9.14782C35.2493 9.22435 35.2723 9.29855 35.309 9.3662C36.0365 10.6599 35.0329 12.3374 33.545 12.3121C31.129 12.2539 30.8031 8.87003 33.1612 8.35386C33.2368 8.33927 33.3087 8.30994 33.3729 8.26755C33.4371 8.22516 33.4924 8.17053 33.5355 8.10679C33.5786 8.04305 33.6087 7.97145 33.6241 7.89606C33.6395 7.82068 33.64 7.743 33.6254 7.66745C33.6108 7.59189 33.5815 7.51995 33.5391 7.45572C33.4967 7.3915 33.4421 7.33626 33.3783 7.29315C33.3146 7.25005 33.243 7.21993 33.1676 7.20451C33.0922 7.1891 33.0145 7.18869 32.939 7.20331C29.1992 8.02183 29.7151 13.3913 33.545 13.484C35.914 13.513 37.4911 10.8737 36.339 8.80768C36.3024 8.74004 36.2528 8.68027 36.193 8.6318C36.1333 8.58334 36.0645 8.54712 35.9908 8.52521C35.917 8.50331 35.8397 8.49615 35.7632 8.50415C35.6866 8.51215 35.6124 8.53515 35.5448 8.57183ZM31.0597 20.2037H29.3351C27.9297 17.4197 25.6515 15.2223 22.8336 13.9213C27.6135 8.95261 24.0194 0.475507 17.052 0.496132C10.085 0.475428 6.49039 8.95393 11.2707 13.9213C8.45281 15.2224 6.17453 17.4198 4.76922 20.2038H3.04454C1.48977 20.2038 0.233367 21.6504 0.463914 23.1943L2.28844 35.4134C2.38368 36.0513 2.71227 36.61 3.17875 37.0077C1.85751 38.2306 2.72704 40.4977 4.55532 40.4961H29.549C31.3679 40.5006 32.2528 38.2323 30.9255 37.0076C31.392 36.6099 31.7206 36.0512 31.8158 35.4134L33.6404 23.1943C33.87 21.6553 32.6194 20.2037 31.0597 20.2037ZM17.0521 1.66801C20.799 1.66801 23.8473 4.71144 23.8473 8.45237C23.5058 17.4403 10.5969 17.4378 10.2568 8.45229C10.2569 4.71144 13.3052 1.66801 17.0521 1.66801ZM12.2287 14.7809C14.8983 16.9289 19.2062 16.9287 21.8755 14.7809C24.483 15.8608 26.6252 17.7599 28.0066 20.2037H6.09766C7.47906 17.7599 9.62125 15.8609 12.2287 14.7809ZM32.4812 23.0213L30.6567 35.2404C30.5526 35.9375 29.9415 36.4632 29.2351 36.4632H9.81101C9.05343 36.4632 9.05343 37.6351 9.81101 37.6351H29.549C30.0144 37.6351 30.3931 38.0137 30.3931 38.4801C30.3931 38.9455 30.0144 39.3242 29.549 39.3242H4.55524C3.44289 39.2845 3.43149 37.6794 4.55524 37.6351H6.69117C7.44875 37.6351 7.44875 36.4632 6.69117 36.4632H4.86906C4.16274 36.4632 3.55157 35.9375 3.4475 35.2404L1.62305 23.0213C1.49516 22.1652 2.18024 21.3756 3.04461 21.3756H31.0597C31.924 21.3756 32.6091 22.1652 32.4812 23.0213Z" fill="white"/>
<path d="M17.0522 25.3677C15.0913 25.3677 13.4961 26.961 13.4961 28.9194C13.6748 33.6247 20.4303 33.6234 20.6083 28.9193C20.6083 26.961 19.013 25.3677 17.0522 25.3677ZM17.0522 31.2992C15.7375 31.2992 14.668 30.2317 14.668 28.9195C14.7877 25.7667 19.3171 25.7675 19.4364 28.9195C19.4364 30.2317 18.3669 31.2992 17.0522 31.2992Z" fill="white"/>
</svg>
