<svg width="40" height="40" viewBox="0 0 40 40" fill="none" xmlns="http://www.w3.org/2000/svg">
<path d="M39.4531 16.3281H36.445C36.0248 14.4251 35.2738 12.6106 34.2262 10.9672L36.3512 8.84219C36.4021 8.79143 36.4424 8.73114 36.4699 8.66479C36.4974 8.59843 36.5116 8.5273 36.5116 8.45547C36.5116 8.38364 36.4974 8.31251 36.4699 8.24615C36.4424 8.1798 36.4021 8.11951 36.3512 8.06875L31.9325 3.64813C31.8299 3.54563 31.6908 3.48806 31.5458 3.48806C31.4008 3.48806 31.2617 3.54563 31.1591 3.64813L29.0341 5.77313C27.3906 4.72561 25.5761 3.97463 23.6731 3.55438V0.546876C23.6731 0.474954 23.6589 0.403739 23.6314 0.337307C23.6038 0.270876 23.5634 0.210533 23.5125 0.159735C23.4616 0.108936 23.4012 0.0686799 23.3347 0.0412705C23.2682 0.0138611 23.1969 -0.000162964 23.125 1.4287e-06H16.875C16.73 8.42234e-05 16.5909 0.0577278 16.4884 0.160269C16.3859 0.26281 16.3282 0.401862 16.3281 0.546876V3.55531C14.425 3.97554 12.6104 4.72651 10.9669 5.77406L8.84188 3.64906C8.73927 3.54657 8.60018 3.489 8.45516 3.489C8.31013 3.489 8.17104 3.54657 8.06844 3.64906L3.64813 8.0675C3.54563 8.1701 3.48806 8.3092 3.48806 8.45422C3.48806 8.59924 3.54563 8.73834 3.64813 8.84094L5.77313 10.9659C4.72572 12.6095 3.97476 14.4241 3.55438 16.3272H0.546875C0.474991 16.3272 0.40382 16.3414 0.337427 16.369C0.271035 16.3965 0.210722 16.4369 0.159936 16.4878C0.10915 16.5387 0.0688856 16.599 0.0414432 16.6655C0.0140007 16.7319 -8.17609e-05 16.8031 3.57073e-07 16.875V23.125C8.31518e-05 23.27 0.0577268 23.4091 0.160268 23.5116C0.262809 23.6142 0.401861 23.6718 0.546875 23.6719H3.555C3.97538 25.575 4.72635 27.3895 5.77375 29.0331L3.64875 31.1581C3.54626 31.2607 3.48868 31.3998 3.48868 31.5448C3.48868 31.6899 3.54626 31.829 3.64875 31.9316L8.06813 36.3509C8.17073 36.4534 8.30982 36.511 8.45484 36.511C8.59987 36.511 8.73896 36.4534 8.84156 36.3509L10.9666 34.2259C12.6101 35.2735 14.4247 36.0245 16.3278 36.4447V39.4531C16.3279 39.5982 16.3856 39.7373 16.4882 39.8398C16.5908 39.9424 16.7299 40 16.875 40H23.125C23.27 40 23.4091 39.9424 23.5117 39.8398C23.6143 39.7373 23.6719 39.5982 23.6719 39.4531V36.4447C25.5749 36.0244 27.3894 35.2735 29.0328 34.2259L31.1578 36.3509C31.2604 36.4534 31.3995 36.511 31.5445 36.511C31.6896 36.511 31.8286 36.4534 31.9312 36.3509L36.3506 31.9316C36.4015 31.8808 36.4418 31.8205 36.4693 31.7542C36.4968 31.6878 36.5109 31.6167 36.5109 31.5448C36.5109 31.473 36.4968 31.4019 36.4693 31.3355C36.4418 31.2692 36.4015 31.2089 36.3506 31.1581L34.2256 29.0331C35.2732 27.3897 36.0242 25.5752 36.4444 23.6722H39.4525C39.5244 23.6723 39.5956 23.6582 39.662 23.6307C39.7285 23.6032 39.7889 23.5629 39.8397 23.5121C39.8906 23.4613 39.9309 23.4009 39.9584 23.3345C39.9859 23.2681 40 23.1969 40 23.125V16.875C40 16.73 39.9424 16.5909 39.8398 16.4883C39.7373 16.3857 39.5982 16.3281 39.4531 16.3281ZM38.9062 22.5781H36C35.873 22.5781 35.75 22.6223 35.652 22.7031C35.5541 22.7839 35.4873 22.8963 35.4631 23.0209C35.0642 25.0889 34.2505 27.0546 33.0709 28.7994C33 28.9046 32.9679 29.0313 32.9801 29.1576C32.9923 29.284 33.048 29.4021 33.1378 29.4919L35.1919 31.5456L31.5456 35.1919L29.4919 33.1381C29.4022 33.0482 29.2841 32.9923 29.1577 32.9801C29.0313 32.9679 28.9046 33.0001 28.7994 33.0713C27.0545 34.2507 25.0887 35.0644 23.0206 35.4631C22.896 35.4874 22.7837 35.5542 22.703 35.6521C22.6223 35.7501 22.5781 35.8731 22.5781 36V38.9063H17.4219V36C17.4219 35.873 17.3777 35.75 17.2969 35.652C17.2161 35.5541 17.1037 35.4873 16.9791 35.4631C14.9111 35.0643 12.9455 34.2506 11.2006 33.0713C11.0954 33.0002 10.9687 32.9681 10.8424 32.9803C10.716 32.9925 10.5978 33.0483 10.5081 33.1381L8.45438 35.1916L4.80844 31.5456L6.86188 29.4919C6.95171 29.4022 7.00752 29.284 7.01972 29.1576C7.03193 29.0313 6.99976 28.9046 6.92875 28.7994C5.74939 27.0545 4.93573 25.0889 4.53688 23.0209C4.51271 22.8963 4.44592 22.7839 4.34796 22.7031C4.25 22.6223 4.12698 22.5781 4 22.5781H1.09375V17.4219H4C4.12698 17.4219 4.25 17.3777 4.34796 17.2969C4.44592 17.2161 4.51271 17.1037 4.53688 16.9791C4.93573 14.9111 5.74939 12.9455 6.92875 11.2006C6.99976 11.0954 7.03193 10.9687 7.01972 10.8424C7.00752 10.716 6.95171 10.5978 6.86188 10.5081L4.80844 8.45438L8.45438 4.80844L10.5081 6.86188C10.5978 6.95182 10.7159 7.0077 10.8423 7.01991C10.9687 7.03212 11.0954 6.99988 11.2006 6.92875C12.9455 5.74939 14.9111 4.93573 16.9791 4.53688C17.1037 4.51271 17.2161 4.44592 17.2969 4.34796C17.3777 4.25 17.4219 4.12698 17.4219 4V1.09375H22.5781V4C22.5781 4.12694 22.6223 4.24993 22.703 4.34788C22.7837 4.44583 22.896 4.51265 23.0206 4.53688C25.0887 4.93559 27.0545 5.74926 28.7994 6.92875C28.9046 6.9997 29.0313 7.03183 29.1576 7.01963C29.284 7.00743 29.4021 6.95166 29.4919 6.86188L31.5456 4.80813L35.1919 8.45438L33.1378 10.5081C33.048 10.5979 32.9923 10.716 32.9801 10.8424C32.9679 10.9687 33 11.0954 33.0709 11.2006C34.2505 12.9454 35.0642 14.9111 35.4631 16.9791C35.4873 17.1037 35.5541 17.2161 35.652 17.2969C35.75 17.3777 35.873 17.4219 36 17.4219H38.9062V22.5781Z" fill="#7444FD"/>
<path d="M20.0002 7.6781C17.5631 7.67754 15.1806 8.39971 13.1539 9.75327C11.1273 11.1068 9.54758 13.031 8.61455 15.2824C7.68152 17.5338 7.43709 20.0113 7.91218 22.4016C8.38726 24.792 9.56053 26.9877 11.2836 28.7112C13.0066 30.4347 15.2021 31.6085 17.5923 32.0842C19.9825 32.5599 22.4601 32.3161 24.7117 31.3837C26.9634 30.4512 28.8879 28.872 30.242 26.8457C31.5961 24.8194 32.3188 22.4371 32.3189 20C32.3156 16.7336 31.0168 13.6018 28.7074 11.2919C26.398 8.98186 23.2666 7.68224 20.0002 7.6781ZM19.4533 31.2094C18.9224 31.1836 18.394 31.1203 17.872 31.0197V17.5984H19.4533V31.2094ZM20.547 17.5997H22.1283V31.0184C21.6064 31.119 21.0779 31.1824 20.547 31.2081V17.5997ZM22.1283 16.5059H17.872V15.5812L20.0002 12.5981L22.1283 15.5812V16.5059ZM23.222 30.7559V15.4062C23.2221 15.2923 23.1865 15.1813 23.1202 15.0887L20.4455 11.3387C20.3924 11.2714 20.3247 11.217 20.2476 11.1796C20.1705 11.1422 20.0859 11.1228 20.0002 11.1228C19.9144 11.1228 19.8298 11.1422 19.7527 11.1796C19.6756 11.217 19.6079 11.2714 19.5548 11.3387L16.8798 15.0887C16.8138 15.1814 16.7783 15.2924 16.7783 15.4062V30.7531C14.1967 29.9796 11.9796 28.3031 10.532 26.03C9.08444 23.7568 8.50297 21.0387 8.89387 18.3723C9.28476 15.7058 10.6219 13.269 12.6611 11.507C14.7002 9.74499 17.3052 8.77542 20.0002 8.77542C22.6951 8.77542 25.3001 9.74499 27.3393 11.507C29.3784 13.269 30.7156 15.7058 31.1065 18.3723C31.4974 21.0387 30.9159 23.7568 29.4683 26.03C28.0207 28.3031 25.8036 29.9796 23.222 30.7531V30.7559Z" fill="#7444FD"/>
</svg>
