<svg width="40" height="40" viewBox="0 0 40 40" fill="none" xmlns="http://www.w3.org/2000/svg">
<g clip-path="url(#clip0_4005_180)">
<path opacity="0.966" fill-rule="evenodd" clip-rule="evenodd" d="M16.5236 0.585968C19.3909 0.54993 22.2554 0.588992 25.1173 0.703156C27.4327 1.29973 29.0082 2.71899 29.8439 4.96097C30.2652 6.25645 30.2912 7.55854 29.922 8.86722C29.4292 10.2678 28.9214 11.661 28.3986 13.0469C30.0804 13.3484 30.7965 14.351 30.547 16.0547C30.3736 16.5704 30.0741 17.0001 29.6486 17.3438C28.9064 17.9297 28.1642 18.5157 27.422 19.1016C27.0654 20.2365 26.6096 21.3303 26.0548 22.3828C28.0074 22.4479 29.9605 22.487 31.9142 22.5C33.1772 22.8256 33.9714 23.6198 34.297 24.8828C34.31 25.9515 34.3491 27.0192 34.4142 28.086C37.1763 29.3514 38.8039 31.4868 39.297 34.4922C39.3491 36.0026 39.3491 37.5131 39.297 39.0235C39.2678 39.095 39.2287 39.1602 39.1798 39.2188C32.7799 39.3097 26.3736 39.3488 19.9611 39.336C13.6069 39.3229 7.25272 39.3099 0.898554 39.2969C0.826976 39.2677 0.76187 39.2286 0.703242 39.1797C0.574953 37.6242 0.548911 36.0617 0.625117 34.4922C1.11821 31.4868 2.74581 29.3514 5.50793 28.086C5.57298 27.0192 5.61205 25.9515 5.62512 24.8828C5.95064 23.6198 6.74491 22.8256 8.00793 22.5C9.9616 22.487 11.9147 22.4479 13.8673 22.3828C13.3125 21.3303 12.8568 20.2365 12.5001 19.1016C11.5598 18.3836 10.6484 17.6285 9.76574 16.836C9.25746 15.9818 9.20535 15.0964 9.60949 14.1797C10.0433 13.5653 10.6293 13.1747 11.3673 13.0078C10.7601 11.8195 10.1742 10.6216 9.60949 9.41409C9.43191 8.72019 9.48402 8.04308 9.76574 7.38284C9.90652 6.66157 9.68519 6.07563 9.10168 5.62503C8.39254 5.37998 7.68941 5.11956 6.9923 4.84378C6.6798 4.50524 6.6798 4.16669 6.9923 3.82816C9.9216 2.0054 13.0987 0.924671 16.5236 0.585968ZM18.2423 1.83597C20.3536 1.80512 22.4629 1.84418 24.5704 1.95316C26.3704 2.34742 27.6595 3.37606 28.4376 5.03909C28.8207 6.00119 28.9248 6.99077 28.7501 8.00784C28.5472 8.72081 28.3129 9.42394 28.047 10.1172C27.8846 9.26558 27.5982 8.45823 27.1876 7.69534C26.5954 6.8494 26.0224 5.99003 25.4689 5.11722C25.1523 4.92641 24.8268 4.91339 24.4923 5.07816C23.6679 5.85045 22.7564 6.50149 21.7579 7.03128C20.7948 7.34126 19.8052 7.49751 18.7892 7.50003C17.9569 7.64725 17.1757 7.9337 16.4454 8.3594C14.9863 9.38675 13.5019 10.3503 11.9923 11.25C11.5621 10.4807 11.1844 9.68636 10.8595 8.86722C10.9487 8.23276 11.0399 7.59472 11.1329 6.95316C11.0662 5.61034 10.4152 4.67284 9.1798 4.14066C12.035 2.68469 15.0558 1.91647 18.2423 1.83597ZM24.7267 6.60159C25.5331 7.48257 26.145 8.49823 26.5626 9.64847C26.7922 10.782 26.8833 11.9278 26.8361 13.086C24.8567 13.0729 22.8775 13.086 20.8986 13.125C20.7554 13.1641 20.6642 13.2553 20.6251 13.3985C20.5861 13.7099 20.5731 14.0224 20.5861 14.336C20.1694 14.336 19.7527 14.336 19.3361 14.336C19.349 14.0224 19.336 13.7099 19.297 13.3985C19.2579 13.2553 19.1668 13.1641 19.0236 13.125C17.0446 13.086 15.0654 13.0729 13.0861 13.086C13.0732 12.7983 13.0861 12.5119 13.1251 12.2266C14.5377 11.2664 15.9569 10.3159 17.3829 9.37503C18.4692 8.86636 19.615 8.63198 20.8204 8.6719C22.3541 8.39737 23.6561 7.70724 24.7267 6.60159ZM11.6798 14.336C11.8231 15.2014 11.9403 16.0867 12.0314 16.9922C11.7129 16.7353 11.3873 16.4879 11.0548 16.25C10.5118 15.6448 10.5379 15.0719 11.1329 14.5313C11.3225 14.4608 11.5048 14.3957 11.6798 14.336ZM13.1642 14.336C13.5548 14.336 13.9454 14.336 14.3361 14.336C13.7748 17.3554 14.9988 18.5924 18.0079 18.0469C19.1117 17.5978 19.5544 16.7775 19.3361 15.586C19.7527 15.586 20.1694 15.586 20.5861 15.586C20.3677 16.7775 20.8104 17.5978 21.9142 18.0469C24.9233 18.5924 26.1473 17.3554 25.5861 14.336C25.9767 14.336 26.3673 14.336 26.7579 14.336C26.7162 17.2214 25.961 19.9036 24.4923 22.3828C21.4714 22.487 18.4507 22.487 15.4298 22.3828C13.9611 19.9036 13.2059 17.2214 13.1642 14.336ZM15.5861 14.336C16.4194 14.336 17.2527 14.336 18.0861 14.336C18.1184 15.0455 18.0793 15.7486 17.9689 16.4453C17.9298 16.5885 17.8386 16.6797 17.6954 16.7188C17.2072 16.8388 16.7124 16.8649 16.2111 16.7969C15.8595 16.7578 15.6642 16.5625 15.6251 16.211C15.5861 15.5865 15.5731 14.9615 15.5861 14.336ZM21.8361 14.336C22.6694 14.336 23.5027 14.336 24.3361 14.336C24.3684 15.0455 24.3293 15.7486 24.2189 16.4453C24.1798 16.5885 24.0886 16.6797 23.9454 16.7188C23.4572 16.8388 22.9624 16.8649 22.4611 16.7969C22.1095 16.7578 21.9142 16.5625 21.8751 16.211C21.8361 15.5865 21.8231 14.9615 21.8361 14.336ZM28.0861 14.336C29.1602 14.4853 29.4857 15.0582 29.0626 16.0547C28.672 16.3672 28.2814 16.6797 27.8907 16.9922C28.0222 16.1182 28.0874 15.2328 28.0861 14.336ZM8.71105 23.711C16.2111 23.6979 23.7111 23.711 31.2111 23.75C32.3165 23.8659 32.9285 24.4779 33.047 25.586C33.0861 29.7525 33.0991 33.9192 33.0861 38.086C24.3361 38.086 15.5861 38.086 6.83605 38.086C6.82303 33.9192 6.83605 29.7525 6.87512 25.586C7.00752 24.4771 7.6195 23.8521 8.71105 23.711ZM5.4298 29.5703C5.58555 32.3817 5.63764 35.2202 5.58605 38.086C4.33605 38.086 3.08605 38.086 1.83605 38.086C1.81821 36.9121 1.85727 35.7403 1.95324 34.5703C2.36962 32.3728 3.52847 30.7061 5.4298 29.5703ZM34.3361 29.5703C35.8022 30.2945 36.8568 31.4143 37.5001 32.9297C37.717 33.4585 37.8732 34.0054 37.9689 34.5703C38.0648 35.7403 38.1039 36.9121 38.0861 38.086C36.8361 38.086 35.5861 38.086 34.3361 38.086C34.3361 35.2474 34.3361 32.4089 34.3361 29.5703ZM19.5704 32.5391C20.9193 32.5201 21.375 33.1451 20.9376 34.4141C20.4493 34.9228 19.8893 35.0139 19.2579 34.6875C18.7493 34.1992 18.6582 33.6392 18.9845 33.0078C19.1496 32.8031 19.345 32.6468 19.5704 32.5391Z" fill="#7444FD"/>
<path opacity="0.902" fill-rule="evenodd" clip-rule="evenodd" d="M15.6641 24.4922C16.0484 24.7459 16.387 25.0584 16.6797 25.4297C16.0287 26.1068 15.3776 26.7838 14.7266 27.4609C15.3776 28.138 16.0287 28.8151 16.6797 29.4922C16.3932 29.8307 16.0807 30.1432 15.7422 30.4297C14.8839 29.6105 14.0376 28.7772 13.2031 27.9297C13.0469 27.6172 13.0469 27.3047 13.2031 26.9922C14.0392 26.1691 14.8595 25.3358 15.6641 24.4922Z" fill="#7444FD"/>
<path opacity="0.901" fill-rule="evenodd" clip-rule="evenodd" d="M24.1016 24.4922C25.0063 25.2795 25.8787 26.1127 26.7188 26.9922C26.875 27.3047 26.875 27.6172 26.7188 27.9297C25.8843 28.7772 25.038 29.6105 24.1797 30.4297C23.8412 30.1432 23.5287 29.8307 23.2422 29.4922C23.8932 28.8151 24.5443 28.138 25.1953 27.4609C24.5443 26.7838 23.8932 26.1068 23.2422 25.4297C23.5304 25.1156 23.8168 24.8031 24.1016 24.4922Z" fill="#7444FD"/>
<path opacity="0.917" fill-rule="evenodd" clip-rule="evenodd" d="M21.2891 24.5703C21.6795 24.7919 22.0441 25.0523 22.3828 25.3516C21.1437 27.0494 19.8677 28.716 18.5547 30.3516C18.1991 30.1091 17.8605 29.8488 17.5391 29.5703C18.7898 27.9013 20.0398 26.2347 21.2891 24.5703Z" fill="#7444FD"/>
<path opacity="0.93" fill-rule="evenodd" clip-rule="evenodd" d="M19.3358 31.211C21.5598 31.0782 22.5884 32.1199 22.4217 34.336C21.9252 35.8155 20.8966 36.4275 19.3358 36.1719C17.8562 35.6754 17.2442 34.6467 17.4998 33.086C17.7608 32.1089 18.3728 31.4839 19.3358 31.211ZM19.5702 32.5391C19.3447 32.6468 19.1494 32.8031 18.9842 33.0078C18.6579 33.6392 18.749 34.1992 19.2577 34.6875C19.8891 35.0138 20.449 34.9228 20.9373 34.4141C21.3747 33.1451 20.919 32.5201 19.5702 32.5391Z" fill="#7444FD"/>
</g>
<defs>
<clipPath id="clip0_4005_180">
<rect width="40" height="40" fill="white"/>
</clipPath>
</defs>
</svg>
