<svg width="40" height="40" viewBox="0 0 40 40" fill="none" xmlns="http://www.w3.org/2000/svg">
<g clip-path="url(#clip0_4005_216)">
<path opacity="0.936" fill-rule="evenodd" clip-rule="evenodd" d="M3.71115 -0.0390625C4.25802 -0.0390625 4.8049 -0.0390625 5.35177 -0.0390625C5.75441 0.247133 5.89765 0.637758 5.78146 1.13281C5.60661 1.46124 5.33317 1.64353 4.96115 1.67969C4.83662 2.38103 4.41995 2.62843 3.71115 2.42188C3.59396 2.30469 3.47677 2.1875 3.35959 2.07031C3.23957 1.58208 3.21352 1.08728 3.28146 0.585938C3.37859 0.345631 3.52183 0.137298 3.71115 -0.0390625Z" fill="#7444FD"/>
<path opacity="0.94" fill-rule="evenodd" clip-rule="evenodd" d="M7.9298 -0.0390625C8.73707 -0.0390625 9.54441 -0.0390625 10.3517 -0.0390625C10.8153 0.303493 10.9325 0.746201 10.7032 1.28906C10.568 1.45442 10.3987 1.57161 10.1954 1.64062C9.4923 1.69271 8.78918 1.69271 8.08605 1.64062C7.49473 1.43873 7.29941 1.03508 7.50012 0.429688C7.60634 0.232609 7.74957 0.0763588 7.9298 -0.0390625Z" fill="#7444FD"/>
<path opacity="0.94" fill-rule="evenodd" clip-rule="evenodd" d="M12.9298 -0.0390625C13.7371 -0.0390625 14.5444 -0.0390625 15.3517 -0.0390625C15.8153 0.303493 15.9325 0.746201 15.7032 1.28906C15.568 1.45442 15.3987 1.57161 15.1954 1.64062C14.4923 1.69271 13.7892 1.69271 13.0861 1.64062C12.4947 1.43873 12.2994 1.03508 12.5001 0.429688C12.6064 0.232609 12.7496 0.0763588 12.9298 -0.0390625Z" fill="#7444FD"/>
<path opacity="0.94" fill-rule="evenodd" clip-rule="evenodd" d="M17.9298 -0.0390625C18.7371 -0.0390625 19.5444 -0.0390625 20.3517 -0.0390625C20.8153 0.303493 20.9325 0.746201 20.7032 1.28906C20.568 1.45442 20.3987 1.57161 20.1954 1.64062C19.4923 1.69271 18.7892 1.69271 18.0861 1.64062C17.4947 1.43873 17.2994 1.03508 17.5001 0.429688C17.6064 0.232609 17.7496 0.0763588 17.9298 -0.0390625Z" fill="#7444FD"/>
<path opacity="0.94" fill-rule="evenodd" clip-rule="evenodd" d="M22.9298 -0.0390625C23.7371 -0.0390625 24.5444 -0.0390625 25.3517 -0.0390625C25.8153 0.303493 25.9325 0.746201 25.7032 1.28906C25.568 1.45442 25.3987 1.57161 25.1954 1.64062C24.4923 1.69271 23.7892 1.69271 23.0861 1.64062C22.4947 1.43873 22.2994 1.03508 22.5001 0.429688C22.6064 0.232609 22.7496 0.0763588 22.9298 -0.0390625Z" fill="#7444FD"/>
<path opacity="0.94" fill-rule="evenodd" clip-rule="evenodd" d="M27.9298 -0.0390625C28.7371 -0.0390625 29.5444 -0.0390625 30.3517 -0.0390625C30.8153 0.303493 30.9325 0.746201 30.7032 1.28906C30.568 1.45442 30.3987 1.57161 30.1954 1.64062C29.4923 1.69271 28.7892 1.69271 28.0861 1.64062C27.4947 1.43873 27.2994 1.03508 27.5001 0.429688C27.6064 0.232609 27.7496 0.0763588 27.9298 -0.0390625Z" fill="#7444FD"/>
<path opacity="0.95" fill-rule="evenodd" clip-rule="evenodd" d="M32.9296 -0.0390625C33.4504 -0.0390625 33.9712 -0.0390625 34.4921 -0.0390625C34.6723 0.0763588 34.8155 0.232609 34.9217 0.429688C34.9738 0.950523 34.9738 1.47135 34.9217 1.99219C34.7599 2.34011 34.4865 2.49636 34.1014 2.46094C33.6556 2.43265 33.3692 2.19827 33.2421 1.75781C32.9414 1.6532 32.6941 1.4709 32.4999 1.21094C32.3449 0.676584 32.4881 0.259917 32.9296 -0.0390625Z" fill="#7444FD"/>
<path opacity="0.968" fill-rule="evenodd" clip-rule="evenodd" d="M7.22656 3.24219C10.7163 3.22917 14.2059 3.24219 17.6953 3.28125C17.8986 3.35027 18.0679 3.46745 18.2031 3.63281C18.3325 7.22004 18.3586 10.8138 18.2813 14.4141C18.2194 14.5771 18.1282 14.7204 18.0078 14.8438C14.3685 14.9731 10.7227 14.9992 7.07031 14.9219C6.84526 14.8241 6.70203 14.6549 6.64063 14.4141C6.58854 10.8724 6.58854 7.33073 6.64063 3.78906C6.77675 3.53549 6.97206 3.3532 7.22656 3.24219ZM8.32031 4.96094C11.0807 4.96094 13.8412 4.96094 16.6016 4.96094C16.6016 7.72135 16.6016 10.4818 16.6016 13.2422C13.8412 13.2422 11.0807 13.2422 8.32031 13.2422C8.32031 10.4818 8.32031 7.72135 8.32031 4.96094Z" fill="#7444FD"/>
<path opacity="0.968" fill-rule="evenodd" clip-rule="evenodd" d="M20.5859 3.24219C24.0756 3.22917 27.5652 3.24219 31.0546 3.28125C31.3541 3.3724 31.5494 3.56771 31.6406 3.86719C31.6927 7.35677 31.6927 10.8463 31.6406 14.3359C31.56 14.5734 31.4167 14.7687 31.2109 14.9219C27.6171 14.974 24.0234 14.974 20.4296 14.9219C20.2901 14.8605 20.1729 14.7695 20.0781 14.6484C19.9487 11.0091 19.9226 7.36329 19.9999 3.71094C20.1647 3.50611 20.36 3.34986 20.5859 3.24219ZM21.6796 4.96094C24.44 4.96094 27.2005 4.96094 29.9609 4.96094C29.9609 7.72135 29.9609 10.4818 29.9609 13.2422C27.2005 13.2422 24.44 13.2422 21.6796 13.2422C21.6796 10.4818 21.6796 7.72135 21.6796 4.96094Z" fill="#7444FD"/>
<path opacity="0.94" fill-rule="evenodd" clip-rule="evenodd" d="M3.78906 4.10167C4.27611 4.01365 4.65371 4.1699 4.92188 4.57042C4.97396 5.37771 4.97396 6.185 4.92188 6.99229C4.83073 7.1876 4.6875 7.33083 4.49219 7.42198C3.8868 7.62268 3.48315 7.42737 3.28125 6.83604C3.22917 6.13292 3.22917 5.42979 3.28125 4.72667C3.38317 4.45624 3.55245 4.24792 3.78906 4.10167Z" fill="#7444FD"/>
<path opacity="0.94" fill-rule="evenodd" clip-rule="evenodd" d="M33.7891 4.10167C34.2761 4.01365 34.6538 4.1699 34.9219 4.57042C34.974 5.37771 34.974 6.185 34.9219 6.99229C34.8307 7.1876 34.6875 7.33083 34.4922 7.42198C33.8868 7.62268 33.4831 7.42737 33.2813 6.83604C33.2292 6.13292 33.2292 5.42979 33.2813 4.72667C33.3832 4.45624 33.5524 4.24792 33.7891 4.10167Z" fill="#7444FD"/>
<path opacity="0.94" fill-rule="evenodd" clip-rule="evenodd" d="M3.78906 9.10168C4.27611 9.01363 4.65371 9.16988 4.92188 9.57043C4.97396 10.3777 4.97396 11.185 4.92188 11.9923C4.83073 12.1876 4.6875 12.3308 4.49219 12.422C3.8868 12.6227 3.48315 12.4274 3.28125 11.8361C3.22917 11.1329 3.22917 10.4298 3.28125 9.72668C3.38317 9.45629 3.55245 9.24793 3.78906 9.10168Z" fill="#7444FD"/>
<path opacity="0.94" fill-rule="evenodd" clip-rule="evenodd" d="M33.7891 9.10168C34.2761 9.01363 34.6538 9.16988 34.9219 9.57043C34.974 10.3777 34.974 11.185 34.9219 11.9923C34.8307 12.1876 34.6875 12.3308 34.4922 12.422C33.8868 12.6227 33.4831 12.4274 33.2813 11.8361C33.2292 11.1329 33.2292 10.4298 33.2813 9.72668C33.3832 9.45629 33.5524 9.24793 33.7891 9.10168Z" fill="#7444FD"/>
<path opacity="0.94" fill-rule="evenodd" clip-rule="evenodd" d="M3.78906 14.1017C4.27611 14.0136 4.65371 14.1699 4.92188 14.5704C4.97396 15.3777 4.97396 16.185 4.92188 16.9923C4.83073 17.1876 4.6875 17.3308 4.49219 17.422C3.8868 17.6227 3.48315 17.4274 3.28125 16.8361C3.22917 16.1329 3.22917 15.4298 3.28125 14.7267C3.38317 14.4563 3.55245 14.2479 3.78906 14.1017Z" fill="#7444FD"/>
<path opacity="0.94" fill-rule="evenodd" clip-rule="evenodd" d="M33.7891 14.1017C34.2761 14.0136 34.6538 14.1699 34.9219 14.5704C34.974 15.3777 34.974 16.185 34.9219 16.9923C34.8307 17.1876 34.6875 17.3308 34.4922 17.422C33.8868 17.6227 33.4831 17.4274 33.2813 16.8361C33.2292 16.1329 33.2292 15.4298 33.2813 14.7267C33.3832 14.4563 33.5524 14.2479 33.7891 14.1017Z" fill="#7444FD"/>
<path opacity="0.969" fill-rule="evenodd" clip-rule="evenodd" d="M7.14835 16.6016C10.6902 16.5885 14.2318 16.6016 17.7734 16.6406C17.9393 16.7283 18.0825 16.8455 18.203 16.9922C18.3324 20.5795 18.3585 24.1732 18.2812 27.7734C18.1935 27.9394 18.0763 28.0826 17.9296 28.2031C14.3423 28.3325 10.7486 28.3586 7.14835 28.2813C6.98243 28.1936 6.8392 28.0764 6.71867 27.9297C6.58928 24.3424 6.56323 20.7487 6.64054 17.1484C6.77289 16.9252 6.94216 16.7429 7.14835 16.6016ZM8.32023 18.3203C11.0806 18.3203 13.8411 18.3203 16.6015 18.3203C16.6015 21.0807 16.6015 23.8412 16.6015 26.6016C13.8411 26.6016 11.0806 26.6016 8.32023 26.6016C8.32023 23.8412 8.32023 21.0807 8.32023 18.3203Z" fill="#7444FD"/>
<path opacity="0.961" fill-rule="evenodd" clip-rule="evenodd" d="M34.4924 39.961C30.8987 39.961 27.3049 39.961 23.7112 39.961C23.4727 39.7352 23.2773 39.4747 23.1252 39.1797C22.1554 37.4222 21.1659 35.6775 20.1565 33.9454C20.1044 33.7891 20.0523 33.6329 20.0002 33.4766C19.9612 32.8783 19.9482 32.2793 19.9612 31.6797C19.2516 31.7121 18.5485 31.673 17.8518 31.5626C17.442 31.2097 17.3509 30.78 17.5784 30.2735C17.6732 30.1525 17.7904 30.0614 17.9299 30.0001C18.6065 29.961 19.2836 29.948 19.9612 29.961C19.9482 29.2574 19.9612 28.5543 20.0002 27.8516C20.1992 27.1585 20.6029 26.6247 21.2112 26.2501C21.8622 25.9245 22.5133 25.599 23.1643 25.2735C23.2294 23.1125 23.2684 20.9511 23.2815 18.7891C23.6512 17.1964 24.6537 16.4802 26.2893 16.6407C27.3354 16.8794 27.9994 17.5175 28.2815 18.5547C28.3205 20.4035 28.3336 22.2525 28.3205 24.1016C30.4301 24.0886 32.5394 24.1016 34.6487 24.1407C35.7971 24.4039 36.4612 25.12 36.6409 26.2891C36.693 29.2058 36.693 32.1225 36.6409 35.0391C36.1249 36.4827 35.578 37.9151 35.0002 39.336C34.8983 39.6064 34.7291 39.8147 34.4924 39.961ZM25.6643 18.3204C26.1066 18.3265 26.4061 18.5347 26.5627 18.9454C26.5887 21.0547 26.6148 23.1641 26.6409 25.2735C26.7285 25.4394 26.8457 25.5826 26.9924 25.7032C29.4076 25.8062 31.8294 25.8583 34.258 25.8594C34.5022 25.9359 34.6975 26.0792 34.844 26.2891C34.9716 29.0726 34.9977 31.859 34.9221 34.6485C34.5102 35.837 34.0544 37.0089 33.5549 38.1641C30.5865 38.2553 27.6177 38.2683 24.6487 38.2032C23.6425 36.5165 22.6659 34.8108 21.719 33.086C21.6669 31.4714 21.6669 29.8569 21.719 28.2422C21.8066 28.0763 21.9238 27.9331 22.0705 27.8126C22.4543 27.6272 22.8319 27.4319 23.2034 27.2266C23.2294 28.2162 23.2555 29.2058 23.2815 30.1954C23.6011 30.85 24.0829 30.9932 24.7268 30.6251C24.8206 30.5545 24.8858 30.4634 24.9221 30.3516C24.9481 26.6276 24.9742 22.9037 25.0002 19.1797C25.0357 18.742 25.2571 18.4555 25.6643 18.3204Z" fill="#7444FD"/>
<path opacity="0.94" fill-rule="evenodd" clip-rule="evenodd" d="M3.78906 19.1017C4.27611 19.0136 4.65371 19.1699 4.92188 19.5704C4.97396 20.3777 4.97396 21.185 4.92188 21.9923C4.83073 22.1876 4.6875 22.3308 4.49219 22.422C3.8868 22.6227 3.48315 22.4274 3.28125 21.8361C3.22917 21.1329 3.22917 20.4298 3.28125 19.7267C3.38317 19.4563 3.55245 19.2479 3.78906 19.1017Z" fill="#7444FD"/>
<path opacity="0.94" fill-rule="evenodd" clip-rule="evenodd" d="M33.7891 19.1017C34.2761 19.0136 34.6538 19.1699 34.9219 19.5704C34.974 20.3777 34.974 21.185 34.9219 21.9923C34.8307 22.1876 34.6875 22.3308 34.4922 22.422C33.8868 22.6227 33.4831 22.4274 33.2813 21.8361C33.2292 21.1329 33.2292 20.4298 33.2813 19.7267C33.3832 19.4563 33.5524 19.2479 33.7891 19.1017Z" fill="#7444FD"/>
<path opacity="0.94" fill-rule="evenodd" clip-rule="evenodd" d="M3.78906 24.1017C4.27611 24.0136 4.65371 24.1699 4.92188 24.5704C4.97396 25.3777 4.97396 26.185 4.92188 26.9923C4.83073 27.1876 4.6875 27.3308 4.49219 27.422C3.8868 27.6227 3.48315 27.4274 3.28125 26.8361C3.22917 26.1329 3.22917 25.4298 3.28125 24.7267C3.38317 24.4563 3.55245 24.2479 3.78906 24.1017Z" fill="#7444FD"/>
<path opacity="0.921" fill-rule="evenodd" clip-rule="evenodd" d="M3.78899 29.1017C4.27603 29.0136 4.65363 29.1699 4.9218 29.5704C4.96035 29.6981 4.97338 29.8283 4.96086 29.9611C5.52944 29.9567 5.8159 30.2432 5.82024 30.8204C5.80665 31.2382 5.59831 31.5116 5.19524 31.6407C3.56763 31.9923 2.92961 31.3543 3.28117 29.7267C3.38309 29.4563 3.55237 29.2479 3.78899 29.1017Z" fill="#7444FD"/>
<path opacity="0.94" fill-rule="evenodd" clip-rule="evenodd" d="M7.92992 29.9609C8.73765 29.9479 9.54492 29.9609 10.3518 30C10.7654 30.2683 10.9086 30.6459 10.7815 31.1328C10.6594 31.385 10.4641 31.5543 10.1955 31.6406C9.40851 31.7127 8.62726 31.6867 7.85179 31.5625C7.44201 31.2096 7.35086 30.7799 7.57836 30.2734C7.68748 30.1508 7.80467 30.0465 7.92992 29.9609Z" fill="#7444FD"/>
<path opacity="0.94" fill-rule="evenodd" clip-rule="evenodd" d="M12.9299 29.9609C13.7377 29.9479 14.5449 29.9609 15.3518 30C15.7654 30.2683 15.9086 30.6459 15.7815 31.1328C15.6594 31.385 15.4641 31.5543 15.1955 31.6406C14.4085 31.7127 13.6273 31.6867 12.8518 31.5625C12.442 31.2096 12.3509 30.7799 12.5784 30.2734C12.6875 30.1508 12.8047 30.0465 12.9299 29.9609Z" fill="#7444FD"/>
</g>
<defs>
<clipPath id="clip0_4005_216">
<rect width="40" height="40" fill="white"/>
</clipPath>
</defs>
</svg>
