<svg width="41" height="41" viewBox="0 0 41 41" fill="none" xmlns="http://www.w3.org/2000/svg">
<path d="M39.9947 8.82641L39.0686 8.58883C38.9658 8.26034 38.8335 7.94179 38.6735 7.63703L39.1593 6.81672C39.2257 6.70467 39.2528 6.57371 39.2364 6.44452C39.2201 6.31534 39.1612 6.19527 39.069 6.10329L37.7641 4.80141C37.6722 4.70973 37.5525 4.65116 37.4238 4.63488C37.295 4.6186 37.1645 4.64555 37.0527 4.71149L36.2289 5.19719C35.9228 5.03707 35.603 4.90485 35.2732 4.80212L35.0353 3.87884C35.0028 3.753 34.9295 3.64152 34.8268 3.56193C34.7241 3.48233 34.5978 3.43914 34.4678 3.43915H32.6225C32.4925 3.43914 32.3662 3.48233 32.2635 3.56193C32.1608 3.64152 32.0875 3.753 32.055 3.87884L31.8171 4.80212C31.4873 4.90485 31.1675 5.03707 30.8614 5.19719L30.0376 4.71149C29.9258 4.64559 29.7953 4.61867 29.6666 4.63494C29.5378 4.65122 29.4181 4.70977 29.3262 4.80141L28.0213 6.10329C27.9291 6.19527 27.8702 6.31534 27.8538 6.44452C27.8375 6.57371 27.8646 6.70467 27.931 6.81672L28.4168 7.63703C28.2568 7.9418 28.1246 8.26035 28.0217 8.58883L27.0956 8.82641C26.9696 8.85873 26.858 8.93205 26.7782 9.03481C26.6985 9.13757 26.6553 9.26393 26.6553 9.39399V11.2351C26.6553 11.3651 26.6985 11.4915 26.7782 11.5943C26.858 11.697 26.9696 11.7703 27.0956 11.8027L28.0217 12.0402C28.1245 12.3687 28.2568 12.6873 28.4168 12.992L27.931 13.8123C27.8646 13.9244 27.8375 14.0553 27.8538 14.1845C27.8702 14.3137 27.9291 14.4338 28.0213 14.5258L29.3262 15.8277C29.4181 15.9193 29.5378 15.9779 29.6665 15.9941C29.7953 16.0104 29.9258 15.9835 30.0376 15.9176L30.8614 15.4319C31.1674 15.592 31.4873 15.7242 31.8171 15.8269L32.055 16.7502C32.0875 16.8761 32.1608 16.9875 32.2635 17.0671C32.3662 17.1467 32.4925 17.1899 32.6225 17.1899H34.4678C34.5978 17.1899 34.7241 17.1467 34.8268 17.0671C34.9295 16.9875 35.0028 16.8761 35.0353 16.7502L35.2732 15.8269C35.603 15.7242 35.9229 15.592 36.2289 15.4319L37.0527 15.9176C37.1645 15.9835 37.295 16.0104 37.4237 15.9941C37.5525 15.9779 37.6722 15.9193 37.7641 15.8277L39.069 14.5258C39.1612 14.4338 39.2201 14.3137 39.2364 14.1845C39.2528 14.0553 39.2257 13.9244 39.1593 13.8123L38.6735 12.992C38.8335 12.6873 38.9657 12.3687 39.0686 12.0402L39.9947 11.8027C40.1207 11.7703 40.2323 11.697 40.312 11.5943C40.3918 11.4915 40.435 11.3651 40.435 11.2351V9.39399C40.435 9.26393 40.3918 9.13757 40.312 9.03481C40.2323 8.93205 40.1207 8.85873 39.9947 8.82641ZM39.2631 10.7805L38.4499 10.9891C38.3473 11.0155 38.2538 11.0691 38.1792 11.1444C38.1047 11.2197 38.0519 11.3138 38.0266 11.4166C37.9157 11.8673 37.7367 12.2984 37.4957 12.6951C37.4406 12.7858 37.4112 12.8898 37.4107 12.9959C37.4101 13.1021 37.4383 13.2064 37.4924 13.2977L37.9189 14.0177L37.2573 14.6778L36.5334 14.251C36.4423 14.1973 36.3384 14.1693 36.2326 14.1699C36.1269 14.1705 36.0233 14.1996 35.9328 14.2543C35.5347 14.4949 35.1024 14.6736 34.6506 14.7843C34.5477 14.8095 34.4536 14.8622 34.3782 14.9366C34.3029 15.0111 34.2491 15.1046 34.2227 15.2072L34.0137 16.018H33.0764L32.8675 15.2072C32.841 15.1046 32.7873 15.0111 32.7119 14.9366C32.6366 14.8622 32.5425 14.8095 32.4396 14.7843C31.9878 14.6736 31.5554 14.4949 31.1574 14.2543C31.0669 14.1996 30.9633 14.1704 30.8575 14.1699C30.7518 14.1693 30.6479 14.1973 30.5568 14.251L29.8328 14.6778L29.1712 14.0177L29.5977 13.2977C29.6518 13.2064 29.6801 13.1021 29.6795 12.9959C29.6789 12.8898 29.6495 12.7858 29.5944 12.6951C29.3534 12.2984 29.1744 11.8673 29.0636 11.4166C29.0382 11.3138 28.9855 11.2197 28.9109 11.1444C28.8364 11.0691 28.7428 11.0155 28.6402 10.9891L27.827 10.7805V9.84859L28.6402 9.64C28.7428 9.61366 28.8364 9.56 28.9109 9.48472C28.9855 9.40944 29.0382 9.31537 29.0636 9.2125C29.1745 8.76184 29.3535 8.33073 29.5944 7.93407C29.6495 7.84333 29.6789 7.73934 29.6795 7.63319C29.6801 7.52705 29.6518 7.42274 29.5977 7.33141L29.1712 6.61141L29.8328 5.95133L30.5568 6.37813C30.6479 6.43181 30.7518 6.45985 30.8575 6.45928C30.9633 6.4587 31.0669 6.42953 31.1574 6.37485C31.5554 6.13421 31.9878 5.9555 32.4396 5.84485C32.5425 5.81962 32.6366 5.76698 32.7119 5.69251C32.7873 5.61805 32.841 5.52454 32.8675 5.42196L33.0764 4.61102H34.0137L34.2227 5.42196C34.2491 5.52454 34.3029 5.61805 34.3782 5.69251C34.4536 5.76698 34.5477 5.81962 34.6506 5.84485C35.1024 5.95548 35.5347 6.13419 35.9328 6.37485C36.0233 6.42953 36.1269 6.4587 36.2326 6.45928C36.3384 6.45985 36.4423 6.43181 36.5334 6.37813L37.2573 5.95133L37.9189 6.61141L37.4924 7.33141C37.4383 7.42274 37.4101 7.52705 37.4107 7.63319C37.4112 7.73934 37.4406 7.84333 37.4957 7.93407C37.7367 8.33073 37.9157 8.76183 38.0266 9.2125C38.0519 9.31537 38.1047 9.40944 38.1792 9.48472C38.2538 9.56 38.3473 9.61366 38.4499 9.64L39.2631 9.84859V10.7805Z" fill="white"/>
<path d="M35.5448 8.57195C35.4772 8.60862 35.4174 8.65826 35.3689 8.71803C35.3205 8.77779 35.2843 8.84652 35.2624 8.92029C35.2405 8.99405 35.2333 9.07141 35.2413 9.14794C35.2493 9.22447 35.2723 9.29868 35.309 9.36632C36.0365 10.66 35.0329 12.3376 33.545 12.3122C31.129 12.254 30.8031 8.87015 33.1612 8.35398C33.2368 8.33939 33.3087 8.31006 33.3729 8.26767C33.4371 8.22528 33.4924 8.17066 33.5355 8.10691C33.5786 8.04317 33.6087 7.97157 33.6241 7.89619C33.6395 7.8208 33.64 7.74312 33.6254 7.66757C33.6108 7.59202 33.5815 7.52007 33.5391 7.45584C33.4967 7.39162 33.4421 7.33638 33.3783 7.29327C33.3146 7.25017 33.243 7.22005 33.1676 7.20463C33.0922 7.18922 33.0145 7.18881 32.939 7.20343C29.1992 8.02195 29.7151 13.3914 33.545 13.4841C35.914 13.5131 37.4911 10.8738 36.339 8.80781C36.3024 8.74016 36.2528 8.68039 36.193 8.63193C36.1333 8.58346 36.0645 8.54724 35.9908 8.52534C35.917 8.50343 35.8397 8.49628 35.7632 8.50427C35.6866 8.51227 35.6124 8.53527 35.5448 8.57195ZM31.0597 20.2038H29.3351C27.9297 17.4198 25.6515 15.2224 22.8336 13.9214C27.6135 8.95273 24.0194 0.475629 17.052 0.496254C10.085 0.475551 6.49039 8.95406 11.2707 13.9214C8.45281 15.2225 6.17453 17.4199 4.76922 20.2039H3.04454C1.48977 20.2039 0.233367 21.6505 0.463914 23.1944L2.28844 35.4136C2.38368 36.0514 2.71227 36.6101 3.17875 37.0078C1.85751 38.2307 2.72704 40.4978 4.55532 40.4962H29.549C31.3679 40.5007 32.2528 38.2325 30.9255 37.0077C31.392 36.61 31.7206 36.0513 31.8158 35.4136L33.6404 23.1944C33.87 21.6554 32.6194 20.2038 31.0597 20.2038ZM17.0521 1.66813C20.799 1.66813 23.8473 4.71156 23.8473 8.45249C23.5058 17.4405 10.5969 17.438 10.2568 8.45242C10.2569 4.71156 13.3052 1.66813 17.0521 1.66813ZM12.2287 14.781C14.8983 16.929 19.2062 16.9288 21.8755 14.781C24.483 15.8609 26.6252 17.76 28.0066 20.2038H6.09766C7.47906 17.7601 9.62125 15.861 12.2287 14.781ZM32.4812 23.0214L30.6567 35.2405C30.5526 35.9376 29.9415 36.4633 29.2351 36.4633H9.81101C9.05343 36.4633 9.05343 37.6352 9.81101 37.6352H29.549C30.0144 37.6352 30.3931 38.0139 30.3931 38.4802C30.3931 38.9457 30.0144 39.3243 29.549 39.3243H4.55524C3.44289 39.2846 3.43149 37.6795 4.55524 37.6352H6.69117C7.44875 37.6352 7.44875 36.4633 6.69117 36.4633H4.86906C4.16274 36.4633 3.55157 35.9376 3.4475 35.2405L1.62305 23.0214C1.49516 22.1653 2.18024 21.3758 3.04461 21.3758H31.0597C31.924 21.3757 32.6091 22.1653 32.4812 23.0214Z" fill="white"/>
<path d="M17.0522 25.3678C15.0913 25.3678 13.4961 26.9611 13.4961 28.9195C13.6748 33.6248 20.4303 33.6235 20.6083 28.9194C20.6083 26.9611 19.013 25.3678 17.0522 25.3678ZM17.0522 31.2994C15.7375 31.2994 14.668 30.2318 14.668 28.9196C14.7877 25.7668 19.3171 25.7676 19.4364 28.9196C19.4364 30.2318 18.3669 31.2994 17.0522 31.2994Z" fill="white"/>
</svg>
