<svg width="40" height="40" viewBox="0 0 40 40" fill="none" xmlns="http://www.w3.org/2000/svg">
<path opacity="0.963" fill-rule="evenodd" clip-rule="evenodd" d="M12.3828 1.21094C17.435 1.19792 22.487 1.21094 27.5391 1.25C28.8021 1.57552 29.5963 2.36979 29.9219 3.63281C29.9609 7.82547 29.974 12.0181 29.9609 16.2109C30.4304 16.198 30.8991 16.211 31.3672 16.25C31.4882 16.3448 31.5793 16.462 31.6406 16.6016C31.7631 17.1484 31.8802 17.6953 31.9922 18.2422C32.4321 18.3642 32.8618 18.5205 33.2813 18.7109C33.7422 18.4478 34.1979 18.1744 34.6484 17.8906C34.9191 17.8268 35.1795 17.8529 35.4297 17.9688C35.9375 18.4766 36.4453 18.9844 36.9531 19.4922C37.0259 19.6452 37.0909 19.8015 37.1484 19.9609C36.8464 20.5259 36.5339 21.0858 36.2109 21.6406C36.3802 22.1091 36.5886 22.5519 36.8359 22.9688C37.3917 23.0621 37.9386 23.1923 38.4766 23.3594C38.5416 23.4245 38.6068 23.4896 38.6719 23.5547C38.724 24.4922 38.724 25.4297 38.6719 26.3672C38.5688 26.5224 38.4256 26.6136 38.2422 26.6406C37.7477 26.7629 37.2529 26.8801 36.7578 26.9922C36.5652 27.4167 36.3829 27.8464 36.2109 28.2812C36.5717 28.812 36.8842 29.3719 37.1484 29.9609C37.0909 30.1204 37.0259 30.2766 36.9531 30.4297C36.4169 30.992 35.857 31.5259 35.2734 32.0312C35.0651 32.0834 34.8568 32.0834 34.6484 32.0312C34.1979 31.7475 33.7422 31.4741 33.2813 31.2109C32.8618 31.4014 32.4321 31.5577 31.9922 31.6797C31.8802 32.2266 31.7631 32.7734 31.6406 33.3203C31.5793 33.4598 31.4882 33.577 31.3672 33.6719C30.7639 33.8741 30.4254 33.6657 30.3516 33.0469C30.4848 32.3548 30.628 31.6648 30.7813 30.9766C30.8426 30.837 30.9337 30.7198 31.0547 30.625C31.8283 30.3683 32.5834 30.0688 33.3203 29.7266C33.874 29.928 34.3818 30.2145 34.8438 30.5859C35.0912 30.3385 35.3385 30.0912 35.5859 29.8438C35.3027 29.4207 35.0293 28.991 34.7656 28.5547C34.7135 28.3984 34.7135 28.2422 34.7656 28.0859C35.1336 27.4116 35.433 26.7084 35.6641 25.9766C35.7551 25.8919 35.8592 25.8268 35.9766 25.7812C36.4658 25.6835 36.9476 25.5663 37.4219 25.4297C37.474 25.1172 37.474 24.8047 37.4219 24.4922C36.8577 24.3544 36.2977 24.1981 35.7422 24.0234C35.4552 23.2806 35.1297 22.5515 34.7656 21.8359C34.7135 21.6797 34.7135 21.5234 34.7656 21.3672C35.0293 20.9309 35.3027 20.5012 35.5859 20.0781C35.3385 19.8307 35.0912 19.5834 34.8438 19.3359C34.3818 19.7074 33.874 19.9939 33.3203 20.1953C32.5834 19.853 31.8283 19.5536 31.0547 19.2969C30.9337 19.202 30.8426 19.0848 30.7813 18.9453C30.6548 18.4562 30.5636 17.9613 30.5078 17.4609C30.3256 17.4609 30.1432 17.4609 29.9609 17.4609C29.9609 18.7109 29.9609 19.9609 29.9609 21.2109C31.9247 21.2862 33.1616 22.2758 33.6719 24.1797C33.946 25.8327 33.4122 27.1479 32.0703 28.125C31.3327 28.3361 31.0071 28.0627 31.0938 27.3047C31.4216 26.9836 31.7341 26.645 32.0313 26.2891C32.7738 24.6872 32.3702 23.4762 30.8203 22.6562C30.5402 22.5697 30.2537 22.5306 29.9609 22.5391C29.974 27.1225 29.9609 31.7058 29.9219 36.2891C29.5963 37.5521 28.8021 38.3463 27.5391 38.6719C22.487 38.724 17.4349 38.724 12.3828 38.6719C11.1198 38.3463 10.3255 37.5521 10 36.2891C9.96094 32.0964 9.94789 27.9037 9.96094 23.7109C9.49149 23.7239 9.02274 23.7109 8.55469 23.6719C8.43367 23.577 8.34258 23.4598 8.28125 23.3203C8.15883 22.7734 8.04164 22.2266 7.92969 21.6797C7.48979 21.5577 7.0601 21.4014 6.64063 21.2109C6.17969 21.4741 5.72396 21.7475 5.27344 22.0312C5.00279 22.0951 4.74238 22.069 4.49219 21.9531C3.98438 21.4453 3.47656 20.9375 2.96875 20.4297C2.89603 20.2766 2.83092 20.1204 2.77344 19.9609C3.07549 19.396 3.38799 18.8361 3.71094 18.2813C3.5416 17.8127 3.33328 17.37 3.08594 16.9531C2.53406 16.8427 1.98719 16.7126 1.44531 16.5625C1.38021 16.4974 1.3151 16.4323 1.25 16.3672C1.19792 15.4297 1.19792 14.4922 1.25 13.5547C1.35304 13.3995 1.49628 13.3083 1.67969 13.2813C2.17814 13.1762 2.67293 13.059 3.16406 12.9297C3.35673 12.5052 3.53903 12.0755 3.71094 11.6406C3.35018 11.1098 3.03768 10.55 2.77344 9.96094C2.83092 9.80149 2.89603 9.64524 2.96875 9.49219C3.47656 8.98438 3.98438 8.47656 4.49219 7.96875C4.66082 7.8975 4.8301 7.83242 5 7.77344C5.56621 8.05344 6.11308 8.36594 6.64063 8.71094C7.0601 8.52047 7.48979 8.36422 7.92969 8.24219C8.04164 7.69534 8.15883 7.14846 8.28125 6.60156C8.34258 6.46203 8.43367 6.34484 8.55469 6.25C9.15797 6.04784 9.49649 6.25617 9.57031 6.875C9.43711 7.56701 9.29391 8.25711 9.14063 8.94531C9.09508 9.06266 9.03 9.1668 8.94531 9.25781C8.14485 9.52805 7.36361 9.84055 6.60156 10.1953C6.04791 9.99391 5.5401 9.70742 5.07813 9.33594C4.83073 9.58336 4.58334 9.8307 4.33594 10.0781C4.61913 10.5012 4.89257 10.9309 5.15625 11.3672C5.20834 11.5234 5.20834 11.6797 5.15625 11.8359C4.78827 12.5103 4.48879 13.2134 4.25781 13.9453C4.16679 14.03 4.06263 14.0951 3.94531 14.1406C3.45646 14.2401 2.97469 14.3573 2.5 14.4922C2.44792 14.8047 2.44792 15.1172 2.5 15.4297C3.06581 15.5612 3.62571 15.7174 4.17969 15.8984C4.46668 16.6413 4.79221 17.3704 5.15625 18.0859C5.20834 18.2422 5.20834 18.3984 5.15625 18.5547C4.89257 18.991 4.61913 19.4207 4.33594 19.8438C4.58334 20.0912 4.83073 20.3385 5.07813 20.5859C5.5401 20.2145 6.04791 19.928 6.60156 19.7266C7.33763 20.0684 8.09281 20.3678 8.86719 20.625C8.9882 20.7198 9.0793 20.837 9.14063 20.9766C9.26711 21.4657 9.35828 21.9605 9.41406 22.4609C9.59633 22.4609 9.77867 22.4609 9.96094 22.4609C9.96094 21.2109 9.96094 19.9609 9.96094 18.7109C7.99719 18.6356 6.7602 17.6461 6.25 15.7422C5.95979 14.006 6.54573 12.6648 8.00781 11.7188C8.72492 11.6554 8.99836 11.9809 8.82813 12.6953C7.49368 13.6259 7.18118 14.8238 7.89063 16.2891C8.38789 17.013 9.07805 17.3776 9.96094 17.3828C9.94789 12.7994 9.96094 8.21609 10 3.63281C10.3398 2.36864 11.1341 1.56134 12.3828 1.21094ZM13.0859 2.46094C17.6694 2.44792 22.2527 2.46094 26.8359 2.5C27.9166 2.64323 28.5287 3.25521 28.6719 4.33594C28.683 14.7634 28.683 25.1801 28.6719 35.5859C28.5287 36.6666 27.9166 37.2787 26.8359 37.4219C22.2526 37.474 17.6693 37.474 13.0859 37.4219C12.0052 37.2787 11.3932 36.6666 11.25 35.5859C11.1979 25.1693 11.1979 14.7526 11.25 4.33594C11.4085 3.25307 12.0205 2.62807 13.0859 2.46094Z" fill="#7444FD"/>
<path opacity="0.976" fill-rule="evenodd" clip-rule="evenodd" d="M17.7733 3.71093C19.2319 3.69792 20.6902 3.71094 22.1483 3.75C22.2915 3.78906 22.3827 3.88021 22.4217 4.02343C22.4738 4.23177 22.4738 4.4401 22.4217 4.64843C22.3827 4.79166 22.2915 4.88281 22.1483 4.92187C20.6899 4.97396 19.2316 4.97396 17.7733 4.92187C17.5377 4.80245 17.4335 4.60714 17.4608 4.33593C17.4438 4.05736 17.548 3.84902 17.7733 3.71093Z" fill="#7444FD"/>
<path opacity="0.893" fill-rule="evenodd" clip-rule="evenodd" d="M32.7735 6.21097C33.5414 6.08044 33.8409 6.39294 33.6719 7.14847C33.4817 7.51752 33.1821 7.63471 32.7735 7.50004C32.6617 7.46369 32.5706 7.39858 32.5 7.30472C32.4479 7.04431 32.4479 6.78389 32.5 6.52347C32.5539 6.37893 32.645 6.27475 32.7735 6.21097Z" fill="#7444FD"/>
<path opacity="0.893" fill-rule="evenodd" clip-rule="evenodd" d="M32.7735 8.71098C33.5414 8.58043 33.8409 8.89293 33.6719 9.64848C33.4817 10.0175 33.1821 10.1347 32.7735 10C32.6617 9.96371 32.5706 9.89856 32.5 9.80473C32.4479 9.54434 32.4479 9.28387 32.5 9.02348C32.5539 8.87895 32.645 8.77473 32.7735 8.71098Z" fill="#7444FD"/>
<path opacity="0.893" fill-rule="evenodd" clip-rule="evenodd" d="M32.7735 11.211C33.5414 11.0804 33.8409 11.3929 33.6719 12.1485C33.4817 12.5175 33.1821 12.6347 32.7735 12.5C32.6617 12.4637 32.5706 12.3986 32.5 12.3047C32.4479 12.0443 32.4479 11.7839 32.5 11.5235C32.5539 11.3789 32.645 11.2747 32.7735 11.211Z" fill="#7444FD"/>
<path opacity="0.906" fill-rule="evenodd" clip-rule="evenodd" d="M16.5234 16.836C17.2914 16.7054 17.5909 17.0179 17.4219 17.7735C16.746 18.5144 16.0559 19.2436 15.3516 19.961C16.0559 20.6783 16.746 21.4075 17.4219 22.1485C17.5419 23.0076 17.1903 23.2811 16.3672 22.9688C15.5209 22.1225 14.6745 21.2761 13.8281 20.4297C13.6719 20.1172 13.6719 19.8047 13.8281 19.4922C14.7184 18.5889 15.6168 17.7035 16.5234 16.836Z" fill="#7444FD"/>
<path opacity="0.934" fill-rule="evenodd" clip-rule="evenodd" d="M20.2735 16.8359C21.0767 16.7222 21.3761 17.0607 21.1719 17.8515C20.7674 19.4955 20.3507 21.1361 19.9219 22.7734C19.8828 22.9166 19.7917 23.0078 19.6485 23.0468C18.8444 23.1994 18.5449 22.8739 18.75 22.0703C19.1564 20.3666 19.5991 18.6739 20.0781 16.9921C20.1559 16.9479 20.221 16.8958 20.2735 16.8359Z" fill="#7444FD"/>
<path opacity="0.907" fill-rule="evenodd" clip-rule="evenodd" d="M22.7737 16.836C23.0454 16.8113 23.3059 16.8504 23.5549 16.9532C24.4012 17.7995 25.2476 18.6459 26.094 19.4923C26.2502 19.8048 26.2502 20.1173 26.094 20.4298C25.2476 21.2761 24.4012 22.1225 23.5549 22.9688C22.7318 23.2811 22.3802 23.0077 22.5002 22.1485C23.1761 21.4076 23.8662 20.6784 24.5705 19.961C23.9206 19.272 23.2566 18.5949 22.5784 17.9298C22.3772 17.5027 22.4423 17.1381 22.7737 16.836Z" fill="#7444FD"/>
<path opacity="0.889" fill-rule="evenodd" clip-rule="evenodd" d="M6.60144 27.3048C7.32059 27.2818 7.59402 27.6204 7.42175 28.3204C7.06169 28.8076 6.67106 28.8336 6.24987 28.3986C6.10849 27.9313 6.22568 27.5667 6.60144 27.3048Z" fill="#7444FD"/>
<path opacity="0.889" fill-rule="evenodd" clip-rule="evenodd" d="M6.60144 29.8048C7.32059 29.7818 7.59402 30.1204 7.42175 30.8204C7.06169 31.3076 6.67106 31.3336 6.24987 30.8986C6.10849 30.4313 6.22568 30.0667 6.60144 29.8048Z" fill="#7444FD"/>
<path opacity="0.889" fill-rule="evenodd" clip-rule="evenodd" d="M6.60144 32.3048C7.32059 32.2818 7.59402 32.6204 7.42175 33.3204C7.06169 33.8076 6.67106 33.8336 6.24987 33.3986C6.10849 32.9313 6.22568 32.5667 6.60144 32.3048Z" fill="#7444FD"/>
</svg>
