<svg width="40" height="40" viewBox="0 0 40 40" fill="none" xmlns="http://www.w3.org/2000/svg">
<path d="M30.487 29.7781H8.98913C8.73827 29.7781 8.53467 29.5729 8.53467 29.32V29.3063C8.53467 29.0718 8.711 28.8748 8.94278 28.851C10.0053 28.7401 10.8061 27.8433 10.8061 26.765V0.458054C10.8061 0.205208 11.0097 0 11.2605 0H30.487C30.7379 0 30.9415 0.205208 30.9415 0.458054V29.3209C30.9415 29.5738 30.7379 29.7781 30.487 29.7781ZM10.877 28.862H30.0326V0.916107H11.715V26.7659C11.715 27.5776 11.3987 28.3187 10.877 28.862Z" fill="white"/>
<path d="M8.72578 29.778C7.07699 29.778 5.73633 28.4259 5.73633 26.765C5.73633 26.5121 5.93993 26.3069 6.19079 26.3069H11.2608C11.5116 26.3069 11.7152 26.5121 11.7152 26.765C11.7152 28.4268 10.3746 29.778 8.72578 29.778ZM6.69524 27.223C6.90339 28.1602 7.73506 28.8619 8.72578 28.8619C9.71651 28.8619 10.5482 28.1593 10.7563 27.223H6.69524ZM27.6769 7.11904H14.0712C13.8203 7.11904 13.6167 6.91383 13.6167 6.66099V3.30437C13.6167 3.05152 13.8203 2.84631 14.0712 2.84631H27.6769C27.9277 2.84631 28.1313 3.05152 28.1313 3.30437V6.66099C28.1313 6.91475 27.9277 7.11904 27.6769 7.11904ZM14.5256 6.20293H27.2224V3.76242H14.5256V6.20293ZM26.3308 10.4766H15.4173C15.1664 10.4766 14.9628 10.2714 14.9628 10.0185C14.9628 9.76567 15.1664 9.56047 15.4173 9.56047H26.3299C26.5807 9.56047 26.7843 9.76567 26.7843 10.0185C26.7843 10.2714 26.5816 10.4766 26.3308 10.4766ZM26.3308 13.8332H15.4173C15.1664 13.8332 14.9628 13.628 14.9628 13.3751C14.9628 13.1223 15.1664 12.9171 15.4173 12.9171H26.3299C26.5807 12.9171 26.7843 13.1223 26.7843 13.3751C26.7843 13.628 26.5816 13.8332 26.3308 13.8332ZM26.3308 17.1898H15.4173C15.1664 17.1898 14.9628 16.9846 14.9628 16.7318C14.9628 16.4789 15.1664 16.2737 15.4173 16.2737H26.3299C26.5807 16.2737 26.7843 16.4789 26.7843 16.7318C26.7843 16.9846 26.5816 17.1898 26.3308 17.1898ZM22.8323 23.2031C22.6151 22.9668 22.3515 22.7909 22.047 22.6791C21.7516 22.571 21.3662 22.4629 20.9018 22.3603C20.3909 22.2449 20.0428 22.1285 19.8674 22.0149C19.7065 21.9105 19.6283 21.7548 19.6283 21.5395C19.6283 21.294 19.7329 21.1117 19.9474 20.9825C20.1728 20.8469 20.4727 20.7782 20.8381 20.7782C21.2399 20.7782 21.5507 20.8634 21.7625 21.032C21.9098 21.1492 22.0134 21.3114 22.0706 21.5138C22.1279 21.7163 22.3215 21.8519 22.5296 21.8345L22.5387 21.8336C22.6687 21.8226 22.7869 21.7557 22.8623 21.6485C22.9387 21.5413 22.9632 21.4057 22.9305 21.2775C22.8387 20.9184 22.646 20.6234 22.3588 20.4008C21.967 20.0966 21.4453 19.9427 20.8081 19.9427C20.1846 19.9427 19.6838 20.0984 19.3184 20.4053C18.9485 20.7159 18.7612 21.1144 18.7612 21.5899C18.7612 22.0104 18.9103 22.3585 19.2057 22.6223C19.4929 22.8798 19.9637 23.0813 20.6054 23.2215C21.2253 23.3561 21.6725 23.4945 21.9325 23.6319C22.1733 23.7592 22.2897 23.9553 22.2897 24.2328C22.2897 24.5013 22.1761 24.7083 21.9416 24.865C21.7007 25.0271 21.3762 25.1096 20.9799 25.1096C20.5545 25.1096 20.1873 25.0097 19.8892 24.8127C19.6647 24.6643 19.5211 24.4545 19.4502 24.1705C19.4249 24.0686 19.3641 23.9791 19.2788 23.9186C19.1936 23.858 19.0895 23.8304 18.9857 23.8407C18.8576 23.8517 18.7412 23.9186 18.6658 24.0221C18.6294 24.0719 18.604 24.129 18.5913 24.1895C18.5786 24.2501 18.5789 24.3126 18.5922 24.373C18.6812 24.7752 18.8812 25.1187 19.1875 25.3963C19.592 25.7637 20.2055 25.9496 21.0108 25.9496C21.6443 25.9496 22.167 25.7811 22.5633 25.4494C22.965 25.1132 23.1686 24.6845 23.1686 24.176C23.1677 23.772 23.055 23.445 22.8323 23.2031Z" fill="white"/>
<path d="M20.8734 26.9317C20.6225 26.9317 20.4189 26.7265 20.4189 26.4737V25.9469C20.4189 25.6941 20.6225 25.4889 20.8734 25.4889C21.1243 25.4889 21.3279 25.6941 21.3279 25.9469V26.4737C21.3279 26.7265 21.1252 26.9317 20.8734 26.9317ZM20.8734 20.4008C20.6225 20.4008 20.4189 20.1956 20.4189 19.9428V19.4169C20.4189 19.1641 20.6225 18.9589 20.8734 18.9589C21.1243 18.9589 21.3279 19.1641 21.3279 19.4169V19.9428C21.3279 20.1956 21.1252 20.4008 20.8734 20.4008Z" fill="white"/>
<path d="M37.7277 31.9768H2.27231C1.01981 31.9768 0 30.9498 0 29.6865V6.00328C0 4.73997 1.01981 3.71301 2.27231 3.71301H11.2607C11.5115 3.71301 11.7151 3.91822 11.7151 4.17107C11.7151 4.42391 11.5115 4.62912 11.2607 4.62912H2.27231C1.52063 4.62912 0.908926 5.24566 0.908926 6.00328V29.6865C0.908926 30.4441 1.52063 31.0607 2.27231 31.0607H37.7277C38.4794 31.0607 39.0911 30.4441 39.0911 29.6865V6.00328C39.0911 5.24566 38.4794 4.62912 37.7277 4.62912H30.4872C30.2363 4.62912 30.0327 4.42391 30.0327 4.17107C30.0327 3.91822 30.2363 3.71301 30.4872 3.71301H37.7277C38.9811 3.71301 40 4.73997 40 6.00328V29.6865C40 30.9489 38.9811 31.9768 37.7277 31.9768Z" fill="white"/>
<path d="M37.3643 29.7781H2.6361C2.38524 29.7781 2.18164 29.5728 2.18164 29.32V6.36967C2.18164 6.11683 2.38524 5.91162 2.6361 5.91162H11.2609C11.5118 5.91162 11.7154 6.11683 11.7154 6.36967C11.7154 6.62252 11.5118 6.82773 11.2609 6.82773H3.09057V28.8619H36.9099V6.82773H30.4874C30.2365 6.82773 30.0329 6.62252 30.0329 6.36967C30.0329 6.11683 30.2365 5.91162 30.4874 5.91162H37.3643C37.6152 5.91162 37.8188 6.11683 37.8188 6.36967V29.32C37.8188 29.5728 37.6152 29.7781 37.3643 29.7781ZM24.2704 37.5888H16.8526C16.7857 37.5888 16.7196 37.5739 16.659 37.5452C16.5985 37.5165 16.545 37.4746 16.5023 37.4226C16.4597 37.3706 16.429 37.3098 16.4124 37.2444C16.3958 37.1791 16.3937 37.1109 16.4063 37.0446L17.4725 31.4325C17.4923 31.3279 17.5477 31.2334 17.6291 31.1655C17.7106 31.0976 17.8131 31.0605 17.9188 31.0606H23.2033C23.4214 31.0606 23.6087 31.2163 23.6496 31.4325L24.7157 37.0446C24.7412 37.1784 24.7057 37.3176 24.6194 37.423C24.5771 37.475 24.5238 37.5169 24.4635 37.5456C24.4031 37.5743 24.3371 37.5891 24.2704 37.5888ZM17.4025 36.6727H23.7205L22.8279 31.9767H18.2951L17.4025 36.6727Z" fill="white"/>
<path d="M27.9313 40H13.1913C12.9404 40 12.7368 39.7948 12.7368 39.542V37.1308C12.7368 36.8779 12.9404 36.6727 13.1913 36.6727H27.9313C28.1822 36.6727 28.3858 36.8779 28.3858 37.1308V39.5411C28.3858 39.7948 28.1822 40 27.9313 40ZM13.6457 39.0839H27.4769V37.5888H13.6457V39.0839Z" fill="white"/>
</svg>
