<svg width="40" height="40" viewBox="0 0 40 40" fill="none" xmlns="http://www.w3.org/2000/svg">
<path d="M30.4873 29.7781H8.98937C8.73851 29.7781 8.53491 29.5729 8.53491 29.32V29.3063C8.53491 29.0718 8.71124 28.8748 8.94302 28.851C10.0056 28.7401 10.8063 27.8433 10.8063 26.765V0.458054C10.8063 0.205208 11.0099 0 11.2608 0H30.4873C30.7381 0 30.9417 0.205208 30.9417 0.458054V29.3209C30.9417 29.5738 30.7381 29.7781 30.4873 29.7781ZM10.8772 28.862H30.0328V0.916107H11.7152V26.7659C11.7152 27.5776 11.3989 28.3187 10.8772 28.862Z" fill="white"/>
<path d="M8.72554 29.7779C7.07675 29.7779 5.73608 28.4257 5.73608 26.7648C5.73608 26.512 5.93968 26.3068 6.19055 26.3068H11.2605C11.5114 26.3068 11.715 26.512 11.715 26.7648C11.715 28.4267 10.3743 29.7779 8.72554 29.7779ZM6.695 27.2229C6.90314 28.1601 7.73481 28.8618 8.72554 28.8618C9.71627 28.8618 10.5479 28.1592 10.7561 27.2229H6.695ZM27.6766 7.11892H14.0709C13.8201 7.11892 13.6165 6.91371 13.6165 6.66086V3.30425C13.6165 3.0514 13.8201 2.84619 14.0709 2.84619H27.6766C27.9275 2.84619 28.1311 3.0514 28.1311 3.30425V6.66086C28.1311 6.91462 27.9275 7.11892 27.6766 7.11892ZM14.5254 6.20281H27.2222V3.7623H14.5254V6.20281ZM26.3305 10.4765H15.4171C15.1662 10.4765 14.9626 10.2712 14.9626 10.0184C14.9626 9.76555 15.1662 9.56034 15.4171 9.56034H26.3296C26.5805 9.56034 26.7841 9.76555 26.7841 10.0184C26.7841 10.2712 26.5814 10.4765 26.3305 10.4765ZM26.3305 13.8331H15.4171C15.1662 13.8331 14.9626 13.6279 14.9626 13.375C14.9626 13.1222 15.1662 12.917 15.4171 12.917H26.3296C26.5805 12.917 26.7841 13.1222 26.7841 13.375C26.7841 13.6279 26.5814 13.8331 26.3305 13.8331ZM26.3305 17.1897H15.4171C15.1662 17.1897 14.9626 16.9845 14.9626 16.7316C14.9626 16.4788 15.1662 16.2736 15.4171 16.2736H26.3296C26.5805 16.2736 26.7841 16.4788 26.7841 16.7316C26.7841 16.9845 26.5814 17.1897 26.3305 17.1897ZM22.8321 23.203C22.6148 22.9667 22.3512 22.7908 22.0468 22.679C21.7514 22.5709 21.366 22.4628 20.9015 22.3602C20.3907 22.2448 20.0426 22.1284 19.8672 22.0148C19.7063 21.9104 19.6281 21.7547 19.6281 21.5394C19.6281 21.2938 19.7326 21.1115 19.9471 20.9824C20.1726 20.8468 20.4725 20.7781 20.8379 20.7781C21.2396 20.7781 21.5505 20.8633 21.7623 21.0318C21.9095 21.1491 22.0131 21.3113 22.0704 21.5137C22.1276 21.7162 22.3213 21.8518 22.5294 21.8344L22.5385 21.8334C22.6685 21.8224 22.7866 21.7556 22.8621 21.6484C22.9384 21.5412 22.9629 21.4056 22.9302 21.2774C22.8384 20.9182 22.6457 20.6233 22.3585 20.4006C21.9668 20.0965 21.445 19.9426 20.8079 19.9426C20.1844 19.9426 19.6835 20.0983 19.3182 20.4052C18.9482 20.7158 18.761 21.1143 18.761 21.5898C18.761 22.0102 18.9101 22.3584 19.2055 22.6222C19.4927 22.8796 19.9635 23.0812 20.6052 23.2213C21.2251 23.356 21.6723 23.4943 21.9322 23.6318C22.1731 23.7591 22.2894 23.9551 22.2894 24.2327C22.2894 24.5011 22.1758 24.7082 21.9413 24.8648C21.7005 25.027 21.376 25.1094 20.9797 25.1094C20.5543 25.1094 20.1871 25.0096 19.889 24.8126C19.6645 24.6642 19.5209 24.4544 19.45 24.1704C19.4247 24.0684 19.3639 23.979 19.2786 23.9185C19.1933 23.8579 19.0893 23.8303 18.9855 23.8406C18.8573 23.8516 18.741 23.9185 18.6656 24.022C18.6291 24.0718 18.6037 24.1289 18.591 24.1894C18.5783 24.2499 18.5786 24.3125 18.5919 24.3729C18.681 24.7751 18.881 25.1186 19.1873 25.3962C19.5917 25.7635 20.2053 25.9495 21.0106 25.9495C21.6441 25.9495 22.1667 25.7809 22.563 25.4493C22.9648 25.1131 23.1684 24.6844 23.1684 24.1759C23.1675 23.7719 23.0548 23.4449 22.8321 23.203Z" fill="white"/>
<path d="M20.8734 26.9319C20.6225 26.9319 20.4189 26.7267 20.4189 26.4738V25.9471C20.4189 25.6942 20.6225 25.489 20.8734 25.489C21.1243 25.489 21.3279 25.6942 21.3279 25.9471V26.4738C21.3279 26.7267 21.1252 26.9319 20.8734 26.9319ZM20.8734 20.4009C20.6225 20.4009 20.4189 20.1957 20.4189 19.9429V19.417C20.4189 19.1642 20.6225 18.959 20.8734 18.959C21.1243 18.959 21.3279 19.1642 21.3279 19.417V19.9429C21.3279 20.1957 21.1252 20.4009 20.8734 20.4009Z" fill="white"/>
<path d="M37.7277 31.9766H2.27231C1.01981 31.9766 0 30.9497 0 29.6864V6.00316C0 4.73985 1.01981 3.71289 2.27231 3.71289H11.2607C11.5115 3.71289 11.7151 3.9181 11.7151 4.17094C11.7151 4.42379 11.5115 4.629 11.2607 4.629H2.27231C1.52063 4.629 0.908926 5.24554 0.908926 6.00316V29.6864C0.908926 30.444 1.52063 31.0605 2.27231 31.0605H37.7277C38.4794 31.0605 39.0911 30.444 39.0911 29.6864V6.00316C39.0911 5.24554 38.4794 4.629 37.7277 4.629H30.4872C30.2363 4.629 30.0327 4.42379 30.0327 4.17094C30.0327 3.9181 30.2363 3.71289 30.4872 3.71289H37.7277C38.9811 3.71289 40 4.73985 40 6.00316V29.6864C40 30.9488 38.9811 31.9766 37.7277 31.9766Z" fill="white"/>
<path d="M37.3641 29.7781H2.63586C2.385 29.7781 2.1814 29.5728 2.1814 29.32V6.36967C2.1814 6.11683 2.385 5.91162 2.63586 5.91162H11.2607C11.5115 5.91162 11.7151 6.11683 11.7151 6.36967C11.7151 6.62252 11.5115 6.82773 11.2607 6.82773H3.09032V28.8619H36.9096V6.82773H30.4872C30.2363 6.82773 30.0327 6.62252 30.0327 6.36967C30.0327 6.11683 30.2363 5.91162 30.4872 5.91162H37.3641C37.615 5.91162 37.8186 6.11683 37.8186 6.36967V29.32C37.8186 29.5728 37.615 29.7781 37.3641 29.7781ZM24.2701 37.5888H16.8524C16.7854 37.5888 16.7193 37.5739 16.6588 37.5452C16.5982 37.5165 16.5447 37.4746 16.5021 37.4226C16.4594 37.3706 16.4287 37.3098 16.4121 37.2444C16.3955 37.1791 16.3935 37.1109 16.4061 37.0446L17.4723 31.4325C17.492 31.3279 17.5474 31.2334 17.6289 31.1655C17.7104 31.0976 17.8128 31.0605 17.9185 31.0606H23.203C23.4212 31.0606 23.6084 31.2163 23.6493 31.4325L24.7155 37.0446C24.7409 37.1784 24.7055 37.3176 24.6191 37.423C24.5769 37.475 24.5236 37.5169 24.4632 37.5456C24.4028 37.5743 24.3369 37.5891 24.2701 37.5888ZM17.4023 36.6727H23.7202L22.8276 31.9767H18.2948L17.4023 36.6727Z" fill="white"/>
<path d="M27.9313 40.0002H13.1913C12.9404 40.0002 12.7368 39.7949 12.7368 39.5421V37.1309C12.7368 36.8781 12.9404 36.6729 13.1913 36.6729H27.9313C28.1822 36.6729 28.3858 36.8781 28.3858 37.1309V39.5412C28.3858 39.7949 28.1822 40.0002 27.9313 40.0002ZM13.6457 39.084H27.4769V37.589H13.6457V39.084Z" fill="white"/>
</svg>
