<svg width="41" height="41" viewBox="0 0 41 41" fill="none" xmlns="http://www.w3.org/2000/svg">
<path d="M39.9947 8.82635L39.0686 8.58877C38.9658 8.26028 38.8335 7.94173 38.6735 7.63697L39.1593 6.81666C39.2257 6.70461 39.2528 6.57365 39.2364 6.44446C39.2201 6.31528 39.1612 6.19521 39.069 6.10322L37.7641 4.80135C37.6722 4.70967 37.5525 4.65109 37.4238 4.63482C37.295 4.61854 37.1645 4.64549 37.0527 4.71143L36.2289 5.19713C35.9228 5.03701 35.603 4.90479 35.2732 4.80205L35.0353 3.87877C35.0028 3.75294 34.9295 3.64146 34.8268 3.56187C34.7241 3.48227 34.5978 3.43908 34.4678 3.43909H32.6225C32.4925 3.43908 32.3662 3.48227 32.2635 3.56187C32.1608 3.64146 32.0875 3.75294 32.055 3.87877L31.8171 4.80205C31.4873 4.90479 31.1675 5.03701 30.8614 5.19713L30.0376 4.71143C29.9258 4.64553 29.7953 4.61861 29.6666 4.63488C29.5378 4.65115 29.4181 4.70971 29.3262 4.80135L28.0213 6.10322C27.9291 6.19521 27.8702 6.31528 27.8538 6.44446C27.8375 6.57365 27.8646 6.70461 27.931 6.81666L28.4168 7.63697C28.2568 7.94174 28.1246 8.26029 28.0217 8.58877L27.0956 8.82635C26.9696 8.85867 26.858 8.93199 26.7782 9.03475C26.6985 9.13751 26.6553 9.26387 26.6553 9.39392V11.235C26.6553 11.3651 26.6985 11.4914 26.7782 11.5942C26.858 11.697 26.9696 11.7703 27.0956 11.8026L28.0217 12.0402C28.1245 12.3687 28.2568 12.6872 28.4168 12.992L27.931 13.8123C27.8646 13.9243 27.8375 14.0553 27.8538 14.1845C27.8702 14.3137 27.9291 14.4337 28.0213 14.5257L29.3262 15.8276C29.4181 15.9192 29.5378 15.9778 29.6665 15.9941C29.7953 16.0104 29.9258 15.9834 30.0376 15.9175L30.8614 15.4318C31.1674 15.5919 31.4873 15.7242 31.8171 15.8269L32.055 16.7502C32.0875 16.876 32.1608 16.9875 32.2635 17.0671C32.3662 17.1467 32.4925 17.1899 32.6225 17.1899H34.4678C34.5978 17.1899 34.7241 17.1467 34.8268 17.0671C34.9295 16.9875 35.0028 16.876 35.0353 16.7502L35.2732 15.8269C35.603 15.7241 35.9229 15.5919 36.2289 15.4318L37.0527 15.9175C37.1645 15.9834 37.295 16.0104 37.4237 15.9941C37.5525 15.9778 37.6722 15.9192 37.7641 15.8276L39.069 14.5257C39.1612 14.4337 39.2201 14.3137 39.2364 14.1845C39.2528 14.0553 39.2257 13.9243 39.1593 13.8123L38.6735 12.992C38.8335 12.6872 38.9657 12.3687 39.0686 12.0402L39.9947 11.8026C40.1207 11.7703 40.2323 11.697 40.312 11.5942C40.3918 11.4914 40.435 11.3651 40.435 11.235V9.39392C40.435 9.26387 40.3918 9.13751 40.312 9.03475C40.2323 8.93199 40.1207 8.85867 39.9947 8.82635ZM39.2631 10.7805L38.4499 10.9891C38.3473 11.0154 38.2538 11.0691 38.1792 11.1444C38.1047 11.2196 38.0519 11.3137 38.0266 11.4166C37.9157 11.8672 37.7367 12.2984 37.4957 12.695C37.4406 12.7857 37.4112 12.8897 37.4107 12.9959C37.4101 13.102 37.4383 13.2063 37.4924 13.2977L37.9189 14.0177L37.2573 14.6777L36.5334 14.251C36.4423 14.1973 36.3384 14.1693 36.2326 14.1698C36.1269 14.1704 36.0233 14.1996 35.9328 14.2542C35.5347 14.4949 35.1024 14.6736 34.6506 14.7842C34.5477 14.8095 34.4536 14.8621 34.3782 14.9366C34.3029 15.011 34.2491 15.1045 34.2227 15.2071L34.0137 16.018H33.0764L32.8675 15.2071C32.841 15.1045 32.7873 15.011 32.7119 14.9366C32.6366 14.8621 32.5425 14.8095 32.4396 14.7842C31.9878 14.6736 31.5554 14.4949 31.1574 14.2542C31.0669 14.1996 30.9633 14.1704 30.8575 14.1698C30.7518 14.1692 30.6479 14.1973 30.5568 14.251L29.8328 14.6777L29.1712 14.0177L29.5977 13.2977C29.6518 13.2063 29.6801 13.102 29.6795 12.9959C29.6789 12.8897 29.6495 12.7857 29.5944 12.695C29.3534 12.2984 29.1744 11.8673 29.0636 11.4166C29.0382 11.3137 28.9855 11.2196 28.9109 11.1444C28.8364 11.0691 28.7428 11.0154 28.6402 10.9891L27.827 10.7805V9.84853L28.6402 9.63994C28.7428 9.6136 28.8364 9.55994 28.9109 9.48466C28.9855 9.40938 29.0382 9.31531 29.0636 9.21244C29.1745 8.76178 29.3535 8.33067 29.5944 7.934C29.6495 7.84327 29.6789 7.73928 29.6795 7.63313C29.6801 7.52698 29.6518 7.42268 29.5977 7.33135L29.1712 6.61135L29.8328 5.95127L30.5568 6.37807C30.6479 6.43175 30.7518 6.45979 30.8575 6.45922C30.9633 6.45864 31.0669 6.42946 31.1574 6.37479C31.5554 6.13415 31.9878 5.95544 32.4396 5.84479C32.5425 5.81956 32.6366 5.76692 32.7119 5.69245C32.7873 5.61798 32.841 5.52448 32.8675 5.4219L33.0764 4.61096H34.0137L34.2227 5.4219C34.2491 5.52448 34.3029 5.61798 34.3782 5.69245C34.4536 5.76692 34.5477 5.81956 34.6506 5.84479C35.1024 5.95542 35.5347 6.13413 35.9328 6.37479C36.0233 6.42946 36.1269 6.45864 36.2326 6.45922C36.3384 6.45979 36.4423 6.43175 36.5334 6.37807L37.2573 5.95127L37.9189 6.61135L37.4924 7.33135C37.4383 7.42268 37.4101 7.52698 37.4107 7.63313C37.4112 7.73928 37.4406 7.84327 37.4957 7.934C37.7367 8.33067 37.9157 8.76177 38.0266 9.21244C38.0519 9.31531 38.1047 9.40938 38.1792 9.48466C38.2538 9.55994 38.3473 9.6136 38.4499 9.63994L39.2631 9.84853V10.7805Z" fill="#7444FD"/>
<path d="M35.5448 8.57195C35.4772 8.60862 35.4174 8.65826 35.3689 8.71802C35.3205 8.77779 35.2843 8.84652 35.2624 8.92029C35.2405 8.99405 35.2333 9.07141 35.2413 9.14794C35.2493 9.22447 35.2723 9.29868 35.309 9.36632C36.0365 10.66 35.0329 12.3376 33.545 12.3122C31.129 12.254 30.8031 8.87015 33.1612 8.35398C33.2368 8.33939 33.3087 8.31006 33.3729 8.26767C33.4371 8.22528 33.4924 8.17065 33.5355 8.10691C33.5786 8.04317 33.6087 7.97157 33.6241 7.89618C33.6395 7.8208 33.64 7.74312 33.6254 7.66757C33.6108 7.59201 33.5815 7.52007 33.5391 7.45584C33.4967 7.39162 33.4421 7.33638 33.3783 7.29327C33.3146 7.25017 33.243 7.22005 33.1676 7.20463C33.0922 7.18922 33.0145 7.18881 32.939 7.20343C29.1992 8.02195 29.7151 13.3914 33.545 13.4841C35.914 13.5131 37.4911 10.8738 36.339 8.80781C36.3024 8.74016 36.2528 8.68039 36.193 8.63192C36.1333 8.58346 36.0645 8.54724 35.9908 8.52533C35.917 8.50343 35.8397 8.49627 35.7632 8.50427C35.6866 8.51227 35.6124 8.53527 35.5448 8.57195ZM31.0597 20.2038H29.3351C27.9297 17.4198 25.6515 15.2224 22.8336 13.9214C27.6135 8.95273 24.0194 0.475629 17.052 0.496254C10.085 0.475551 6.49039 8.95406 11.2707 13.9214C8.45281 15.2225 6.17453 17.4199 4.76922 20.2039H3.04454C1.48977 20.2039 0.233367 21.6505 0.463914 23.1944L2.28844 35.4136C2.38368 36.0514 2.71227 36.6101 3.17875 37.0078C1.85751 38.2307 2.72704 40.4978 4.55532 40.4962H29.549C31.3679 40.5007 32.2528 38.2325 30.9255 37.0077C31.392 36.61 31.7206 36.0513 31.8158 35.4136L33.6404 23.1944C33.87 21.6554 32.6194 20.2038 31.0597 20.2038ZM17.0521 1.66813C20.799 1.66813 23.8473 4.71156 23.8473 8.45249C23.5058 17.4405 10.5969 17.438 10.2568 8.45242C10.2569 4.71156 13.3052 1.66813 17.0521 1.66813ZM12.2287 14.781C14.8983 16.929 19.2062 16.9288 21.8755 14.781C24.483 15.8609 26.6252 17.76 28.0066 20.2038H6.09766C7.47906 17.7601 9.62125 15.861 12.2287 14.781ZM32.4812 23.0214L30.6567 35.2405C30.5526 35.9376 29.9415 36.4633 29.2351 36.4633H9.81101C9.05344 36.4633 9.05344 37.6352 9.81101 37.6352H29.549C30.0144 37.6352 30.3931 38.0139 30.3931 38.4802C30.3931 38.9457 30.0144 39.3243 29.549 39.3243H4.55524C3.44289 39.2846 3.43149 37.6795 4.55524 37.6352H6.69117C7.44875 37.6352 7.44875 36.4633 6.69117 36.4633H4.86906C4.16274 36.4633 3.55157 35.9376 3.4475 35.2405L1.62305 23.0214C1.49516 22.1653 2.18024 21.3758 3.04461 21.3758H31.0597C31.924 21.3757 32.6091 22.1653 32.4812 23.0214Z" fill="#7444FD"/>
<path d="M17.0522 25.3678C15.0913 25.3678 13.4961 26.9611 13.4961 28.9195C13.6748 33.6248 20.4303 33.6235 20.6083 28.9194C20.6083 26.9611 19.013 25.3678 17.0522 25.3678ZM17.0522 31.2994C15.7375 31.2994 14.668 30.2318 14.668 28.9196C14.7877 25.7668 19.3171 25.7676 19.4364 28.9196C19.4364 30.2318 18.3669 31.2994 17.0522 31.2994Z" fill="#7444FD"/>
</svg>
