<svg width="40" height="40" viewBox="0 0 40 40" fill="none" xmlns="http://www.w3.org/2000/svg">
<path d="M39.4531 16.3281H36.445C36.0248 14.4251 35.2738 12.6106 34.2262 10.9672L36.3512 8.84219C36.4021 8.79143 36.4424 8.73114 36.4699 8.66479C36.4974 8.59843 36.5116 8.5273 36.5116 8.45547C36.5116 8.38364 36.4974 8.31251 36.4699 8.24615C36.4424 8.1798 36.4021 8.11951 36.3512 8.06875L31.9325 3.64813C31.8299 3.54563 31.6908 3.48806 31.5458 3.48806C31.4008 3.48806 31.2617 3.54563 31.1591 3.64813L29.0341 5.77313C27.3906 4.72561 25.5761 3.97463 23.6731 3.55438V0.546876C23.6731 0.474954 23.6589 0.403739 23.6314 0.337307C23.6038 0.270876 23.5634 0.210533 23.5125 0.159735C23.4616 0.108936 23.4012 0.0686799 23.3347 0.0412705C23.2682 0.0138611 23.1969 -0.000162964 23.125 1.4287e-06H16.875C16.73 8.42234e-05 16.5909 0.0577278 16.4884 0.160269C16.3859 0.26281 16.3282 0.401862 16.3281 0.546876V3.55531C14.425 3.97554 12.6104 4.72651 10.9669 5.77406L8.84188 3.64906C8.73927 3.54657 8.60018 3.489 8.45516 3.489C8.31013 3.489 8.17104 3.54657 8.06844 3.64906L3.64813 8.0675C3.54563 8.1701 3.48806 8.3092 3.48806 8.45422C3.48806 8.59924 3.54563 8.73834 3.64813 8.84094L5.77313 10.9659C4.72572 12.6095 3.97476 14.4241 3.55438 16.3272H0.546875C0.474991 16.3272 0.40382 16.3414 0.337427 16.369C0.271035 16.3965 0.210722 16.4369 0.159936 16.4878C0.10915 16.5387 0.0688856 16.599 0.0414432 16.6655C0.0140007 16.7319 -8.17609e-05 16.8031 3.57073e-07 16.875V23.125C8.31518e-05 23.27 0.0577268 23.4091 0.160268 23.5116C0.262809 23.6142 0.401861 23.6718 0.546875 23.6719H3.555C3.97538 25.575 4.72635 27.3895 5.77375 29.0331L3.64875 31.1581C3.54626 31.2607 3.48868 31.3998 3.48868 31.5448C3.48868 31.6899 3.54626 31.829 3.64875 31.9316L8.06813 36.3509C8.17073 36.4534 8.30982 36.511 8.45484 36.511C8.59987 36.511 8.73896 36.4534 8.84156 36.3509L10.9666 34.2259C12.6101 35.2735 14.4247 36.0245 16.3278 36.4447V39.4531C16.3279 39.5982 16.3856 39.7373 16.4882 39.8398C16.5908 39.9424 16.7299 40 16.875 40H23.125C23.27 40 23.4091 39.9424 23.5117 39.8398C23.6143 39.7373 23.6719 39.5982 23.6719 39.4531V36.4447C25.5749 36.0244 27.3894 35.2735 29.0328 34.2259L31.1578 36.3509C31.2604 36.4534 31.3995 36.511 31.5445 36.511C31.6896 36.511 31.8286 36.4534 31.9312 36.3509L36.3506 31.9316C36.4015 31.8808 36.4418 31.8205 36.4693 31.7542C36.4968 31.6878 36.5109 31.6167 36.5109 31.5448C36.5109 31.473 36.4968 31.4019 36.4693 31.3355C36.4418 31.2692 36.4015 31.2089 36.3506 31.1581L34.2256 29.0331C35.2732 27.3897 36.0242 25.5752 36.4444 23.6722H39.4525C39.5244 23.6723 39.5956 23.6582 39.662 23.6307C39.7285 23.6032 39.7889 23.5629 39.8397 23.5121C39.8906 23.4613 39.9309 23.4009 39.9584 23.3345C39.9859 23.2681 40 23.1969 40 23.125V16.875C40 16.73 39.9424 16.5909 39.8398 16.4883C39.7373 16.3857 39.5982 16.3281 39.4531 16.3281ZM38.9062 22.5781H36C35.873 22.5781 35.75 22.6223 35.652 22.7031C35.5541 22.7839 35.4873 22.8963 35.4631 23.0209C35.0642 25.0889 34.2505 27.0546 33.0709 28.7994C33 28.9046 32.9679 29.0313 32.9801 29.1576C32.9923 29.284 33.048 29.4021 33.1378 29.4919L35.1919 31.5456L31.5456 35.1919L29.4919 33.1381C29.4022 33.0482 29.2841 32.9923 29.1577 32.9801C29.0313 32.9679 28.9046 33.0001 28.7994 33.0713C27.0545 34.2507 25.0887 35.0644 23.0206 35.4631C22.896 35.4874 22.7837 35.5542 22.703 35.6521C22.6223 35.7501 22.5781 35.8731 22.5781 36V38.9063H17.4219V36C17.4219 35.873 17.3777 35.75 17.2969 35.652C17.2161 35.5541 17.1037 35.4873 16.9791 35.4631C14.9111 35.0643 12.9455 34.2506 11.2006 33.0713C11.0954 33.0002 10.9687 32.9681 10.8424 32.9803C10.716 32.9925 10.5978 33.0483 10.5081 33.1381L8.45438 35.1916L4.80844 31.5456L6.86188 29.4919C6.95171 29.4022 7.00752 29.284 7.01972 29.1576C7.03193 29.0313 6.99976 28.9046 6.92875 28.7994C5.74939 27.0545 4.93573 25.0889 4.53688 23.0209C4.51271 22.8963 4.44592 22.7839 4.34796 22.7031C4.25 22.6223 4.12698 22.5781 4 22.5781H1.09375V17.4219H4C4.12698 17.4219 4.25 17.3777 4.34796 17.2969C4.44592 17.2161 4.51271 17.1037 4.53688 16.9791C4.93573 14.9111 5.74939 12.9455 6.92875 11.2006C6.99976 11.0954 7.03193 10.9687 7.01972 10.8424C7.00752 10.716 6.95171 10.5978 6.86188 10.5081L4.80844 8.45438L8.45438 4.80844L10.5081 6.86188C10.5978 6.95182 10.7159 7.0077 10.8423 7.01991C10.9687 7.03212 11.0954 6.99988 11.2006 6.92875C12.9455 5.74939 14.9111 4.93573 16.9791 4.53688C17.1037 4.51271 17.2161 4.44592 17.2969 4.34796C17.3777 4.25 17.4219 4.12698 17.4219 4V1.09375H22.5781V4C22.5781 4.12694 22.6223 4.24993 22.703 4.34788C22.7837 4.44583 22.896 4.51265 23.0206 4.53688C25.0887 4.93559 27.0545 5.74926 28.7994 6.92875C28.9046 6.9997 29.0313 7.03183 29.1576 7.01963C29.284 7.00743 29.4021 6.95166 29.4919 6.86188L31.5456 4.80813L35.1919 8.45438L33.1378 10.5081C33.048 10.5979 32.9923 10.716 32.9801 10.8424C32.9679 10.9687 33 11.0954 33.0709 11.2006C34.2505 12.9454 35.0642 14.9111 35.4631 16.9791C35.4873 17.1037 35.5541 17.2161 35.652 17.2969C35.75 17.3777 35.873 17.4219 36 17.4219H38.9062V22.5781Z" fill="white"/>
<path d="M19.9999 7.67822C17.5628 7.67767 15.1803 8.39983 13.1537 9.75339C11.1271 11.107 9.54733 13.0311 8.6143 15.2825C7.68127 17.5339 7.43685 20.0114 7.91193 22.4018C8.38702 24.7921 9.56028 26.9878 11.2833 28.7113C13.0064 30.4348 15.2019 31.6087 17.5921 32.0843C19.9823 32.56 22.4599 32.3162 24.7115 31.3838C26.9631 30.4513 28.8877 28.8721 30.2418 26.8458C31.5958 24.8195 32.3186 22.4372 32.3187 20.0001C32.3154 16.7337 31.0165 13.602 28.7071 11.292C26.3977 8.98198 23.2663 7.68236 19.9999 7.67822ZM19.453 31.2095C18.9221 31.1838 18.3937 31.1204 17.8718 31.0198V17.5985H19.453V31.2095ZM20.5468 17.5998H22.128V31.0185C21.6061 31.1191 21.0777 31.1825 20.5468 31.2082V17.5998ZM22.128 16.506H17.8718V15.5813L19.9999 12.5982L22.128 15.5813V16.506ZM23.2218 30.756V15.4063C23.2218 15.2925 23.1862 15.1814 23.1199 15.0888L20.4452 11.3388C20.3921 11.2716 20.3245 11.2172 20.2474 11.1798C20.1702 11.1424 20.0856 11.1229 19.9999 11.1229C19.9142 11.1229 19.8296 11.1424 19.7525 11.1798C19.6753 11.2172 19.6077 11.2716 19.5546 11.3388L16.8796 15.0888C16.8135 15.1815 16.778 15.2925 16.778 15.4063V30.7532C14.1965 29.9797 11.9794 28.3032 10.5318 26.0301C9.0842 23.7569 8.50273 21.0388 8.89362 18.3724C9.28452 15.7059 10.6217 13.2691 12.6608 11.5071C14.7 9.74511 17.305 8.77554 19.9999 8.77554C22.6949 8.77554 25.2999 9.74511 27.339 11.5071C29.3782 13.2691 30.7153 15.7059 31.1062 18.3724C31.4971 21.0388 30.9156 23.7569 29.468 26.0301C28.0204 28.3032 25.8033 29.9797 23.2218 30.7532V30.756Z" fill="white"/>
</svg>
