<svg width="14" height="16" viewBox="0 0 14 16" fill="none" xmlns="http://www.w3.org/2000/svg">
<path d="M10.4119 4.1542C10.4119 6.09496 8.86254 7.6584 7.00103 7.6584C5.13956 7.6584 3.59025 6.09496 3.59025 4.1542C3.59025 2.21344 5.13953 0.65 7.00103 0.65C8.86254 0.65 10.4119 2.21345 10.4119 4.1542Z" stroke="#7444FD" stroke-width="1.3"/>
<path d="M13.3074 11.7294C13.1936 11.9246 13.0651 12.1129 12.9186 12.3077L12.9185 12.3076L12.9107 12.3184C12.6908 12.6237 12.4336 12.9049 12.1576 13.1872L13.3074 11.7294ZM13.3074 11.7294C13.2299 11.559 13.1338 11.3928 13.0239 11.2304L13.02 11.2247L13.0201 11.2246C12.305 10.1433 11.2129 9.43879 9.99429 9.2626C9.97445 9.26139 9.95662 9.26313 9.94424 9.26598C9.94265 9.26635 9.9413 9.2667 9.94018 9.26701C9.08193 9.91296 8.05965 10.2462 7.0011 10.2462C5.94002 10.2462 4.91539 9.91137 4.05588 9.26238L4.05208 9.25949C4.05206 9.25947 4.05199 9.25943 4.05188 9.25936C4.0515 9.25912 4.0506 9.25857 4.04919 9.25789C4.04843 9.25752 4.04767 9.25719 4.04693 9.25689L4.04384 9.25752L4.02385 9.26033C2.7948 9.43321 1.68287 10.1414 0.985728 11.2192L0.978399 11.2305L0.978283 11.2304C0.868645 11.3924 0.765809 11.5806 0.681264 11.7658C0.792113 11.9499 0.923603 12.1378 1.05282 12.314L1.05608 12.3184L1.05606 12.3185C1.28228 12.6326 1.52281 12.9112 1.79516 13.1734L1.80226 13.1802L1.80915 13.1873C2.02711 13.4102 2.28052 13.6222 2.56506 13.8587C3.84987 14.8367 5.39164 15.3499 6.98338 15.3499C8.5792 15.3499 10.1248 14.8341 11.4116 13.8511C11.6691 13.6535 11.9297 13.4204 12.1576 13.1873L13.3074 11.7294Z" stroke="#7444FD" stroke-width="1.3"/>
</svg>
