<svg width="70" height="70" viewBox="0 0 70 70" fill="none" xmlns="http://www.w3.org/2000/svg">
<rect width="70" height="70" rx="10" fill="url(#paint0_linear_184_80)"/>
<path d="M51.2914 54.6471C51.7887 54.166 51.7391 53.5886 51.774 53.0799C51.774 53.0174 51.6919 34.0141 51.7084 33.7517C51.7464 33.148 51.7943 32.3966 51.3981 31.8517C50.891 31.1609 49.8246 31.3503 48.7889 31.3503L44.0652 31.3289L44.0609 31.3326C42.8541 31.2976 42.0183 31.5318 42.0312 32.73C42.0158 58.438 42.0312 45.4111 42.0312 52.8629C42.0312 53.428 41.9392 54.1519 42.4402 54.6692C42.9798 55.2171 43.8396 55.2135 44.5901 55.192H44.5914L44.622 55.1914C45.0488 55.2055 48.6349 55.2086 48.906 55.1975C50.9817 55.2429 51.1442 54.6974 51.292 54.6459L51.2914 54.6471ZM50.8456 53.2613C50.8333 53.6162 50.8192 53.8246 50.639 53.9931C50.577 54.0103 50.4648 54.3247 48.9606 54.2794L45.0482 54.261C43.5611 54.261 43.5336 54.2285 43.5336 52.8635C43.5336 40.658 43.5213 55.8153 43.5348 32.711C43.5366 32.4597 43.4827 32.3249 44.0431 32.2715C44.27 32.2679 49.1451 32.2697 49.3782 32.2697C49.6265 32.2697 50.4998 32.1814 50.6549 32.3923C50.9216 32.7606 50.7696 33.6242 50.7696 34.182C50.7696 35.7106 50.8983 51.8057 50.8456 53.2613ZM30.4621 54.8641C30.8711 55.1368 31.4617 55.1981 32.0731 55.1981C32.3766 55.1981 36.3441 55.2018 37.2437 55.2018C37.814 55.2018 38.6689 55.162 39.1441 54.8457C39.6776 54.5074 39.6512 54.0747 39.6985 53.6659V53.664C39.7402 53.2558 39.6151 41.7723 39.6151 41.1447C39.6151 40.7867 39.842 39.9679 39.2612 39.4432C38.7339 38.9682 38.361 39.146 32.1295 39.1098C31.0496 39.1092 29.9623 39.0853 29.9814 40.2186C29.9617 40.9302 29.974 51.2853 29.9771 53.6297C29.963 53.9361 29.9366 54.5049 30.4621 54.8641ZM38.6443 40.1254C38.8222 40.2854 38.6952 40.7739 38.6952 41.1447C38.6952 41.6185 38.8154 53.0462 38.7829 53.5745C38.7418 53.9901 38.9644 54.3106 36.9598 54.2794L32.9984 54.2671C32.8745 54.261 31.878 54.337 31.5408 54.1016C31.4157 54.0164 31.4574 54.7918 31.4568 40.1272C31.748 39.9679 32.6771 40.0519 33.0843 40.0353V40.0292L37.3032 40.0353C37.6104 40.0378 38.4824 39.9783 38.6443 40.1254ZM18.9317 45.8261C18.389 45.88 17.9794 46.0578 17.969 46.6063C17.9542 46.9992 17.9616 51.6389 17.9659 54.1666C17.88 55.3317 19.1954 55.2686 20.355 55.2165C21.1338 55.1828 20.5561 55.203 25.1283 55.203C26.6258 55.203 26.8858 55.0302 26.9815 55.0173C27.5585 54.8065 27.5978 54.4062 27.6143 54.2359L27.6198 54.1893C27.675 53.8779 27.5279 47.2125 27.5463 46.9704C27.637 45.7495 26.7282 45.6428 25.6502 45.7011C25.1596 45.7262 20.6095 45.7139 20.672 45.7139C20.3299 45.7103 19.2727 45.6955 18.9317 45.8261ZM25.6998 46.6186C26.7852 46.5622 26.6209 46.5604 26.6209 47.066C26.6209 47.5576 26.7484 53.7241 26.6988 54.1402C26.616 54.1648 26.4866 54.2095 26.2039 54.2426C26.1414 54.2438 20.0196 54.3774 19.3788 54.1611C19.3794 54.1519 19.3738 47.2597 19.3824 46.6787C19.9552 46.5702 24.7236 46.6744 25.6998 46.6186ZM40.3031 27.2438C39.7892 28.1742 40.5055 29.2505 41.524 29.2621L51.6072 29.367C52.7031 29.3657 53.3531 28.1846 52.7975 27.242C50.3305 23.2201 42.5444 23.3819 40.3031 27.2438ZM51.6109 28.4476L41.5345 28.3428C41.2107 28.3391 40.939 27.9965 41.1034 27.6968C42.9798 24.4722 49.9019 24.2688 52.0089 27.7152C52.0541 27.787 52.0793 27.8697 52.082 27.9545C52.0847 28.0394 52.0647 28.1234 52.0241 28.198C51.9835 28.2726 51.9238 28.335 51.8511 28.3789C51.7783 28.4227 51.6958 28.4465 51.6109 28.4476Z" fill="white"/>
<path d="M43.6861 20.9645C43.924 22.4453 44.9616 23.7023 46.5419 23.619C48.4165 23.5362 49.1027 21.9635 49.2296 21.0202C49.8864 20.2602 50.223 19.2373 50.1268 18.2438C50.0372 17.3207 49.4829 17.0044 49.1616 16.8984C49.0587 16.8665 48.9705 16.7992 48.9126 16.7084C48.4416 15.9441 47.8211 15.474 47.0668 15.3122C44.1994 14.6968 41.6888 18.096 43.6861 20.9645ZM46.5008 22.7008C44.9469 22.764 44.6256 21.0362 44.5851 20.7665L44.6072 20.0917C44.6121 19.9145 44.7549 19.7613 44.9708 19.7625C45.8071 19.8025 46.6323 19.5584 47.3121 19.07C47.3661 19.0328 47.4302 19.0129 47.4957 19.0129C47.5613 19.0129 47.6254 19.0328 47.6794 19.07C47.7898 19.1392 47.9063 19.195 48.0265 19.233C48.1841 19.2845 48.2883 19.4113 48.292 19.5578L48.3276 20.8168C48.3092 21.0129 48.105 22.6291 46.5008 22.7008ZM25.038 31.4925L20.1157 39.6099C20.0844 39.6615 20.0635 39.7189 20.0544 39.7786C20.0452 39.8383 20.0479 39.8993 20.0623 39.9579C20.0767 40.0166 20.1026 40.0719 20.1383 40.1206C20.1741 40.1693 20.2191 40.2105 20.2708 40.2418C20.3753 40.305 20.5005 40.3242 20.6191 40.2951C20.6778 40.2807 20.7331 40.2549 20.7818 40.2191C20.8306 40.1834 20.8718 40.1384 20.9031 40.0867L25.8248 31.9693C25.9922 31.6933 26.2195 31.4584 26.49 31.282C26.7605 31.1057 27.0672 30.9924 27.3874 30.9506C27.7076 30.9087 28.0331 30.9394 28.3399 31.0403C28.6466 31.1412 28.9267 31.3098 29.1595 31.5335L29.6869 32.0398C31.0875 33.3882 33.3877 33.1142 34.4252 31.4508L38.543 24.8491L38.7129 25.9094C38.7224 25.969 38.7435 26.0261 38.7751 26.0775C38.8067 26.1289 38.8481 26.1736 38.897 26.209C38.9458 26.2444 39.0012 26.2698 39.0599 26.2838C39.1185 26.2978 39.1794 26.3002 39.239 26.2907C39.2986 26.2812 39.3557 26.26 39.4072 26.2285C39.4586 26.1969 39.5033 26.1555 39.5387 26.1067C39.5741 26.0579 39.5996 26.0025 39.6136 25.9439C39.6276 25.8852 39.6299 25.8244 39.6204 25.7648L39.342 24.0217C39.3205 23.8859 39.2699 23.7564 39.1937 23.642C39.1174 23.5276 39.0174 23.431 38.9003 23.3588C38.7833 23.2867 38.652 23.2406 38.5155 23.2239C38.379 23.2071 38.2405 23.22 38.1095 23.2617L36.4893 23.7777C36.4318 23.796 36.3783 23.8255 36.3322 23.8645C36.286 23.9034 36.2479 23.951 36.2202 24.0047C36.1924 24.0583 36.1755 24.1169 36.1704 24.1771C36.1653 24.2373 36.1721 24.2979 36.1904 24.3554C36.2087 24.413 36.2382 24.4663 36.2772 24.5125C36.3161 24.5587 36.3638 24.5967 36.4175 24.6244C36.4711 24.6522 36.5297 24.6691 36.5899 24.6742C36.6501 24.6793 36.7108 24.6725 36.7684 24.6542L37.7618 24.3625L33.6446 30.9647C33.475 31.2366 33.2468 31.4673 32.9766 31.6398C32.7065 31.8123 32.4012 31.9224 32.0831 31.962C31.765 32.0016 31.442 31.9697 31.1378 31.8686C30.8336 31.7676 30.5557 31.5999 30.3246 31.3778L29.7972 30.871C28.3697 29.498 26.0541 29.8168 25.038 31.4925Z" fill="white"/>
<defs>
<linearGradient id="paint0_linear_184_80" x1="0" y1="0" x2="70" y2="70" gradientUnits="userSpaceOnUse">
<stop stop-color="#AC60E5"/>
<stop offset="1" stop-color="#0C87F0"/>
</linearGradient>
</defs>
</svg>
