<svg width="70" height="70" viewBox="0 0 70 70" fill="none" xmlns="http://www.w3.org/2000/svg">
<rect width="70" height="70" rx="10" fill="url(#paint0_linear_184_84)"/>
<path d="M43.1959 49.329H38.1419C38.0042 49.329 37.872 49.2743 37.7746 49.1769C37.6772 49.0795 37.6225 48.9474 37.6225 48.8096C37.6225 48.6719 37.6772 48.5397 37.7746 48.4423C37.872 48.3449 38.0042 48.2902 38.1419 48.2902H42.8962L49.655 36.6021C49.689 36.5428 49.7343 36.4909 49.7884 36.4493C49.8426 36.4077 49.9044 36.3772 49.9704 36.3596C50.0363 36.342 50.1051 36.3377 50.1728 36.3468C50.2405 36.356 50.3056 36.3785 50.3646 36.413C50.4236 36.4471 50.4754 36.4925 50.5169 36.5466C50.5584 36.6008 50.5888 36.6626 50.6064 36.7285C50.6239 36.7944 50.6283 36.8632 50.6193 36.9308C50.6102 36.9984 50.5879 37.0635 50.5536 37.1225L43.6463 49.0698C43.6005 49.1487 43.5348 49.2141 43.4557 49.2596C43.3767 49.3051 43.2871 49.329 43.1959 49.329ZM31.1723 49.329H26.9234C26.8322 49.3291 26.7427 49.3052 26.6637 49.2597C26.5848 49.2142 26.5192 49.1487 26.4735 49.0698L20.6684 39.0283C20.6006 38.9091 20.5827 38.7678 20.6187 38.6355C20.6546 38.5031 20.7415 38.3903 20.8602 38.3217C20.979 38.2531 21.1201 38.2343 21.2527 38.2694C21.3853 38.3045 21.4987 38.3905 21.5681 38.5089L27.2231 48.2902H31.1723C31.31 48.2902 31.4421 48.3449 31.5396 48.4423C31.637 48.5397 31.6917 48.6719 31.6917 48.8096C31.6917 48.9474 31.637 49.0795 31.5396 49.1769C31.4421 49.2743 31.31 49.329 31.1723 49.329ZM50.3988 33.6335C50.3077 33.6337 50.2181 33.6099 50.1391 33.5644C50.0601 33.5189 49.9945 33.4533 49.949 33.3743L42.8962 21.1751H37.9274C37.7896 21.1751 37.6575 21.1204 37.5601 21.0229C37.4627 20.9255 37.408 20.7934 37.408 20.6557C37.408 20.5179 37.4627 20.3858 37.5601 20.2884C37.6575 20.191 37.7896 20.1362 37.9274 20.1362H43.1965C43.3819 20.1362 43.5538 20.2349 43.6463 20.3959L50.8476 32.8539C50.8933 32.9328 50.9174 33.0223 50.9175 33.1135C50.9176 33.2046 50.8937 33.2942 50.8483 33.3732C50.8028 33.4522 50.7373 33.5179 50.6584 33.5636C50.5795 33.6093 50.49 33.6334 50.3988 33.6335ZM20.8206 31.7278C20.7293 31.7281 20.6394 31.7043 20.5603 31.6587C20.4811 31.6131 20.4154 31.5474 20.3698 31.4682C20.3243 31.3891 20.3004 31.2992 20.3008 31.2079C20.3011 31.1165 20.3256 31.0269 20.3718 30.9481L26.4735 20.3959C26.5191 20.317 26.5847 20.2514 26.6636 20.2058C26.7426 20.1602 26.8322 20.1362 26.9234 20.1362H31.3868C31.5245 20.1362 31.6567 20.191 31.7541 20.2884C31.8515 20.3858 31.9062 20.5179 31.9062 20.6557C31.9062 20.7934 31.8515 20.9255 31.7541 21.0229C31.6567 21.1204 31.5245 21.1751 31.3868 21.1751H27.2231L21.2704 31.468C21.2249 31.5471 21.1594 31.6127 21.0804 31.6583C21.0014 31.7039 20.9118 31.7279 20.8206 31.7278Z" fill="white"/>
<path d="M36.096 51.3725C35.9931 51.3725 35.8926 51.3421 35.8071 51.285C35.7216 51.2279 35.655 51.1467 35.6156 51.0517C35.5763 50.9567 35.5661 50.8521 35.5862 50.7513C35.6063 50.6505 35.6559 50.5579 35.7287 50.4853L50.3225 35.9097C50.421 35.817 50.5517 35.7664 50.6869 35.7685C50.8221 35.7706 50.9512 35.8253 51.0467 35.9209C51.1423 36.0166 51.1968 36.1458 51.1987 36.281C51.2006 36.4162 51.1498 36.5468 51.057 36.6452L36.4632 51.2208C36.3657 51.318 36.2336 51.3726 36.096 51.3725ZM33.2189 51.3725C33.0812 51.3726 32.9491 51.318 32.8516 51.2208L18.2578 36.6457C18.165 36.5473 18.1142 36.4167 18.1161 36.2815C18.118 36.1463 18.1726 36.0171 18.2681 35.9215C18.3636 35.8258 18.4927 35.7711 18.6279 35.769C18.7631 35.7669 18.8938 35.8175 18.9923 35.9102L33.5866 50.4858C33.659 50.5586 33.7083 50.6511 33.7281 50.7519C33.748 50.8526 33.7376 50.9569 33.6983 51.0517C33.659 51.1465 33.5925 51.2276 33.5071 51.2847C33.4218 51.3417 33.3215 51.3723 33.2189 51.3725ZM50.6893 33.9239C50.5516 33.924 50.4195 33.8694 50.322 33.7722L35.7287 19.1971C35.6359 19.0988 35.5851 18.9681 35.587 18.8329C35.5889 18.6977 35.6435 18.5686 35.739 18.4729C35.8346 18.3772 35.9636 18.3225 36.0988 18.3204C36.234 18.3183 36.3647 18.3689 36.4632 18.4616L51.057 33.0372C51.1294 33.11 51.1786 33.2026 51.1985 33.3033C51.2184 33.404 51.208 33.5083 51.1687 33.6031C51.1294 33.698 51.0629 33.779 50.9775 33.8361C50.8922 33.8932 50.7919 33.9237 50.6893 33.9239ZM18.6251 33.9239C18.5222 33.924 18.4217 33.8935 18.3362 33.8364C18.2507 33.7793 18.184 33.6981 18.1447 33.6031C18.1054 33.5081 18.0951 33.4036 18.1153 33.3027C18.1354 33.2019 18.185 33.1093 18.2578 33.0367L32.8522 18.4611C32.9506 18.3684 33.0813 18.3178 33.2165 18.3199C33.3517 18.322 33.4808 18.3767 33.5764 18.4724C33.6719 18.5681 33.7264 18.6972 33.7283 18.8324C33.7302 18.9676 33.6794 19.0982 33.5866 19.1966L18.9923 33.7722C18.9441 33.8204 18.8868 33.8586 18.8238 33.8846C18.7608 33.9107 18.6932 33.924 18.6251 33.9239ZM35.483 42.5339H33.8313C33.5991 42.5339 33.3944 42.3791 33.3311 42.1552L32.8516 40.4557C32.0528 40.1977 31.3178 39.7734 30.695 39.2106L28.9778 39.6454C28.8683 39.6728 28.7529 39.664 28.6489 39.6201C28.5449 39.5763 28.4579 39.4998 28.4012 39.4023L27.5737 37.977C27.5169 37.879 27.4936 37.7651 27.5075 37.6527C27.5214 37.5402 27.5716 37.4354 27.6506 37.3542L28.8879 36.0842C28.7124 35.2652 28.7124 34.4183 28.8879 33.5992L27.6511 32.3329C27.5721 32.2517 27.5217 32.1469 27.5077 32.0345C27.4938 31.9221 27.5169 31.8081 27.5737 31.7101L28.4012 30.2817C28.5175 30.0807 28.7544 29.982 28.9778 30.0381L30.695 30.4728C31.3176 29.9098 32.0527 29.4855 32.8516 29.2278L33.3311 27.5282C33.3944 27.3043 33.5991 27.1495 33.8313 27.1495H35.483C35.7152 27.1495 35.9199 27.3043 35.9833 27.5282L36.4627 29.2278C37.2615 29.4857 37.9965 29.91 38.6193 30.4728L40.3366 30.0381C40.4461 30.0105 40.5616 30.0193 40.6657 30.0633C40.7697 30.1072 40.8566 30.1839 40.9131 30.2817L41.7406 31.7101C41.7975 31.8081 41.8207 31.9221 41.8067 32.0345C41.7927 32.147 41.7423 32.2518 41.6632 32.3329L40.4264 33.5992C40.6012 34.4183 40.6012 35.2651 40.4264 36.0842L41.6637 37.3542C41.7427 37.4354 41.7929 37.5402 41.8068 37.6527C41.8207 37.7651 41.7974 37.879 41.7406 37.977L40.9131 39.4023C40.8564 39.4998 40.7695 39.5763 40.6655 39.6201C40.5615 39.664 40.446 39.6728 40.3366 39.6454L38.6193 39.2106C37.9967 39.7736 37.2616 40.198 36.4627 40.4557L35.9833 42.1552C35.9524 42.2642 35.8869 42.3601 35.7966 42.4284C35.7064 42.4967 35.5963 42.5338 35.483 42.5339ZM34.2245 41.495H35.0898L35.5402 39.8973C35.5906 39.7207 35.7293 39.5836 35.9069 39.5363C36.7374 39.3143 37.4947 38.8773 38.1025 38.2694C38.2324 38.1406 38.4209 38.0892 38.597 38.1333L40.2109 38.5421L40.6436 37.7962L39.4821 36.6031C39.4195 36.5387 39.3747 36.4591 39.352 36.3721C39.3293 36.2852 39.3296 36.1938 39.3528 36.107C39.5743 35.2777 39.5743 34.4047 39.3528 33.5754C39.3296 33.4884 39.3293 33.397 39.3521 33.3099C39.3748 33.2229 39.4198 33.1432 39.4826 33.0788L40.6436 31.8893L40.2109 31.1413L38.597 31.5501C38.5099 31.5722 38.4185 31.5712 38.3318 31.5474C38.2451 31.5235 38.1661 31.4776 38.1025 31.414C37.495 30.8057 36.7376 30.3687 35.9069 30.1471C35.8197 30.1239 35.7401 30.0784 35.6758 30.0151C35.6115 29.9518 35.5648 29.8729 35.5402 29.7861L35.0898 28.1884H34.2245L33.7741 29.7856C33.7238 29.9622 33.5851 30.0994 33.4074 30.1466C32.5769 30.3686 31.8196 30.8056 31.2118 31.4135C31.1482 31.4771 31.0692 31.523 30.9825 31.5469C30.8959 31.5708 30.8045 31.5717 30.7173 31.5496L29.1035 31.1408L28.6708 31.8888L29.8317 33.0783C29.8945 33.1427 29.9395 33.2223 29.9622 33.3094C29.985 33.3964 29.9848 33.4879 29.9615 33.5748C29.7407 34.4043 29.7407 35.2771 29.9615 36.1065C29.9847 36.1933 29.985 36.2847 29.9623 36.3716C29.9397 36.4586 29.8948 36.5381 29.8322 36.6026L28.6708 37.7957L29.1035 38.5416L30.7173 38.1328C30.8944 38.0886 31.0819 38.1401 31.2118 38.2689C31.8193 38.8772 32.5767 39.3142 33.4074 39.5358C33.5851 39.583 33.7238 39.7202 33.7741 39.8968L34.2245 41.495Z" fill="white"/>
<path d="M34.6587 38.8587C32.4402 38.8587 30.6347 37.0568 30.6347 34.8425C30.6347 32.6261 32.4402 30.8232 34.6587 30.8232C36.8761 30.8232 38.6796 32.6266 38.6796 34.8425C38.6796 37.0573 36.8756 38.8587 34.6587 38.8587ZM34.6587 31.862C33.0126 31.862 31.6735 33.199 31.6735 34.8425C31.6735 36.4844 33.0126 37.8199 34.6587 37.8199C36.3032 37.8199 37.6407 36.4844 37.6407 34.8425C37.6396 34.0521 37.325 33.2944 36.766 32.7357C36.2069 32.1769 35.4491 31.8627 34.6587 31.862ZM34.6587 19.9417C33.982 19.9413 33.3332 19.6725 32.8545 19.1943C32.3758 18.716 32.1063 18.0675 32.1052 17.3908C32.1052 16.714 32.3741 16.0649 32.8526 15.5863C33.3312 15.1077 33.9803 14.8389 34.6571 14.8389C35.3339 14.8389 35.983 15.1077 36.4616 15.5863C36.9402 16.0649 37.2091 16.714 37.2091 17.3908C37.2084 18.0671 36.9395 18.7154 36.4614 19.1936C35.9832 19.6719 35.3349 19.9409 34.6587 19.9417ZM34.6587 15.8819C34.2579 15.8817 33.8735 16.0405 33.5895 16.3233C33.3056 16.6062 33.1454 16.99 33.144 17.3908C33.1449 17.792 33.3048 18.1765 33.5887 18.46C33.8727 18.7435 34.2575 18.9027 34.6587 18.9029C35.0595 18.9023 35.4437 18.7428 35.7271 18.4594C36.0104 18.1759 36.1698 17.7916 36.1702 17.3908C36.1693 16.9905 36.0096 16.6068 35.7263 16.324C35.4429 16.0411 35.059 15.8821 34.6587 15.8819ZM17.1847 37.3903C15.7786 37.3903 14.6343 36.2475 14.6343 34.8425C14.635 34.1663 14.9039 33.5179 15.382 33.0397C15.8601 32.5615 16.5084 32.2924 17.1847 32.2916C17.8613 32.292 18.5102 32.5608 18.9889 33.039C19.4676 33.5173 19.7371 34.1658 19.7382 34.8425C19.7382 36.2475 18.5928 37.3903 17.1847 37.3903ZM17.1847 33.3305C16.7839 33.331 16.3996 33.4905 16.1163 33.774C15.8329 34.0574 15.6735 34.4417 15.6731 34.8425C15.674 35.2429 15.8336 35.6266 16.1169 35.9095C16.4003 36.1924 16.7843 36.3513 17.1847 36.3514C17.5854 36.3516 17.9699 36.1928 18.2538 35.91C18.5377 35.6271 18.6979 35.2433 18.6993 34.8425C18.6986 34.4412 18.5387 34.0567 18.2548 33.7732C17.9708 33.4897 17.5859 33.3305 17.1847 33.3305ZM52.1296 37.3903C50.7214 37.3903 49.5761 36.2475 49.5761 34.8425C49.5772 34.1658 49.8467 33.5173 50.3254 33.039C50.8041 32.5608 51.4529 32.292 52.1296 32.2916C52.8058 32.2924 53.4541 32.5615 53.9323 33.0397C54.4104 33.5179 54.6793 34.1663 54.68 34.8425C54.6789 35.5183 54.4098 36.1661 53.9316 36.6438C53.4535 37.1214 52.8054 37.3899 52.1296 37.3903ZM52.1296 33.3305C51.7284 33.3306 51.3436 33.4899 51.0597 33.7733C50.7757 34.0568 50.6158 34.4413 50.615 34.8425C50.6162 35.2433 50.7764 35.6273 51.0603 35.9101C51.3442 36.193 51.7288 36.3517 52.1296 36.3514C52.53 36.3512 52.9139 36.1922 53.1972 35.9093C53.4805 35.6265 53.6402 35.2428 53.6411 34.8425C53.6407 34.4417 53.4813 34.0574 53.198 33.774C52.9146 33.4905 52.5304 33.331 52.1296 33.3305ZM34.6587 54.8389C33.2505 54.8389 32.1052 53.6961 32.1052 52.2911C32.1063 51.6144 32.3758 50.9658 32.8545 50.4876C33.3332 50.0094 33.982 49.7406 34.6587 49.7402C35.3349 49.741 35.9832 50.01 36.4614 50.4883C36.9395 50.9665 37.2084 51.6148 37.2091 52.2911C37.208 52.9669 36.9388 53.6147 36.4607 54.0923C35.9826 54.57 35.3345 54.8385 34.6587 54.8389ZM34.6587 50.779C34.2575 50.7792 33.8727 50.9384 33.5887 51.2219C33.3048 51.5054 33.1449 51.8899 33.144 52.2911C33.1453 52.6919 33.3054 53.0758 33.5894 53.3587C33.8733 53.6416 34.2579 53.8003 34.6587 53.8C35.059 53.7997 35.4429 53.6408 35.7263 53.3579C36.0096 53.0751 36.1693 52.6914 36.1702 52.2911C36.1698 51.8903 36.0104 51.506 35.7271 51.2225C35.4437 50.9391 35.0595 50.7796 34.6587 50.779Z" fill="white"/>
<path d="M34.6587 45.3512C28.8556 45.3512 24.134 40.6369 24.134 34.8427C24.134 29.0464 28.8556 24.3311 34.6587 24.3311C40.4601 24.3311 45.1802 29.0464 45.1802 34.8427C45.1802 40.6369 40.4601 45.3512 34.6587 45.3512ZM34.6587 25.3699C29.4285 25.3699 25.1729 29.6199 25.1729 34.8427C25.1729 40.0645 29.428 44.3124 34.6587 44.3124C39.8872 44.3124 44.1413 40.064 44.1413 34.8427C44.1413 29.6193 39.8872 25.3699 34.6587 25.3699Z" fill="white"/>
<defs>
<linearGradient id="paint0_linear_184_84" x1="0" y1="0" x2="70" y2="70" gradientUnits="userSpaceOnUse">
<stop stop-color="#AC60E5"/>
<stop offset="1" stop-color="#0C87F0"/>
</linearGradient>
</defs>
</svg>
