<svg width="42" height="40" viewBox="0 0 42 40" fill="none" xmlns="http://www.w3.org/2000/svg">
<path d="M30.4365 33.8241V35.0463C30.4365 35.4537 30.112 35.787 29.7155 35.787C29.3189 35.787 28.9944 35.4537 28.9944 35.0463V33.8241C27.1288 33.5648 25.3442 32.2222 25.3442 30.25C25.3442 29.8426 25.6687 29.5093 26.0652 29.5093C26.4618 29.5093 26.7863 29.8426 26.7863 30.25C26.7863 30.8611 27.1107 31.3148 27.6154 31.7315C28.1472 32.1389 28.8863 32.3889 29.7245 32.3889C30.5807 32.3889 31.3197 32.1296 31.8695 31.6944C32.3562 31.3148 32.6536 30.7963 32.6536 30.2407C32.6536 28.6574 31.1215 28.3704 29.5983 28.0833C27.4803 27.6852 25.3532 27.287 25.3532 24.4815C25.3532 22.5185 27.1288 21.1667 29.0034 20.9074V19.6852C29.0034 19.2778 29.3279 18.9444 29.7245 18.9444C30.121 18.9444 30.4455 19.2778 30.4455 19.6852V20.9259C32.3202 21.1852 34.0957 22.5278 34.0957 24.5C34.0957 24.9074 33.7712 25.2407 33.3747 25.2407C32.9781 25.2407 32.6536 24.9074 32.6536 24.5C32.6536 23.9444 32.3562 23.4352 31.8695 23.0463C30.6979 22.1296 28.7511 22.1296 27.5794 23.0463C27.0927 23.4259 26.7953 23.9444 26.7953 24.5C26.7953 26.0833 28.3275 26.3704 29.8506 26.6574C31.9687 27.0556 34.0957 27.4537 34.0957 30.2593C34.0957 31.2963 33.582 32.2222 32.7438 32.8796C32.1129 33.3704 31.3107 33.7037 30.4365 33.8241ZM29.7155 40C24.3979 40 19.7833 36.5093 18.0979 31.4907H3.22661C1.45107 31.4907 0 30 0 28.1759V8.89815C0 7.07407 1.45107 5.58333 3.22661 5.58333H5.21846V3.31482C5.21846 1.49074 6.66953 0 8.44506 0H27.2099C28.9854 0 30.4365 1.49074 30.4365 3.31482V14.7778C36.9077 15.1667 42 20.6759 42 27.3796C42 34.3519 36.5021 40 29.7155 40ZM17.6923 30.0093C17.4129 28.6759 17.3498 27.2778 17.503 25.9074H8.43605C6.66051 25.9074 5.20944 24.4167 5.20944 22.5926V7.06482H3.22661C2.24421 7.06482 1.44206 7.88889 1.44206 8.89815V28.1759C1.44206 29.1852 2.24421 30.0093 3.22661 30.0093H17.6923ZM17.7644 24.4259C18.2691 22.2593 19.3146 20.3148 20.7476 18.7407H11.8339C11.4373 18.7407 11.1129 18.4074 11.1129 18C11.1129 17.5926 11.4373 17.2593 11.8339 17.2593H22.3519C24.2176 15.8148 26.5069 14.9167 28.9854 14.7685V3.31482C28.9854 2.30556 28.1833 1.48148 27.2009 1.48148H8.43605C7.45365 1.48148 6.6515 2.30556 6.6515 3.31482V22.5926C6.6515 23.6019 7.45365 24.4259 8.43605 24.4259H17.7644ZM22.0455 35.25C26.2815 39.6019 33.1494 39.6019 37.3854 35.25C41.6215 30.8981 41.6215 23.8426 37.3854 19.4907C33.1494 15.1389 26.2815 15.1389 22.0455 19.4907C17.8094 23.8519 17.8094 30.8981 22.0455 35.25ZM11.8249 13.3889C11.4283 13.3889 11.1039 13.0556 11.1039 12.6481C11.1039 12.2407 11.4283 11.9074 11.8249 11.9074H23.821C24.2176 11.9074 24.5421 12.2407 24.5421 12.6481C24.5421 13.0556 24.2176 13.3889 23.821 13.3889H11.8249ZM11.8249 8.02778C11.4283 8.02778 11.1039 7.69444 11.1039 7.28704C11.1039 6.87963 11.4283 6.5463 11.8249 6.5463H16.6017C16.9983 6.5463 17.3227 6.87963 17.3227 7.28704C17.3227 7.69444 16.9983 8.02778 16.6017 8.02778H11.8249Z" fill="url(#paint0_linear_181_55)"/>
<defs>
<linearGradient id="paint0_linear_181_55" x1="-9.85217" y1="2.55141" x2="42.9002" y2="24.1951" gradientUnits="userSpaceOnUse">
<stop stop-color="#0589F0"/>
<stop offset="1" stop-color="#B14EDF"/>
</linearGradient>
</defs>
</svg>
