<svg width="40" height="40" viewBox="0 0 40 40" fill="none" xmlns="http://www.w3.org/2000/svg">
<path d="M34.0599 40C33.8101 40 33.6074 39.797 33.6074 39.5469C33.6074 39.2968 33.8101 39.0938 34.0599 39.0938C35.0943 39.0938 35.9359 38.251 35.9359 37.2151V8.739C35.9359 7.70316 35.0943 6.86035 34.0599 6.86035H30.9585C30.7088 6.86035 30.5061 6.65735 30.5061 6.40723C30.5061 6.1571 30.7088 5.9541 30.9585 5.9541H34.0599C35.5929 5.9541 36.8409 7.20291 36.8409 8.739V37.2151C36.8409 38.7512 35.5929 40 34.0599 40ZM12.7278 40C11.1947 40 9.94678 38.7512 9.94678 37.2151V8.739C9.94678 7.20382 11.1938 5.9541 12.7278 5.9541H15.8291C16.0789 5.9541 16.2816 6.1571 16.2816 6.40723C16.2816 6.65735 16.0789 6.86035 15.8291 6.86035H12.7278C11.6934 6.86035 10.8518 7.70316 10.8518 8.739V37.2151C10.8518 38.251 11.6934 39.0938 12.7278 39.0938C12.9775 39.0938 13.1803 39.2968 13.1803 39.5469C13.1803 39.797 12.9775 40 12.7278 40Z" fill="url(#paint0_linear_181_43)"/>
<path d="M27.5973 11.0028H19.19C17.0869 11.0028 15.3765 9.28995 15.3765 7.18383V5.95858C15.3765 4.52852 16.5385 3.36581 17.9656 3.36581H19.6072C19.8317 1.47265 21.4443 0 23.3937 0C25.343 0 26.9557 1.47265 27.1801 3.36581H28.8208C30.2489 3.36581 31.4099 4.52943 31.4099 5.95858V7.18474C31.4109 9.28995 29.7004 11.0028 27.5973 11.0028ZM17.9656 4.27206C17.0371 4.27206 16.2814 5.02877 16.2814 5.95858V7.18474C16.2814 8.79061 17.5864 10.0974 19.19 10.0974H27.5973C29.2009 10.0974 30.5059 8.79061 30.5059 7.18474V5.95858C30.5059 5.02877 29.7502 4.27206 28.8217 4.27206H26.7547C26.505 4.27206 26.3023 4.06906 26.3023 3.81893C26.3023 2.21306 24.9973 0.906249 23.3937 0.906249C21.79 0.906249 20.4851 2.21306 20.4851 3.81893C20.4851 4.06906 20.2823 4.27206 20.0326 4.27206H17.9656Z" fill="url(#paint1_linear_181_43)"/>
<path d="M23.3938 6.11986C22.1268 6.11986 21.0952 5.08764 21.0952 3.81798C21.0952 2.54833 22.1259 1.51611 23.3938 1.51611C24.6617 1.51611 25.6925 2.54833 25.6925 3.81798C25.6925 5.08764 24.6608 6.11986 23.3938 6.11986ZM23.3938 2.42327C22.6255 2.42327 22.0001 3.04949 22.0001 3.81889C22.0001 4.5883 22.6255 5.21451 23.3938 5.21451C24.1621 5.21451 24.7875 4.5883 24.7875 3.81889C24.7875 3.04949 24.1621 2.42327 23.3938 2.42327ZM32.3793 37.7189H18.0879C17.9667 37.7189 17.8499 37.67 17.7649 37.583C16.2418 36.0261 14.0771 33.8012 12.5287 32.2089C12.4463 32.1243 12.4002 32.0108 12.4001 31.8927V10.3983C12.4001 9.28901 13.3015 8.38729 14.4083 8.38729H16.2662C16.516 8.38729 16.7187 8.59029 16.7187 8.84041C16.7187 9.09054 16.516 9.29354 16.2662 9.29354H14.4083C13.8001 9.29354 13.3051 9.78926 13.3051 10.3983V31.7078C14.7974 33.2421 16.8074 35.3083 18.278 36.8118H32.3784C32.9866 36.8118 33.4816 36.3161 33.4816 35.7071V10.3983C33.4816 9.78926 32.9866 9.29354 32.3784 9.29354H30.5205C30.2707 9.29354 30.068 9.09054 30.068 8.84041C30.068 8.59029 30.2707 8.38729 30.5205 8.38729H32.3784C33.4861 8.38729 34.3866 9.28991 34.3866 10.3983V35.7071C34.3875 36.8163 33.4861 37.7189 32.3793 37.7189Z" fill="url(#paint2_linear_181_43)"/>
<path d="M18.0879 37.7189C17.8382 37.7189 17.6354 37.5159 17.6354 37.2658V33.4514C17.6354 32.8424 17.1404 32.3466 16.5323 32.3466H12.8526C12.6029 32.3466 12.4001 32.1436 12.4001 31.8935C12.4001 31.6434 12.6029 31.4404 12.8526 31.4404H16.5323C17.64 31.4404 18.5404 32.343 18.5404 33.4514V37.2658C18.5404 37.5159 18.3377 37.7189 18.0879 37.7189ZM23.9033 22.7522H22.478C22.0961 22.7522 21.782 22.4658 21.7142 22.0553L21.583 21.2614C21.5504 21.2487 21.5178 21.2351 21.4861 21.2206L20.8327 21.6892C20.4952 21.9311 20.0707 21.9112 19.8011 21.6411L18.7929 20.6316C18.5232 20.3615 18.5033 19.9365 18.7449 19.5984L19.2128 18.9441C19.1992 18.9115 19.1857 18.8798 19.173 18.8472L18.3802 18.7158C17.9703 18.6478 17.6843 18.3333 17.6843 17.9509V16.5235C17.6843 16.1411 17.9703 15.8266 18.3802 15.7587L19.173 15.6273C19.1857 15.5946 19.1992 15.562 19.2137 15.5303L18.7458 14.876C18.5042 14.538 18.5241 14.1129 18.7938 13.8429L19.802 12.8333C20.0716 12.5632 20.4961 12.5433 20.8336 12.7853L21.487 13.2538C21.5196 13.2402 21.5513 13.2266 21.5839 13.2139L21.7151 12.42C21.783 12.0095 22.097 11.7231 22.4789 11.7231H23.9042C24.2861 11.7231 24.6001 12.0095 24.668 12.42L24.7992 13.2139C24.8318 13.2266 24.8644 13.2402 24.8961 13.2538L25.5495 12.7853C25.887 12.5433 26.3115 12.5632 26.5811 12.8333L27.5893 13.8429C27.859 14.1129 27.8789 14.538 27.6373 14.8769L27.1694 15.5312C27.183 15.5638 27.1965 15.5955 27.2092 15.6282L28.002 15.7596C28.4119 15.8275 28.6979 16.142 28.6979 16.5244V17.9518C28.6979 18.3342 28.4119 18.6487 28.002 18.7167L27.2092 18.8481C27.1965 18.8807 27.183 18.9133 27.1685 18.945L27.6363 19.5994C27.878 19.9374 27.8581 20.3624 27.5884 20.6325L26.5802 21.642C26.3096 21.913 25.8852 21.932 25.5477 21.6901L24.8943 21.2215C24.8617 21.2351 24.83 21.2487 24.7974 21.2623L24.6662 22.0562C24.5992 22.4658 24.2852 22.7522 23.9033 22.7522ZM22.5974 21.8459H23.7839L23.9486 20.8518C23.9757 20.685 24.0943 20.5473 24.2544 20.4947C24.4201 20.4403 24.583 20.3733 24.7386 20.2935C24.8888 20.2165 25.0698 20.231 25.2074 20.3289L26.0255 20.9152L26.8644 20.0751L26.2789 19.255C26.2305 19.1875 26.2016 19.108 26.1954 19.0252C26.1892 18.9424 26.2058 18.8595 26.2436 18.7855C26.3232 18.6288 26.3902 18.4665 26.4445 18.3007C26.497 18.1403 26.6345 18.0216 26.8011 17.9944L27.7938 17.8294V16.6432L26.8011 16.4782C26.7193 16.4647 26.6429 16.429 26.58 16.375C26.5171 16.321 26.4703 16.2508 26.4445 16.1719C26.3902 16.0061 26.3223 15.8429 26.2436 15.6871C26.1667 15.5366 26.1811 15.3554 26.2789 15.2176L26.8644 14.3984L26.0255 13.5583L25.2074 14.1446C25.1399 14.1929 25.0606 14.2217 24.9779 14.2279C24.8953 14.2341 24.8125 14.2176 24.7386 14.18C24.583 14.1002 24.4201 14.0332 24.2544 13.9788C24.1757 13.953 24.1056 13.9061 24.0516 13.8431C23.9977 13.7801 23.9621 13.7036 23.9486 13.6217L23.7839 12.6276H22.5974L22.4327 13.6217C22.4192 13.7036 22.3836 13.7801 22.3296 13.8431C22.2757 13.9061 22.2056 13.953 22.1268 13.9788C21.9612 14.0332 21.7983 14.1002 21.6427 14.18C21.4925 14.257 21.3115 14.2425 21.1739 14.1446L20.3558 13.5583L19.5169 14.3984L20.1024 15.2185C20.1508 15.286 20.1797 15.3655 20.1859 15.4483C20.1921 15.5311 20.1754 15.614 20.1377 15.688C20.0586 15.8443 19.9914 16.0064 19.9368 16.1728C19.911 16.2517 19.8642 16.3219 19.8013 16.3759C19.7384 16.4299 19.662 16.4656 19.5802 16.4791L18.5875 16.6441V17.8322L19.5802 17.9971C19.7468 18.0243 19.8843 18.143 19.9368 18.3034C19.9911 18.4693 20.0581 18.6324 20.1377 18.7883C20.2137 18.9387 20.2001 19.1199 20.1024 19.2577L19.5169 20.0769L20.3558 20.917L21.1748 20.3307C21.2422 20.2822 21.3215 20.2533 21.4042 20.2471C21.4869 20.2409 21.5697 20.2576 21.6436 20.2953C21.7992 20.3751 21.9621 20.4422 22.1277 20.4965C22.2879 20.5491 22.4065 20.6868 22.4336 20.8536L22.5974 21.8459Z" fill="url(#paint3_linear_181_43)"/>
<path d="M23.1909 19.5649C21.9085 19.5649 20.866 18.52 20.866 17.2368C20.866 15.9535 21.9094 14.9086 23.1909 14.9086C24.4723 14.9086 25.5157 15.9535 25.5157 17.2368C25.5157 18.52 24.4723 19.5649 23.1909 19.5649ZM23.1909 15.8149C22.408 15.8149 21.7709 16.4529 21.7709 17.2368C21.7709 18.0207 22.408 18.6587 23.1909 18.6587C23.9737 18.6587 24.6108 18.0207 24.6108 17.2368C24.6108 16.4529 23.9737 15.8149 23.1909 15.8149ZM7.60714 33.851H3.61167C3.36189 33.851 3.15918 33.648 3.15918 33.3979V11.6162C3.15918 11.3661 3.36189 11.1631 3.61167 11.1631H7.60714C7.85692 11.1631 8.05963 11.3661 8.05963 11.6162V33.3979C8.05963 33.648 7.85692 33.851 7.60714 33.851ZM4.06416 32.9448H7.15465V12.0693H4.06416V32.9448Z" fill="url(#paint4_linear_181_43)"/>
<path d="M7.60714 12.0695C7.35737 12.0695 7.15465 11.8665 7.15465 11.6164V8.875C7.15465 8.62487 7.35737 8.42188 7.60714 8.42188C7.85692 8.42188 8.05963 8.62487 8.05963 8.875V11.6164C8.05963 11.8674 7.85692 12.0695 7.60714 12.0695ZM3.61167 12.0695C3.36189 12.0695 3.15918 11.8665 3.15918 11.6164V8.875C3.15918 8.62487 3.36189 8.42188 3.61167 8.42188C3.86144 8.42188 4.06416 8.62487 4.06416 8.875V11.6164C4.06416 11.8674 3.86144 12.0695 3.61167 12.0695Z" fill="url(#paint5_linear_181_43)"/>
<path d="M7.60714 9.32894H3.61167C3.36189 9.32894 3.15918 9.12594 3.15918 8.87581V6.43075C3.15918 5.07773 4.25782 3.97754 5.60895 3.97754C6.96008 3.97754 8.05873 5.07863 8.05873 6.43075V8.87581C8.05963 9.12594 7.85692 9.32894 7.60714 9.32894ZM4.06416 8.42269H7.15465V6.43075C7.15465 5.57797 6.46144 4.88379 5.60986 4.88379C4.75827 4.88379 4.06506 5.57797 4.06506 6.43075V8.42269H4.06416ZM7.60714 35.9255H3.61167C3.36189 35.9255 3.15918 35.7225 3.15918 35.4724V33.398C3.15918 33.1479 3.36189 32.9449 3.61167 32.9449H7.60714C7.85692 32.9449 8.05963 33.1479 8.05963 33.398V35.4724C8.05963 35.7225 7.85692 35.9255 7.60714 35.9255ZM4.06416 35.0193H7.15465V33.8511H4.06416V35.0193Z" fill="url(#paint6_linear_181_43)"/>
<path d="M5.6098 40.0001C5.43695 40.0001 5.27949 39.9022 5.20347 39.7464L3.20618 35.6719C3.15336 35.5641 3.14543 35.4397 3.18411 35.326C3.2228 35.2123 3.30494 35.1187 3.41252 35.0656C3.46587 35.0394 3.52386 35.024 3.58318 35.0202C3.64249 35.0164 3.70196 35.0244 3.75819 35.0437C3.81442 35.063 3.8663 35.0932 3.91087 35.1325C3.95544 35.1719 3.99183 35.2197 4.01795 35.2731L5.6089 38.5193L7.19985 35.2731C7.25276 35.1653 7.34622 35.0829 7.45971 35.044C7.57321 35.0051 7.69749 35.0129 7.80528 35.0656C7.91294 35.1186 7.99522 35.2122 8.03407 35.3258C8.07292 35.4395 8.06517 35.5639 8.01252 35.6719L6.01523 39.7464C5.97819 39.8225 5.92054 39.8866 5.84885 39.9315C5.77717 39.9763 5.69434 40.0001 5.6098 40.0001Z" fill="url(#paint7_linear_181_43)"/>
<path d="M6.60452 37.9701C6.55475 37.9701 6.50498 37.9619 6.45611 37.9447C5.90801 37.7526 5.311 37.7526 4.7629 37.9447C4.5267 38.0271 4.26878 37.9021 4.18643 37.6656C4.10407 37.429 4.22896 37.1707 4.46516 37.0883C5.20579 36.8291 6.01231 36.8291 6.75294 37.0883C6.98914 37.1707 7.11403 37.429 7.03167 37.6656C7.00104 37.7546 6.94341 37.8317 6.86682 37.8863C6.79024 37.9409 6.69853 37.9702 6.60452 37.9701ZM5.60995 28.3239C5.36018 28.3239 5.15747 28.1209 5.15747 27.8708V17.1436C5.15747 16.8934 5.36018 16.6904 5.60995 16.6904C5.85973 16.6904 6.06244 16.8934 6.06244 17.1436V27.8708C6.06244 28.1218 5.85973 28.3239 5.60995 28.3239ZM29.4679 25.5109H16.914C16.6643 25.5109 16.4615 25.3079 16.4615 25.0578C16.4615 24.8077 16.6643 24.6047 16.914 24.6047H29.4679C29.7176 24.6047 29.9204 24.8077 29.9204 25.0578C29.9204 25.3079 29.7176 25.5109 29.4679 25.5109ZM29.4679 28.1871H16.914C16.6643 28.1871 16.4615 27.9841 16.4615 27.734C16.4615 27.4838 16.6643 27.2808 16.914 27.2808H29.4679C29.7176 27.2808 29.9204 27.4838 29.9204 27.734C29.9204 27.9841 29.7176 28.1871 29.4679 28.1871ZM39.5475 40H0.452489C0.202715 40 0 39.7971 0 39.5469C0 39.2968 0.202715 39.0938 0.452489 39.0938H39.5475C39.7973 39.0938 40 39.2968 40 39.5469C40 39.7971 39.7973 40 39.5475 40Z" fill="url(#paint8_linear_181_43)"/>
<defs>
<linearGradient id="paint0_linear_181_43" x1="3.63807" y1="8.12573" x2="39.6706" y2="19.2478" gradientUnits="userSpaceOnUse">
<stop stop-color="#0589F0"/>
<stop offset="1" stop-color="#B14EDF"/>
</linearGradient>
<linearGradient id="paint1_linear_181_43" x1="11.6154" y1="0.701814" x2="29.3829" y2="10.8188" gradientUnits="userSpaceOnUse">
<stop stop-color="#0589F0"/>
<stop offset="1" stop-color="#B14EDF"/>
</linearGradient>
<linearGradient id="paint2_linear_181_43" x1="7.24267" y1="3.82532" x2="37.7864" y2="11.0736" gradientUnits="userSpaceOnUse">
<stop stop-color="#0589F0"/>
<stop offset="1" stop-color="#B14EDF"/>
</linearGradient>
<linearGradient id="paint3_linear_181_43" x1="8.5771" y1="13.3813" x2="31.139" y2="18.9084" gradientUnits="userSpaceOnUse">
<stop stop-color="#0589F0"/>
<stop offset="1" stop-color="#B14EDF"/>
</linearGradient>
<linearGradient id="paint4_linear_181_43" x1="-2.08512" y1="12.6102" x2="26.4859" y2="23.6113" gradientUnits="userSpaceOnUse">
<stop stop-color="#0589F0"/>
<stop offset="1" stop-color="#B14EDF"/>
</linearGradient>
<linearGradient id="paint5_linear_181_43" x1="2.00965" y1="8.65454" x2="7.64719" y2="11.614" gradientUnits="userSpaceOnUse">
<stop stop-color="#0589F0"/>
<stop offset="1" stop-color="#B14EDF"/>
</linearGradient>
<linearGradient id="paint6_linear_181_43" x1="2.00965" y1="6.01535" x2="9.17504" y2="6.44482" gradientUnits="userSpaceOnUse">
<stop stop-color="#0589F0"/>
<stop offset="1" stop-color="#B14EDF"/>
</linearGradient>
<linearGradient id="paint7_linear_181_43" x1="2.01083" y1="35.337" x2="8.27419" y2="37.744" gradientUnits="userSpaceOnUse">
<stop stop-color="#0589F0"/>
<stop offset="1" stop-color="#B14EDF"/>
</linearGradient>
<linearGradient id="paint8_linear_181_43" x1="-9.38302" y1="18.1772" x2="31.1086" y2="45.3285" gradientUnits="userSpaceOnUse">
<stop stop-color="#0589F0"/>
<stop offset="1" stop-color="#B14EDF"/>
</linearGradient>
</defs>
</svg>
