<svg width="40" height="40" viewBox="0 0 40 40" fill="none" xmlns="http://www.w3.org/2000/svg">
<path d="M40 5.53933C40.0028 4.81114 39.861 4.08965 39.5827 3.41672C39.3045 2.7438 38.8954 2.13283 38.3792 1.61929C37.3401 0.582351 35.9322 0 34.4643 0C32.9964 0 31.5885 0.582351 30.5494 1.61929L13.5098 18.6669C13.3621 18.8152 13.2498 18.9949 13.1812 19.1926L9.92456 28.4866C9.83737 28.7349 9.82282 29.003 9.88262 29.2593C9.94242 29.5157 10.0741 29.7496 10.2622 29.9337C10.4502 30.1178 10.6869 30.2445 10.9445 30.2988C11.202 30.3531 11.4696 30.3328 11.716 30.2402L20.8543 26.8125C21.0364 26.743 21.2018 26.6357 21.3396 26.4977L38.3792 9.45477C38.8948 8.94173 39.3035 8.33151 39.5818 7.65942C39.86 6.98734 40.0021 6.26674 40 5.53933ZM36.4263 7.49936L19.5954 24.3325L13.5132 26.6096L15.6897 20.4009L32.5057 3.58161C33.0254 3.06178 33.7304 2.76975 34.4654 2.76975C35.2005 2.76975 35.9054 3.06178 36.4252 3.58161C36.945 4.10145 37.237 4.80649 37.237 5.54164C37.237 6.27679 36.945 6.98183 36.4252 7.50166L36.4263 7.49936Z" fill="url(#paint0_linear_181_38)"/>
<path d="M1.38336 40H33.5466C33.9135 40 34.2653 39.8542 34.5247 39.5947C34.7842 39.3353 34.9299 38.9834 34.9299 38.6164V22.5327C34.9299 22.1658 34.7842 21.8138 34.5247 21.5544C34.2653 21.2949 33.9135 21.1491 33.5466 21.1491C33.1797 21.1491 32.8278 21.2949 32.5684 21.5544C32.3089 21.8138 32.1632 22.1658 32.1632 22.5327V37.2329H2.76673V7.83252H17.4638C17.8307 7.83252 18.1826 7.68675 18.442 7.42729C18.7014 7.16782 18.8472 6.81591 18.8472 6.44898C18.8472 6.08204 18.7014 5.73013 18.442 5.47066C18.1826 5.2112 17.8307 5.06543 17.4638 5.06543H1.38336C1.01647 5.06543 0.664609 5.2112 0.405178 5.47066C0.145747 5.73013 0 6.08204 0 6.44898V38.6164C0 38.9834 0.145747 39.3353 0.405178 39.5947C0.664609 39.8542 1.01647 40 1.38336 40Z" fill="url(#paint1_linear_181_38)"/>
<defs>
<linearGradient id="paint0_linear_181_38" x1="2.77313" y1="1.93451" x2="41.2191" y2="16.8707" gradientUnits="userSpaceOnUse">
<stop stop-color="#0589F0"/>
<stop offset="1" stop-color="#B14EDF"/>
</linearGradient>
<linearGradient id="paint1_linear_181_38" x1="-8.19371" y1="7.29374" x2="36.2758" y2="24.668" gradientUnits="userSpaceOnUse">
<stop stop-color="#0589F0"/>
<stop offset="1" stop-color="#B14EDF"/>
</linearGradient>
</defs>
</svg>
